/* XPM */
static char *_2e8697cf96240acc14892e77bf740c7HoacgKs29oMz3esL[] = {
/* columns rows colors chars-per-pixel */
"50 50 212 2 ",
"   c None",
".  c #1C1415",
"X  c #191315",
"o  c #231716",
"O  c #2B1711",
"+  c #2B1A16",
"@  c #241A1A",
"#  c #2B1C1A",
"$  c #261917",
"%  c #351B14",
"&  c #3C1E12",
"*  c #321E1A",
"=  c #35211D",
"-  c #3B221C",
";  c #3D2621",
":  c #3D2825",
">  c #392826",
",  c #411E11",
"<  c #42251C",
"1  c #482315",
"2  c #5B2D1E",
"3  c #552718",
"4  c #6A331E",
"5  c #79361C",
"6  c #442923",
"7  c #4C2C23",
"8  c #492E2A",
"9  c #452B27",
"0  c #4E332E",
"q  c #46312D",
"w  c #533026",
"e  c #5A3125",
"r  c #53332C",
"t  c #5A342A",
"y  c #5D392E",
"u  c #4D3533",
"i  c #553935",
"p  c #5A3933",
"a  c #553631",
"s  c #562F24",
"d  c #633324",
"f  c #6B3624",
"g  c #6C3C2E",
"h  c #66372B",
"j  c #793921",
"k  c #723D2C",
"l  c #7A3F2E",
"z  c #733922",
"x  c #633C32",
"c  c #6C3E31",
"v  c #633F38",
"b  c #723F30",
"n  c #7D422E",
"m  c #6C4035",
"M  c #6C443B",
"N  c #65443E",
"B  c #744335",
"V  c #7B4434",
"C  c #75453A",
"Z  c #7C4A3C",
"A  c #7A473A",
"S  c #5F4341",
"D  c #6D4B45",
"F  c #734841",
"G  c #794E45",
"H  c #79524C",
"J  c #962E02",
"K  c #992F01",
"L  c #953005",
"P  c #9C3304",
"I  c #93340B",
"U  c #9B360B",
"Y  c #9F390A",
"T  c #8F3C1B",
"R  c #863517",
"E  c #933711",
"W  c #953913",
"Q  c #9D3C12",
"!  c #933D1A",
"~  c #9A3E1B",
"^  c #8A2E0B",
"/  c #A13504",
"(  c #A23906",
")  c #A43B0B",
"_  c #A93D0D",
"`  c #A93B06",
"'  c #A63F11",
"]  c #873D20",
"[  c #97401E",
"{  c #9C411E",
"}  c #A54215",
"|  c #AA4213",
" . c #A6451A",
".. c #AB461A",
"X. c #AD481F",
"o. c #B1491D",
"O. c #AC400E",
"+. c #8D4224",
"@. c #82442E",
"#. c #8C462C",
"$. c #934224",
"%. c #9C4423",
"&. c #92462A",
"*. c #9C4A2C",
"=. c #994829",
"-. c #8E4B34",
";. c #834B3B",
":. c #8A4C3A",
">. c #874834",
",. c #934C34",
"<. c #9B4E34",
"1. c #924E39",
"2. c #8C503E",
"3. c #9C5036",
"4. c #94513B",
"5. c #9C543C",
"6. c #A64B25",
"7. c #AB4B23",
"8. c #A34C2B",
"9. c #AA4E2D",
"0. c #A24523",
"q. c #B24D24",
"w. c #AD512E",
"e. c #B4522D",
"r. c #B8542D",
"t. c #A14E32",
"y. c #A35135",
"u. c #AB5334",
"i. c #A2553B",
"p. c #AC573A",
"a. c #B25533",
"s. c #B95632",
"d. c #B45937",
"f. c #BA5937",
"g. c #B45C3C",
"h. c #BB5C3C",
"j. c #B8603F",
"k. c #844E40",
"l. c #8C5242",
"z. c #8E594D",
"x. c #875347",
"c. c #925442",
"v. c #9A5643",
"b. c #9D5944",
"n. c #94594B",
"m. c #9E5D4B",
"M. c #915748",
"N. c #845A53",
"B. c #8B5D55",
"V. c #945E51",
"C. c #995F50",
"Z. c #A45A43",
"A. c #AA5D45",
"S. c #A35E4A",
"D. c #AB5F4A",
"F. c #B25D42",
"G. c #BA5F40",
"H. c #9C6255",
"J. c #96655A",
"K. c #9B665A",
"L. c #9E695E",
"P. c #966156",
"I. c #A5604C",
"U. c #AB614B",
"Y. c #B56145",
"T. c #BA6244",
"R. c #B5644B",
"E. c #BB664B",
"W. c #BD684E",
"Q. c #A46353",
"!. c #AB6552",
"~. c #AD6856",
"^. c #A46A5D",
"/. c #AC6A5A",
"(. c #A0665A",
"). c #B26751",
"_. c #B56A54",
"`. c #BC6B53",
"'. c #B36D5B",
"]. c #BC6F59",
"[. c #BD725C",
"{. c #B7705F",
"}. c #9D6B62",
"|. c #A66D62",
" X c #AB7265",
".X c #A1736B",
"XX c #AB756C",
"oX c #B47364",
"OX c #BD7564",
"+X c #B4796E",
"@X c #BC7A6C",
"#X c #B97768",
"$X c #A87873",
"%X c #B37C73",
"&X c #BB7D72",
"*X c #C0674B",
"=X c #C06342",
"-X c #C06B52",
";X c #C1725D",
":X c #C07663",
">X c #C17867",
",X c #C27A6A",
"<X c #C17E71",
"1X c #BF8175",
"2X c #B9837A",
"3X c #C28175",
"4X c #C3857A",
"5X c #C2887E",
"6X c #BF8C87",
"7X c #C38B83",
"8X c #C28E89",
"9X c #C5938E",
/* pixels */
"                                                                                                    ",
"                                                                                                    ",
"                                                                                                    ",
"                                                                                                    ",
"                                                                                                    ",
"                                                                                                    ",
"                                                                                                    ",
"                                                                                                    ",
"                                                                U.A.A.i.<.*.3.5.i.Q.~.              ",
"                                            ~.~.).U.F.A.p.p.y.u.u.w.u.u.u.g.g.R.U.i.Q.              ",
"                        <.5.5.<.i.y.a.w.u.a.w.e.a.r.s.s.s.h.G.G.h.h.T.E.E.R.R.R._.R.3.A.            ",
"          R +.[ [ { 0.8.7.w.a.d.h.h.f.h.h.h.=XE.*X*X*X*X-X-X;X;X].].].].].].'.`.R.g.=.I.            ",
"        R L U } ..q.a.f.h.T.T.W.`.-X;X>X<X<X<X4X4X1X3X3X@X,X3X3X@X>XOX[.{.[._.R.Y.d.=.!.            ",
"        I Y | ..q.e.d.g.G.T.E.E.E.'./.%X%X7X9X$X.X$X.XN.}.L.%X4X3X@X>XOX[.{.`.`.Y.g.8.Q.            ",
"        E / | ..7.a.f.h.G.E.E.U.B n.(.|.V.4X XJ.6X.X8 N.7X2X|.+X3X@X>XOX[.].`._.E.g.8.Z.            ",
"        ! P | ..q.e.d.h.h.T.E.A < OX/.&X}.&XN.%X%XXX: N.+X}.2XK.,X>XOX[.[.].`.W.Y.g.9.i.            ",
"        ! / ' ..q.e.f.h.G.G.E.M - [.H.oXP.V.J.2X^. X9 H %XD 6X}.OX>X>X[.[.].`.W.Y.g.w.y.            ",
"        ! ( ' o.q.e.f.h.G.E.-Xk.= OXH.|.z.6 K.N.D %X8 D 6XB.@XL.OX:X:X[.].`.`.E.g.g.u.y.            ",
"        ! / ' 7.q.e.s.h.E.*X`.z.* '.Q.OXC.# P.N.i &X0 S 9X1XoXV.OX:X>XOX[.[.`.`.E.j.a.i.            ",
"        ! / _ q.q.e.s.h.G.E.-XC.# m.~.m.;.# p i # p r # 0 9 ; F [.:X>X>X;X[.].`.E.j.a.t.            ",
"        T P _ o.q.r.f.G.E.E.-Xm.. * - * p a > i u H K.N D N.}.%X:X:X>X,X[.].`.W.E.j.d.y.!.          ",
"        #.J ( o.q.r.h.G.E.`.E.E.k.B.K.|.@X&X&X<X7X8X7X7X4X3X5XOX~.Q.Q.{.l.v.5.4.Z.j.h.y.!.          ",
"        -.J P ..q.s.h.=XE.E.].E._./.~.'.~.Q.K.H.H. XH.z.z.P.^.z.^./.m.m y R.U.A.v.Y.g.y.S.          ",
"        c.I K ' q.8.<.i.1.v.m.c v.Q.(.;.7 L.+X%XK.c Z Q.C #Xm r @XZ m r i Q.t I.b.Y.j.w.i.          ",
"          E K _ 0.3 u.5.v.).c - '.Q.].A X 6 C.}.M r F oXz.{.v q @Xk.Z B u #X).).l.Y.j.u.5.          ",
"          ! K _ T , d.T.-X`.B - '.C I.M.x @ Z m.^.m v @Xm.oXm : +XM.Z m 0 '.A I.2.E.h.u.i.          ",
"          ! K _ ~ * t.>.l v.C * '.Z m.(.#X8 B !. XF i #XB OXV : oX/.Q.t > H.= Z 2.Y.T.u.3.          ",
"          $.K ( ~ % 8.8 o 5.;.* U.m.].S.oXp v Q.~.C 9 n.e ;.h # N g t y . > o @ m Y.g.a.*.          ",
"          $.P / ' % &.] + l k o b k.V g ).t o t '.G . # # 8 Z 8 u y G ~.M ;.n.n.~.Y.j.u.8.          ",
"          $.K / ' O O k - o g * = > 9 l.>XJ.M H.:XoXQ.Q.XX#X,X&XOX;X;X:X[.`.W.W.E.Y.g.a.*.          ",
"          ! J / ' 5 j p.v.v.).D.~.OX@X>X:X4X,XOX].;X`.`.]._.'.].R.i.i.I.5.,.4.,.-.U.j.a.<.I.        ",
"          ! J / o.q.r.G.G.G.E.W.F.D.).!.R.b.S.v.1.Z.;.c.g 1.v.S.2.Z.I.:.6 c.U.Y.4.i.g.p.*.I.        ",
"          T J / | o.[ +.&.,.,.n 4.d >.1.d ;.~.~.~.g w '.t !.v.w c.U.b C = c.m n 5.3.g.p.<.I.        ",
"          $.L / O.| 1 +.a.d.z - Y.r 1.4.* ;.4.t c.x 7 '.m.!.c.; :.S.t c.= 2.U.U.5.3.d.p.t.m.        ",
"          &.P P ) { % [ &.2 d - g.g :.5.* >.;.$ w A < R.R.A.1.7 A R.B 4.- 2.4.,.:.3.d.p.3.Z.        ",
"          +.P Y O.{ & E $.d -.= i.B >.Z.< k -.< 2.k - A.f 5.5.< V R.v.-.= A #.- 4.,.g.g.y.m.        ",
"          &.P ) O. .- R 8.,.3.- *.y.u.i.6 f u.#.Y.l % 5.7 k -.6 w n k f = = < X - #.p.g.p.I.        ",
"            P ( O.| , 5 $.y.i.% +.%.$.j < - f d 2 d $ * # + s e $ - < z f < d 2 4 6.8.w.3.b.        ",
"            L Y }  .1 O 3 8.*.+ + % - e f - r h g 3.@.@.*.=.6.7.%. .} O.O.} | O.) ) { { ,.Z.        ",
"            I P  . .5 2 +.w.p.-.,.i.y.u.a.7.w.q.o...| O._ ` ( ( / / P P P L I E [ [ &.3.5.          ",
"            ^ J { 7. .X.7..... ...| ' _ _ / / / P / P P U U Q ~ ~ { { %.*.i.3.v.v.v.5.              ",
"            R J Y  .} ) ) P P P / U Q Q ~ 0.%.t.t.t.Z.Z.A.i.Z.U.A.v.                                ",
"            R J I W [ [ ~ =.*.t.y.i.Z.D.D.).~.                                                      ",
"            R L E [ 0.i.                                                                            ",
"                                                                                                    ",
"                                                                                                    ",
"                                                                                                    ",
"                                                                                                    ",
"                                                                                                    ",
"                                                                                                    "
};
