/* XPM */
static char *result[] = {
/* columns rows colors chars-per-pixel */
"50 50 123 2 ",
"   c #433439",
".  c #2A3141",
"X  c #354056",
"o  c #394A63",
"O  c #524E5D",
"+  c #60464C",
"@  c #606376",
"#  c #77697B",
"$  c #77767C",
"%  c #7C757E",
"&  c #79787E",
"*  c #6C7182",
"=  c #767681",
"-  c #7A7280",
";  c #7C7B83",
":  c #747789",
">  c #77798A",
",  c #7D7E8B",
"<  c #807E86",
"1  c #7E828C",
"2  c #7F8190",
"3  c #7D8994",
"4  c #7E8C9B",
"5  c #7A909F",
"6  c #828187",
"7  c #83838C",
"8  c #88878C",
"9  c #8A898E",
"0  c #838593",
"q  c #858A95",
"w  c #8C8B93",
"e  c #878998",
"r  c #8B8C9A",
"t  c #908F93",
"y  c #8F9196",
"u  c #84919A",
"i  c #8D949B",
"p  c #929195",
"a  c #93939B",
"s  c #98979A",
"d  c #9B9A9D",
"f  c #8395A5",
"g  c #8B97A6",
"h  c #8298A6",
"j  c #8B98A3",
"k  c #8298A8",
"l  c #8C9BAD",
"z  c #979CA3",
"x  c #9C9CA2",
"c  c #929FAF",
"v  c #9F9FA8",
"b  c #839AB4",
"n  c #899EB0",
"m  c #9B98B7",
"M  c #A09FA3",
"N  c #8FA4AF",
"B  c #9CA1A6",
"V  c #91A1AA",
"C  c #9DA3AD",
"Z  c #95A6B2",
"A  c #97ABB6",
"S  c #9CABB4",
"D  c #95A9BB",
"F  c #98AFBC",
"G  c #9DB1BC",
"H  c #A2A2A5",
"J  c #A5A6AA",
"K  c #ABABAE",
"L  c #ACADB3",
"P  c #A1AEB8",
"I  c #A3B3BD",
"U  c #AEB7BD",
"Y  c #AFB9BE",
"T  c #B3B2B4",
"R  c #B8B7B7",
"E  c #B3B3B8",
"W  c #B4B9BC",
"Q  c #BABBBD",
"!  c #9FAFC2",
"~  c #9EB1C1",
"^  c #A0B5C1",
"/  c #ADB6C3",
"(  c #A5B9C4",
")  c #ACBBC5",
"_  c #A3B5C9",
"`  c #ABBCC8",
"'  c #B4BCC3",
"]  c #BABEC2",
"[  c #BABEC8",
"{  c #ABBDD4",
"}  c #B7C0C6",
"|  c #BCC1C5",
" . c #B3C3CD",
".. c #BEC4CA",
"X. c #B4C5D2",
"o. c #B9C7D5",
"O. c #B7C9D4",
"+. c #BEC9D4",
"@. c #B5CADE",
"#. c #BBCAD9",
"$. c #BED6EE",
"%. c #C0C1C7",
"&. c #C1C5C9",
"*. c #C2C8CE",
"=. c #C4CBD2",
"-. c #CBCED1",
";. c #C5CFDB",
":. c #CBD2D6",
">. c #C6D3DE",
",. c #CDD6DE",
"<. c #DBDBDE",
"1. c #C5D3E2",
"2. c #CAD6E4",
"3. c #CDD9E3",
"4. c #C9D7E8",
"5. c #CDDBEA",
"6. c #D1DBE2",
"7. c #DFDFE2",
"8. c #D4E0EA",
"9. c #DAE4E9",
"0. c #E4E4E6",
"q. c #F3F3F3",
"w. c None",
/* pixels */
"w.w.w.w.w.w.w.w.w.w.w.w.w.w.w.w.w.w.w.w.w.w.w.w.w.w.w.w.w.w.w.w.w.w.w.w.w.w.w.w.w.w.w.w.w.w.w.w.w.w.",
"w.w.w.w.w.w.w.w.w.w.w.w.w.w.w.w.w.w.w.w.w.w.w.w.w.w.w.w.w.w.w.w.w.w.w.w.w.w.w.w.w.w.w.w.w.w.w.w.w.w.",
"w.w.w.w.w.w.w.w.w.w.w.w.w.w.w.w.w.w.w.w.w.w.w.w.w.w.w.w.w.w.w.w.w.w.w.w.w.w.w.w.w.w.w.w.w.w.w.w.w.w.",
"w.w.w.w.w.w.w.w.w.w.w.w.w.w.w.w.w.w.w.w.w.w.w.w.w.w.w.w.w.w.w.w.w.w.w.w.w.w.w.w.w.w.w.w.w.w.w.w.w.w.",
"w.w.w.w.w.w.w.w.w.w.w.w.w.w.w.w.w.w.w.w.w.w.w.w.w.w.w.w.w.w.w.w.w.w.w.w.w.w.w.w.w.w.w.w.w.w.w.w.w.w.",
"w.w.w.w.w.w.w.w.w.w.w.w.w.w.w.w.w.w.w.w.w.w.w.w.w.w.w.w.w.w.w.w.w.w.w.w.w.w.w.w.w.w.w.w.w.w.w.w.w.w.",
"w.w.w.w.w.w.w.w.w.w.w.w.w.w.w.w.w.w.w.w.w.w.w.w.w.w.w.w.w.w.w.w.w.w.w.w.w.w.w.w.w.w.w.w.w.w.w.w.w.w.",
"w.w.w.w.w.w.w.w.w.w.w.w.w.w.w.w.w.w.w.w.w.w.w.w.w.w.w.w.w.w.w.w.w.w.w.w.w.w.w.w.w.w.w.w.w.w.w.w.w.w.",
"w.w.w.w.w.w.w.w.w.w.w.w.w.w.w.w.w.w.w.w.w.w.w.w.w.w.w.w.w.w.w.w.w.w.w.w.w.w.w.w.w.w.w.w.w.w.w.w.w.w.",
"w.w.w.w.w.w.w.w.w.w.w.w.w.w.w.w.w.w.w.w.w.w.w.w.w.w.w.w.w.w.w.w.w.w.w.w.w.w.w.w.w.w.w.w.w.w.w.w.w.w.",
"w.w.w.w.w.w.w.w.w.w.w.w.w.w.w.w.w.w.w.w.w.w.w.w.w.w.w.w.w.w.w.w.w.w.w.w.w.w.w.w.w.w.w.w.w.w.w.w.w.w.",
"w.w.w.w.w.w.w.w.w.w.w.w.w.w.w.w.w.w.w.w.w.w.w.w.w.w.w.w.w.w.w.w.w.w.w.w.w.w.w.w.w.w.w.w.w.w.w.w.w.w.",
"w.w.w.w.w.w.w.w.w.w.w.w.w.w.w.w.q.q.<.0.-.J < % 8 j w.w.w.w.w.w.w.w.w.w.w.w.w.w.w.w.w.w.w.w.w.w.w.w.",
"w.w.w.w.w.w.w.w.w.w.w.w.w.w.q.0.0.] L a 1 > ; - w L B z Z w.w.w.w.w.w.w.w.w.w.w.w.w.w.w.w.w.w.w.w.w.",
"w.w.w.w.w.w.w.w.w.w.w.w.w.<.%.J a 7 > = ; 8 8 8 9 H H S ^ ( w.w.w.w.w.w.w.w.w.w.w.w.w.w.w.w.w.w.w.w.",
"w.w.w.w.w.w.w.w.w.w.w.w.%.z , > > > ; $ ; & , 9 6 y 8 M I ^ w.w.w.w.w.w.w.w.w.w.w.w.w.w.w.w.w.w.w.w.",
"w.w.w.w.w.w.w.w.w.w.w.m e , , , 0 e , % & & & 8 8 t t J W  .} w.w.w.w.w.w.w.w.w.w.w.w.w.w.w.w.w.w.w.",
"w.w.w.w.w.w.w.w.w.w.w.< > , e e e 7 7 ; ; & & 8 9 9 9 s K } X. .w.w.w.w.w.w.w.w.w.w.w.w.w.w.w.w.w.w.",
"w.w.w.w.w.w.w.w.w.w.: < e e < 0 w 8 6 & 6 & 1 8 6 ; < 8 H )  . .w.w.w.w.w.w.w.w.w.w.w.w.w.w.w.w.w.w.",
"w.w.w.w.w.w.w.w.w.w., < < 4 0 0 w 6 8 6 6 8 9 d t & 6 9 p  .X.X.#.w.w.w.w.w.w.w.w.w.w.w.w.w.w.w.w.w.",
"w.w.w.w.w.w.w.w.w.+ < < 0 < < 0 8 7 8 8 6 t d H p p d s s Y X. .o.w.w.w.w.w.w.w.w.w.w.w.w.w.w.w.w.w.",
"w.w.w.w.w.w.w.w.X < < g 0 , e , 8 , 8 d t s M s p J R J J | #.+.#.1.w.w.w.w.w.w.w.w.w.w.w.w.w.w.w.w.",
"w.w.w.w.w.w.w.w.O b < m 0 , 0 , 1 ; 8 J Q T d p p d Q Q Q | ' #.1.4.5.w.w.w.w.w.w.w.w.w.w.w.w.w.w.w.",
"w.w.w.w.w.w.w.. * < < < 0 e < < 7 & 6 p R Q J J K Q T &...*.] +.1.5.5.5.w.w.w.w.w.w.w.w.w.w.w.w.w.w.",
"w.w.w.w.w.w.w.o * , e e < 0 0 < 1 & ; 9 H B y t x | Q Q T ..| =.4.4.5.3.1.w.w.w.w.w.w.w.w.w.w.w.w.w.",
"w.w.w.w.w.w.w.o : > < 0 e r < , 1 6 9 y d 9 1 u B W } | | *.....,.3.5.4.w.w.w.w.w.w.w.w.w.w.w.w.w.w.",
"w.w.w.w.w.w.w.w.> , , < 0 r e 0 9 9 p M B u 3 5 Z ) Q ..-.,.6.,.=...5.5.5.w.w.w.w.w.w.w.w.w.w.w.w.w.",
"w.w.w.w.w.w.w.w., 0 > , < < < 0 q w p 9 B B j g Z Y } | =.%.:.9.6.=.>.4.5.w.w.w.w.w.w.w.w.w.w.w.w.w.",
"w.w.w.w.w.w.w.w.b z , < < 0 , , 7 w p 6 p z y f w.G Y K | R -.9.8.,.>.+.' ;.w.w.w.w.w.w.w.w.w.w.w.w.",
"w.w.w.w.w.w.w.w.w.w.M g e y r ; , p w 8 8 y 8 3 w.N G ) Q *...:.3.1.1.#./ w.w.w.w.w.w.w.w.w.w.w.w.w.",
"w.w.w.w.w.w.w.w.w.w.@.=.z r J 7 7 x T H B i 3 1 5 j Z G (  .O.W ] #.X.w.w.w.w.w.w.w.w.w.w.w.w.w.w.w.",
"w.w.w.w.w.w.w.w.w.w.w.w.;.] L s 0 w L R J C w.4 w.h i V A G I w.~ w.! w.w.w.w.w.w.w.w.w.w.w.w.w.w.w.",
"w.w.w.w.w.w.w.w.w.w.w.w.w.w.$.[ L v z E L m n f w.k g z Z Z Z w.w.w.w.w.w.w.w.w.w.w.w.w.w.w.w.w.w.w.",
"w.w.w.w.w.w.w.w.w.w.w.w.w.w.w.w.w.w.{ _ w.D V n w.w.w.w.w.w.w.w.w.w.w.w.w.w.w.w.w.w.w.w.w.w.w.w.w.w.",
"w.w.w.w.w.w.w.w.w.w.w.w.w.w.w.w.w.w.w.w.w.w.w.w.w.w.w.w.w.w.w.w.w.w.w.w.w.w.w.w.w.w.w.w.w.w.w.w.w.w.",
"w.w.w.w.w.w.w.w.w.w.w.w.w.w.w.w.w.w.w.w.w.w.w.w.w.w.w.w.w.w.w.w.w.w.w.w.w.w.w.w.w.w.w.w.w.w.w.w.w.w.",
"w.w.w.w.w.w.w.w.w.w.w.w.w.w.w.w.w.w.w.w.w.w.w.w.w.w.w.w.w.w.w.w.w.w.w.w.w.w.w.w.w.w.w.w.w.w.w.w.w.w.",
"w.w.w.w.w.w.w.w.w.w.w.w.w.w.w.w.w.w.w.w.w.w.w.w.w.w.w.w.w.w.w.w.w.w.w.w.w.w.w.w.w.w.w.w.w.w.w.w.w.w.",
"w.w.w.w.w.w.w.w.w.w.w.w.w.w.w.w.w.w.w.w.w.w.w.w.w.w.w.w.w.w.w.w.w.w.w.w.w.w.w.w.w.w.w.w.w.w.w.w.w.w.",
"w.w.w.w.w.w.w.w.w.w.w.w.w.w.w.w.w.w.w.w.w.w.w.w.w.w.w.w.w.w.w.w.w.w.w.w.w.w.w.w.w.w.w.w.w.w.w.w.w.w.",
"w.w.w.w.w.w.w.w.w.w.w.w.w.w.w.w.w.w.w.w.w.w.w.w.w.w.w.w.w.w.w.w.w.w.w.w.w.w.w.w.w.w.w.w.w.w.w.w.w.w.",
"w.w.w.w.w.w.w.w.w.w.w.w.w.w.w.w.w.w.w.w.w.w.w.w.w.w.w.w.w.w.w.w.w.w.w.w.w.w.w.w.w.w.w.w.w.w.w.w.w.w.",
"w.w.w.w.w.w.w.w.w.w.w.w.w.w.w.w.w.w.w.w.w.w.w.w.w.w.w.w.w.w.w.w.w.w.w.w.w.w.w.w.w.w.w.w.w.w.w.w.w.w.",
"w.w.w.w.w.w.w.w.w.w.w.w.w.w.w.w.w.w.w.w.w.w.w.w.w.w.w.w.w.w.w.w.w.w.w.w.w.w.w.w.w.w.w.w.w.w.w.w.w.w.",
"w.w.w.w.w.w.w.w.w.w.w.w.w.w.w.w.w.w.w.w.w.w.w.w.w.w.w.w.w.w.w.w.w.w.w.w.w.w.w.w.w.w.w.w.w.w.w.w.w.w.",
"w.w.w.w.w.w.w.w.w.w.w.w.w.w.w.w.w.w.w.w.w.w.w.w.w.w.w.w.w.w.w.w.w.w.w.w.w.w.w.w.w.w.w.w.w.w.w.w.w.w.",
"w.w.w.w.w.w.w.w.w.w.w.w.w.w.w.w.w.w.w.w.w.w.w.w.w.w.w.w.w.w.w.w.w.w.w.w.w.w.w.w.w.w.w.w.w.w.w.w.w.w.",
"w.w.w.w.w.w.w.w.w.w.w.w.w.w.w.w.w.w.w.w.w.w.w.w.w.w.w.w.w.w.w.w.w.w.w.w.w.w.w.w.w.w.w.w.w.w.w.w.w.w.",
"w.w.w.w.w.w.w.w.w.w.w.w.w.w.w.w.w.w.w.w.w.w.w.w.w.w.w.w.w.w.w.w.w.w.w.w.w.w.w.w.w.w.w.w.w.w.w.w.w.w.",
"w.w.w.w.w.w.w.w.w.w.w.w.w.w.w.w.w.w.w.w.w.w.w.w.w.w.w.w.w.w.w.w.w.w.w.w.w.w.w.w.w.w.w.w.w.w.w.w.w.w."
};
