/* XPM */
static char *_77b3db689c54eb38f6bf09c950397daPwMt5OTZNJR6HiLG[] = {
/* columns rows colors chars-per-pixel */
"50 50 221 2 ",
"   c #030202",
".  c #0A0204",
"X  c #020805",
"o  c #050509",
"O  c #0B050B",
"+  c #090A08",
"@  c #170607",
"#  c #09130B",
"$  c #170E12",
"%  c #161C1B",
"&  c #0A1313",
"*  c #270907",
"=  c #35090A",
"-  c #231916",
";  c #17221A",
":  c #0B2318",
">  c #251F26",
",  c #282628",
"<  c #362B28",
"1  c #383A37",
"2  c #34332C",
"3  c #45090C",
"4  c #560D0D",
"5  c #550E14",
"6  c #551817",
"7  c #4E0D0E",
"8  c #67070D",
"9  c #7D0302",
"0  c #7C0906",
"q  c #7D060B",
"w  c #760B0C",
"e  c #7C0B0B",
"r  c #740505",
"t  c #6E0910",
"y  c #7A0E14",
"u  c #6A1919",
"i  c #771316",
"p  c #7F100A",
"a  c #572A29",
"s  c #4E3935",
"d  c #573231",
"f  c #642627",
"g  c #7B2C2D",
"h  c #6A3538",
"j  c #76302D",
"k  c #7A403C",
"l  c #403F40",
"z  c #4B4B4B",
"x  c #444444",
"c  c #545454",
"v  c #5A5A5A",
"b  c #575854",
"n  c #764848",
"m  c #6A5A57",
"M  c #6F4F46",
"N  c #646464",
"B  c #6C6C6C",
"V  c #656868",
"C  c #796968",
"Z  c #77716D",
"A  c #747575",
"S  c #7C7C7C",
"D  c #7C7672",
"F  c #840303",
"G  c #8B0304",
"H  c #860C06",
"J  c #8B0A06",
"K  c #84060A",
"L  c #8C050C",
"P  c #840B0B",
"I  c #8C0B0B",
"U  c #9C0405",
"Y  c #940B06",
"T  c #9B060B",
"R  c #930B0D",
"E  c #9B0C0D",
"W  c #950608",
"Q  c #8C110D",
"!  c #95110D",
"~  c #9A100B",
"^  c #931007",
"/  c #8C0C11",
"(  c #810911",
")  c #940D11",
"_  c #9B0D12",
"`  c #8B1418",
"'  c #951113",
"]  c #9C1212",
"[  c #9A151A",
"{  c #A2070A",
"}  c #A20C0D",
"|  c #AA0C0D",
" . c #A70506",
".. c #B30C0D",
"X. c #B8080D",
"o. c #A4110C",
"O. c #AC110D",
"+. c #A31004",
"@. c #B2110D",
"#. c #BA100F",
"$. c #A30E12",
"%. c #AB0D12",
"&. c #AD0D1C",
"*. c #B20D12",
"=. c #BB0C13",
"-. c #A41213",
";. c #AB1213",
":. c #A51A1C",
">. c #B31211",
",. c #BB1315",
"<. c #B2181A",
"1. c #842119",
"2. c #841921",
"3. c #951B23",
"4. c #A41A22",
"5. c #8B2625",
"6. c #942929",
"7. c #85312F",
"8. c #962C34",
"9. c #8E3538",
"0. c #9B3B3B",
"q. c #953638",
"w. c #A52928",
"e. c #A33839",
"r. c #B52E2D",
"t. c #C10E0C",
"y. c #9C3B42",
"u. c #A93D43",
"i. c #874846",
"p. c #944845",
"a. c #94524F",
"s. c #A64446",
"d. c #AC5E5A",
"f. c #A55A60",
"g. c #896B6B",
"h. c #9A676A",
"j. c #887879",
"k. c #8E7275",
"l. c #A66767",
"z. c #A87278",
"x. c #6E8A7B",
"c. c #84847E",
"v. c #96807B",
"b. c #7D7D81",
"n. c #877C82",
"m. c #7F8782",
"M. c #838383",
"N. c #8C8C8C",
"B. c #8A8684",
"V. c #96868A",
"C. c #8E9692",
"Z. c #939393",
"A. c #9B9B9B",
"S. c #94999A",
"D. c #8C948B",
"F. c #AD908C",
"G. c #98A296",
"H. c #999CA3",
"J. c #A29EA1",
"K. c #A3A3A3",
"L. c #ABABAB",
"P. c #A5ACA7",
"I. c #B9ABA7",
"U. c #A7B2AD",
"Y. c #ACB3B4",
"T. c #B3B3B3",
"R. c #BCBCBC",
"E. c #B7B8B9",
"W. c #B3AFAF",
"Q. c #C2BDBE",
"!. c #C9AFAD",
"~. c #BBC2BE",
"^. c #C4C1BB",
"/. c #C2BCC1",
"(. c #BDC5C4",
"). c #C4C4C4",
"_. c #CBCBCB",
"`. c #C7C9C7",
"'. c #D3CACB",
"]. c #CCD0CF",
"[. c #D2CFD1",
"{. c #CDD3D5",
"}. c #D4D4D4",
"|. c #DDDDDD",
" X c #DADADA",
".X c #D9D8D6",
"XX c #CECBD5",
"oX c #E0DDDF",
"OX c #DEE1DF",
"+X c #E3E0DC",
"@X c #DEDCE2",
"#X c #E3DEE1",
"$X c #DDE4E4",
"%X c #E1E2E1",
"&X c #E5E5E5",
"*X c #E3E3E2",
"=X c #EFEFEF",
"-X c #EEEEEE",
";X c #EDEDED",
":X c #EDECEC",
">X c #E9E8E8",
",X c #F1EFEF",
"<X c #EEF0EE",
"1X c #F2F0EE",
"2X c #EFEFF1",
"3X c #F0EFF1",
"4X c #EEF2F1",
"5X c gray94",
"6X c #F1F1F1",
"7X c gray95",
"8X c #F3F3F3",
"9X c #F4F4F4",
"0X c #F7F7F7",
"qX c #F2F2F2",
"wX c #F9F6F6",
"eX c #F9FAF7",
"rX c #F9F7F9",
"tX c #F9F9F9",
"yX c #FEFEFE",
"uX c #F9F9FA",
"iX c #F5F8F6",
/* pixels */
"8X8X8X8X-X8X8X8X8X-X9X8X8X8X8X8X-X4X3X,X8X9X9XrX9XyXuXuX9X8X1X-X8X8X8X8X8X8X8X8X8X8X-X8X-X8X8X-X8X-X",
"8X8X8X-X8X-X8X8X8X8X-X8X8X8X8X8X8X8XuX0X3X*X|.}._.`._.}.&X8XrXuX9X4X8X-X2X-X8X8X8X8X9X-X8X8X8X8X8X8X",
"-X8X-X8X8X-X-X8X-X-X8X8X-X8X8X9XuX>X}.L.Z.A S Z.n.A M.S S M.A.T.*XiXuX-X-X8X4X-X8X<X8X3X8X8X-X-X-X8X",
"8X-X8X-X8X8X-X8X8X-X8X,X-X9X9X_.J.S.W.E.`.).T.`._._.(. X`.).L.S n.Z.`.iX9X1X3X8X3X8X-X8X-X8X8X8X-X8X",
"8X8X8X8X8X-X8X8X8X8X-X9X0X}.Z.S A K.}._.|.|..X%X%X%X|.8XyXyXyX>XR.K.M.Z.}.9X8X8X8X-X-X-X8X-X8X-X8X8X",
"8X-X-X8X8X8X8X8X8X-X9X&XL.B S _.}.T.T.`.)._.).OX-X9XyX9X:X-X9XyXyXyX&XL.A K.>X9X8X-X8X8X-X8X8X-X8X-X",
"8X-X-X8X8X-X-X8X-XuX.XK.S.L.R._.&X*X}.].)._.R.R. X$XuX>X}.8X<XR.9X9X>X-X).M.M.}.9X8X-X-X8X8X8X8X-X8X",
"8X8X-X8X8X8X8X-XrX[.A.E._.`.).E.&X>X;X.X)._._.E.J._.K.L.&X>XA.B K.8X%X8X<X%XL.N.).9X-X8X8X-X8X-X8X8X",
"8X8X8X-X8X8X-XeX).S..X|.)._. XW.P.A.Z.Z.b.B.R.8X[.^.Z.R.].P.A Z.N Z.T.R.@X2X4X).N._.9X8X-X8X8X8X-X8X",
"-X8X8X8X8X,XuXQ.V T.S.R.*X}.T.S A B c N c b A K.:X}.}.|..X_.A z N x v Z.E.R.).}.E.S _.9X2X-X8X-X8X8X",
"9X-X-X8X,X8X}.S.T.R.Z.`.}.R.m.N.M.c Z.K.N.A.A.M.T.*X.X].Y.}.T.A 2 A M.S Z.).].R.).Z.A  X9X1X8X8X8X-X",
"8X8X-X-X8X>XZ.T.9X_.|.oXL.S B M.z R.uX_._.`.).[.$X`.Q.Q.E.Q.#XR.N N S Z.n.L._._.).T.Z.N.:XiX<X1X-X8X",
"-X8X2X-X9XW.S.,X>X}.&Xm.N M.B A v Z..X*X3X|.Q.T.'._.).`.T.T.W.Q.N.B S N.N.c.A.).}.).).H.K.9X8X8X8X-X",
"8X8X1XuX].M.L._.}.).S.x S M.n.V A c N.E.%X%X$XR.R.J.H.T.R.T._.E.S b.V A V M.A L.`.}.Q.L.S _.uX-X8X8X",
"-X8X8X8Xm.Z.R.T.L.S c B l v N A M.l < (._._._.|.}./.L.T.L.W.`.b z N.A b c z S S Q.|.E.P.N.N.9X8X-X8X",
"8X-XuX).A )./.K.A c B s S Y.L.A z     c  X/.).}.}. X`.T.Y.T.C O   1 S _.>XZ.N A T.[._._.).M._.0X8X-X",
"3X3XrXZ.N.R._.R.).B c A R.E._.T.1   o   C }.].*X X*XeX%X:Xk.+ +   o L.>X X|.N.M.}._.}.oX%XS.K.wX-X9X",
"8X9X*Xn.A.L.)._. XR.M.T.T.L.L.~.S.>   5 Y F..XOXOX>X8XyX`.6.4 X   Z. X).E.}.A.S |.9X&X XR.N.S >X9X-X",
"3XuXR.x.).}.>X].R.R._.}.%X}.).T.W.B 3 P Y Y !.{.[..XeX.Xs. .,.8 V ).L.`.).|.A.A }.>X&X_.T.K.B T.yX8X",
"8XuXA.N.).).|. XT.K.).}.[..X/._.R.T.g.i I ~ ' !.|.&X$Xd.=.-.U f._.T.L._.).%XL.N.eX<X X_.R.R.A M.9X8X",
"8X,XJ.W.|. X_.}.T.R.}._.`.T.K.W.R.T.U.g.] } | 6.+X,Xl.;.,.| q.(.T.`._.:XOXOXB.A.-X9X>X).T.T.M.V -X1X",
"8X>XZ. XiXiX8XiX&X)._._.E.A.^.~.R.E.T.Q.a.I O.U 0.F.r.,.O.` _.@XQ.R.).[.$X}.Z.E.|.OX-X|.~.L.Z.N  XuX",
"eX}.M.}.4XrX8X_.>X].C.T.E.E.R.`.`.Q.}..X^.0.+.[ e 2.<.:.T !.@X*XOXOX>X}.$X.XOX X].[.R.R.}.R.K.B _.rX",
"9X}.S A._.}._.R._.).R.).).).L.L.K.E.[.|.>XJ.j :.w.5.` q z.@X`.}. X:XwX8XyX8X&X_._.].S.S.W._.).S `.uX",
"uX).Z.^.W.Q._.).E.W.[.}.oX[.).L.K.`.'.'.'./.C 8.;.w.P n .X^.'.[.*X}.&X8X+X].&X.X X).L.T.'.'.E.A ).uX",
"0X(.c.s.r.u.e.0.0.9.0.y.7.q.0.7.g 9.q.q.u.i., l u.,.6 # h s.q.q.s.u.e.0.9.s.s.e.e.0.8.9.9.0.9.S _.uX",
"eX`.k.[  .{ W G U U G 9 9 F F 9 F F r G L < O , M 6 , &   8 F 9 G { T  .+. . . .W G J 9 9 G / V.}.0X",
"eX_.C [ E -.-.R ) _ ) ) K 0 w t w / U ) s # & , - s $ @   + y ^ Q %.E | O.O.o.E P w I I ! | 4.V..XwX",
"9X$XA 3.K I R I E } E L / e w P I ~ K d %   @ % 5 i ;   .   * ] ) I P / R I P / e w q L R  .w.S..X9X",
"9X>XD.q.G I Q 0 R E $.Y R I P Y K Y j % O $ & 5 ;.J f % + @ X = H Y R w R E ) P K P K I ] U 0.S.>XeX",
"1X8XU.i.W ( t I R | $.%.} E W H W f ,   . X * $.| -./ a % . +   3 $.H I _ | L I R R E } $.W a.Y.8X3X",
"<X9X_.v./ q I ) $.-.} *.%.%._ { u > X     @ Q +.;.;.} ) s +   o . 7 ] L I E I Y ] E %.-.) ' M Y.9X3X",
"8X9X XA.w.Y %.E %._ P $.*.%.Y 2.2     o . e ~ E %.%.E E i < o X   . y -.T E ~ R ~ %.R I 9 8.c._.9X3X",
"8X8X,XY.a.U ] H ) ) /  .O.| ` 1 o .     4 R I K I E I R E u , o . o . ` ,.>.O.} o.%.~ I F i.P.8X8X2X",
"8X1XwX).k./ I I I %._ Q | [ s $       3 $.! ) L P J I P R K f ,   X   @ 4.>.,.=.>.,.~ Y ` C (.wX-X8X",
"8X<X8X&XZ.p.Y ` I I E O.o.h &   X   * ( R I $.$.Y R 0 w P I G a % .   . * -.=.>.@...o.U p.M.*X9X8X-X",
"4X8X-X9XL.m ` J / ' ~ %.j ;       @ y P E Y E E E %.) K H P K w a #   . X = &.O.t.#.o.:.n.R.wX3X8X8X",
"8X8X,X4X>Xx.n L e I } f ,     o + t F P ) $.I Y E %.=.$.P w 0 J ] 1 O   O   3 { o.;.X.l.W.,X4X3X<X8X",
"-X3X8X-XwX`.j.g F I u ,   .   X t E E ) R ) I I %.@.,.;.! H P I } 2.1   . o   3 w 9 e.G.XX9X,X3X,X8X",
"8X8X8X-X,XwXT.V.w.U 2.@   O   4 E E _ $.$.$.R H R ;...>.o.} o.) ! Y a ,     @ 4 r u Z E.rX-X3X8X3X8X",
"8X,X4X8X8X8X,XL.k.3.U ' * X = / R P I R R R ' K 0 I | | ;.| | / ! P q a : * y H t m H.,X,X8X4X3X-X4X",
"4X8X3X-X8X-X8X&XH.g.' Y / 8 / I $.P L _ ] K H I R } ) P F %.$.P I P H E 6 t K i m M.>X9X2X8X8X8X8X8X",
"8X8X8X8X-X8X-X8X&XH.n.8.{ @...R E P / %._ I R R ) I R ) K K Y P P K w I  .G g g.Z.&X8X4X8X8X,X8X8X-X",
"8X3X-X8X8X-X-X-XiX:XY.Z.p.^ | >.-.R K E E K ' R L q H E -.R I R J P P G K k Z S.:XiX<X4X-X8X-X-X-X8X",
"8X9X8X8X8X8X-X8X8X9X8X(.C.h.8.E ..o.~ E R ) T _ I / P E ;.%.[ Y ~ { W 8.h.x.R.8X8X-X4X8X-X-X8X-X-X8X",
"8X-X8X,X-X3X-X8X8X4X1XiX*XL.B M 5.-.} } | %.%.{ Y ] R R ] } | Y Q e.h.C.~.#XuX8X,X8X-X8X8X8X4X1X8X,X",
"-X8X-X8X8X-X3X8X-X8X8X<X4X8X_.Z.c.g.p.6.4.;.X.X. .{ U G R ' 6.p.C D.~.|.9X9X:X8X2X8X8X-X8X8X3X8X3X8X",
"8X8X8X-X-X8X8X4X8X1X8X<X8X4XuX9X@X(.S.N.B.g.h.l.l.l.h.g.k.B m.H.E.#X3X9X-X3X4X1X8X<X2X8X1X8X2X8X8X8X",
"-X8X-X8X8X8X8X8X-X8X-X8X-X8X8X-X9XwX1X*X}.(.~.).^.`.`.`.{.}.OX1XuXwX8X-X,X8X-X8X8X-X-X-X8X-X8X8X,X8X",
"8X-X-X8X-X8X8X-X8X-X8X-X-X8X-X8X-X<X<X8XiX9XiX4X1X4X8XiX9XeX9X1X-X8X,X8X-X8X8X<X8X3X8X8X-X8X8X8X8X4X"
};
