/* XPM */
static char *_15f12858c6b495383d24c6caed59452NgFtlC605v8knTAa[] = {
/* columns rows colors chars-per-pixel */
"50 50 162 2 ",
"   c #101100",
".  c #121A00",
"X  c #1A1D00",
"o  c #1D2000",
"O  c #242601",
"+  c #252900",
"@  c #2B2D03",
"#  c #2D2D09",
"$  c #302F01",
"%  c #2D3104",
"&  c #2D330A",
"*  c #323404",
"=  c #353905",
"-  c #383C04",
";  c #33350B",
":  c #39370B",
">  c #35390B",
",  c #3A3C0D",
"<  c #2F3712",
"1  c #343512",
"2  c #3A3515",
"3  c #363A12",
"4  c #3B3C13",
"5  c #373F1A",
"6  c #3C3E1A",
"7  c #403F0F",
"8  c #403F14",
"9  c #403D19",
"0  c #374000",
"q  c #3B4402",
"w  c #3D420E",
"e  c #354015",
"r  c #3E4213",
"t  c #3F4C17",
"y  c #3E431A",
"u  c #3F4A22",
"i  c #41450F",
"p  c #464B0E",
"a  c #47500D",
"s  c #424415",
"d  c #454A15",
"f  c #4A4C15",
"g  c #43441B",
"h  c #49461B",
"j  c #46491B",
"k  c #4A4C1C",
"l  c #514E19",
"z  c #4A5115",
"x  c #4C511D",
"c  c #4F591D",
"v  c #51551C",
"b  c #545A1D",
"n  c #5B621F",
"m  c #434622",
"M  c #454A21",
"N  c #4B4D23",
"B  c #474B28",
"V  c #4D4E29",
"C  c #504E24",
"Z  c #514E2B",
"A  c #4E5223",
"S  c #4E5826",
"D  c #4D512A",
"F  c #525425",
"G  c #585625",
"H  c #555A25",
"J  c #595C26",
"K  c #53552B",
"L  c #585629",
"P  c #565A2B",
"I  c #585B2E",
"U  c #595A2E",
"Y  c #585A2D",
"T  c #5C5E2C",
"R  c #5C5E2D",
"E  c #5A5C2C",
"W  c #515232",
"Q  c #525633",
"!  c #555631",
"~  c #5A5631",
"^  c #595532",
"/  c #595730",
"(  c #575830",
")  c #565932",
"_  c #595A30",
"`  c #5A5B31",
"'  c #595933",
"]  c #595A32",
"[  c #5A5B33",
"{  c #5A5D30",
"}  c #5B5C32",
"|  c #5C5D31",
" . c #5C5D33",
".. c #5B5C34",
"X. c #5C5D35",
"o. c #5D5E34",
"O. c #5B5D32",
"+. c #5D5E39",
"@. c #615E31",
"#. c #615F34",
"$. c #5B6225",
"%. c #5F612F",
"&. c #5C612D",
"*. c #5D6031",
"=. c #5D6431",
"-. c #5E6333",
";. c #5F6038",
":. c #5E6039",
">. c #616727",
",. c #60602C",
"<. c #60632E",
"1. c #62632E",
"2. c #616331",
"3. c #626530",
"4. c #626433",
"5. c #606135",
"6. c #606334",
"7. c #606137",
"8. c #616437",
"9. c #646637",
"0. c #636434",
"q. c #646934",
"w. c #6C6C36",
"e. c #696E34",
"r. c #616238",
"t. c #64653B",
"y. c #64653D",
"u. c #65663C",
"i. c #65663E",
"p. c #63643A",
"a. c #666839",
"s. c #676A3B",
"d. c #676A3D",
"f. c #666A3B",
"g. c #6B6D3B",
"h. c #6C6F3A",
"j. c #6A6B3F",
"k. c #6F6D3D",
"l. c #6A6C3C",
"z. c #667034",
"x. c #697233",
"c. c #6D713C",
"v. c #71753D",
"b. c #75793E",
"n. c #676941",
"m. c #6A6B41",
"M. c #6F6C41",
"N. c #6B6C42",
"B. c #706D44",
"V. c #6D7245",
"C. c #737444",
"Z. c #797746",
"A. c #7A7847",
"S. c #73744A",
"D. c #75764A",
"F. c #74784B",
"G. c #78794F",
"H. c #7A7B4A",
"J. c #7D7E52",
"K. c #7B804D",
"L. c #808157",
"P. c #8C8F60",
/* pixels */
"H J <.T , , F N M # ~ 2 K Z s g K k j @ 2 N ^ @.B.: : h k D y & 2 Z ..N # ; V Y Y s / / s h h k 6 g ",
"c.F h w > = ] / m 4 : N D :.4 4 F =.{ j 9 N 9 9 B.9 $ : Y g O V 1 M / g 9 K V ; s N m.o.d g g g @ & ",
"1.v d G j w K } N 9 X M N } M 4 g &.{ r g C F B.@.G L ,.o.m 1 u Z K } g g K 4 @ g K m.Y g g k K K D ",
"&.J h 3.: : V S.} 9 O ; m N Y / r j d.y #.8 h k.G J @.G s 6 5 m M g F g s m 8 Y s s k N k , , k k g ",
"i x J k.F : N t.u.4 1 @ B g V Y A k p.g -.@ - w.l $.p d o.s # Q 1 9 K N g 8 , Y M C F p.a.A s k g s ",
"h.E G , F , m.G.u.g 4 8 N F s s &.k k k x * - b.b b f H s.K 5 1 s o...V V k 8 8 7 N G Y H h k s k x ",
"h.%.x i P G p.I 7.o.g N M k g s P M N *.I f = b b b b v 8 m W O 9 -.h s K J P d k A v Y F A 3.K k G ",
"1.3.* , = K k 4 7.B.N N g : P G S r x F 3.x c $.i n >.c.p.m m B s o.4 N 0.V N 4 k : , 3.T G 9.J : l ",
"h.k d % j *.o.F u.o.Y K , F Z.h s I 3.k S x c n - i $.$.w r + B s K K @ ] R Y k d @ * d 3.C.T T L C ",
"a.F 3.f k Y k o.N M.F J , = C.P - x r j &.c z x.b a c a r r 1 +.g V 4 4 Y p.L N g X k K 7.F N q.@.#.",
"H.0.s.F F G * } , N o.K N F G J %.3.r x $.S w z.a a z d A j ; K Z V 4 F Z p.N h } h N L 4 7.g : h C ",
"F v K 3.T N @ } L g 9.j = x N k.v.z.S P S S e z q c p q w N ; ) N g # g @ g g V L o.4 s s J.7.O h G ",
"F k.L 3.s X O F o.K 9.J O @ 3.v.z - c J S M B < 0 =.z z r &.> g K 6 # O o m +.n.V F 6 4 N.Z p.4 8 G ",
"F 9.i F k % K M.F s a.a.= f q.q.p + w A D e S y & =.M S x g., @ Z 6 2 # 9 ^ N.' ..K 4 g ..; K 9 K #.",
"<.<.d L 9.k ] g o.4 T k , T T w.$.a i w u u u u e S S j k H x k M 2 # # 9 W ' m Z g 1 V 1 V ! g ^ / ",
"v.L s : h d *.F h o.Y *.F f J v v e.z > u Q e < & u -.$.H s %.a./ g # O 1 V #.n.V @ #.i.4 g B @ ! Z ",
"J k * 8 k d K J s C K o.C k K g v.d s w 5 # y u r K s c.S > -.d.+ % O % :.y.I d.r A &.H j N & 1 D D ",
"k G , * k s.l.k } K k 4 4 F g s z c =.A & O m ) K ) r H r & :.V.d w = N y -.I E k f x s N { 6 1 ..D ",
"K *.N @ 4 Y V 4 K o.Z , 4 V * k H $.q.N 1 4 ) :.j N j =.j g M S %.E > s g K s E A x s q P r.V 1 5 & ",
"K K } h M h s :., V s @ g , O s &.c r > 6 B K m M t j A g M N D d F s j -.j 4 *.w P c.H D y D +.u B ",
"C K n.K N N g m.K ..; : N.g V K x x x M N N m g j r r k r D g j % r =.a.K k P E f $.e.H K g V W V Q ",
"] o.] 4 1 K +.( N C @ 1 n.4 Y L x 1.3.{ N V M ) & - s P K I 3 o , g.%.D 3 { A x H A d x I N m 2 V 5 ",
"! M 4 1 9 #.S.( 9 V 4 F o.F r.J x 3.K g 4 N m N j j s H F  .M @ j K.F ; > { r h w x k &.k % 1 m u & ",
"N @ O / ^ M B @ g s @ N g N.u.N w 3.F y 3 D g 4 Y E s F K r.( 3 ; F d.K 4 y D P d k , H A 1 & 6 B m ",
"m m s W N s @ 4 K N 1 : 4 D.M.; s d K t.O ! s : x T j F o.g 4 4 A P.:.4 ; j D H H s s k ; m 6 u Y S ",
"2 : g C V ; ; 1 L K s # 4 / Y V i K H C 4 ' g 4 g %.G T Y 4 6 K Y r ; S 1 p.K , w F x G O @ m ..P q.",
"k 4 F F k * 8 4 N Y V 4 g s 4 N h C.R 9 M M : O * 3.<.h 4 4 9 V j H X K g 1 d.g s &.k 9.s M V m f $.",
"k.F G F s * h N k k F m K 8 4 4 H Z.C 8 g N L L F H k H L 1 1 +.:.P , o B g { N + k F 7.9 M 6 3 x J ",
"q.x f J , 7 f N G s M s g 9 V g , G h C 2 8 N C h T L l L C 9 m m.k A X 3 M Y g , k H A 4 +.m Z 1.b ",
"v f f 1.p s i s T h k g 4 4 Z g k @.p.D.C h 9 7 s d k ,.p.9 # ! m.j.r @ ; 3 M F r - s % % N O 6 A.1.",
"v v b ,.l i - d T k g C B N g s G F L Z 9 m N l l 1.w.C L / V ^ L.t.j O 4 +.; D r k 3.g 4 3 O g T l ",
"b v b f z * i G T N * g Y ] 8 N h h #.N @.@.N 7 3.k.a.8 h ^ Z N.o.Y o.K g 4 d., A x x r Y N 9 8 @.,.",
"b q.h.&.d q.% x v P = ; D s @ , 8 s G k.h s.@.7 G k.G , 8 O #.2 7 T B.F L : h # * J F w v $.x z $.e ",
"- w.H k % v w s k A r j N > % ; O C : @.Z.@.3.d G k.s l @ h #.B.G l 1.G s ; ..g O h =.H v f 0 c &.t ",
"r 3.w x = % w x k H A s s F N o s : L T R l 0.G @.Z.L @.C C Y g F f G l k N d.r ; , V x z d d $.=.S ",
"k H , x k @ k %.a.r > F N D I , N k Y j ,.h * L k A.0.#.} 2 #.s f <.l : J 8.] ; ; * r E =.$.$.w =.S ",
"f d k = F , F E s.s , k - g 9.P d F * G C.F = = #.T s J n.p.9 O F w.x % x F S e t > % -.=.t c w S g ",
"E s F > &.w s H I S , @ + F C.A H h 4 a.F 3.s s J f D.} } s   : T b c S s > B S :.< . M S w S x r ; ",
"z.k x x q.w = H 8.i o * j A -.*.h E H h f 9.+ 9.t.k l., L g ; F L z k =.H t M =.S + + t S S t e r & ",
"E P x x H k r A x s % , A P 8.j.i h s v , N s s F D.V F N p.V d x $.q x d.S j =.e 3 S e > S e x m 4 ",
"S K I G , -.q.H % d x H s f j f.x F q.q.% g s P r V.I 4 r d.Y s =.=.z e % > 9.S j D V.D t 3 K t 1 3 ",
"F F *.j j g.I @ d k x s f A S k q.P *.g., x j G K K N r 4 > A C.z.c S + + t M e t &.S e > e e 3 y u ",
"s j %.r j *.j.A w d I s s w H x f s I z.> > , D N P { > % + j I u t =.+ = t D j < K D :.I 4 X m D D ",
"F A o.s > w F I x = h k x d H d %.s d 8.A A s 4 % D -., ; j P r t =.=.t & & j ; y *.P n.D ; O n.) Q ",
"k g j D k I F I E d x H x x x w z.x d *.F S D g N D F { k j j N B ) e > & g r + N Y L 9 % s N V j y ",
"r g r s , k = % P E 8.H h x F d t d J a.k s K D { K Y V.S % @ F P y < + # N.6 j N g ] C h V Y : D u ",
"r N P K F K A I h.H x , P H J , w a S &.F Y -.t < B Y P j r t -.' B V ; 1 n.g o.o.N #.a.C 8 F Z m e ",
"s r &.I %.w > j c.A A = J w x w k H S d & r -.t & K :.3 r t &.V.u B u 4 V ' K #./ L R } k s h h D u ",
"%.w A =.$.S > e $.-.B 4 r x &.r A > z k & 5 D D t & e 3 H H t M & u y 4 9 g Z.#.V g H c A & j k t { ",
"$.t S &.z e 3 D K.q.y j k d H A j s z t 3 e y H k 3 m e A x > ; 5 B B 5 2 9 Z.1.4 4 H H &., g t > D "
};
