/* XPM */
static char *_5a59ae46ed1415bad2bd97233fd1647npNgVap79c4bYh0K[] = {
/* columns rows colors chars-per-pixel */
"50 50 99 2 ",
"   c #010101",
".  c #0A0400",
"X  c #0A0A0A",
"o  c #160D02",
"O  c #1F1406",
"+  c #151414",
"@  c #1C1B1B",
"#  c #261B0C",
"$  c #2A1C0D",
"%  c #321E05",
"&  c #3E270A",
"*  c #222221",
"=  c #282727",
"-  c #282827",
";  c #2B2A2A",
":  c #353534",
">  c #3B3A39",
",  c #4C310F",
"<  c #55350C",
"1  c #422F18",
"2  c #423729",
"3  c #4A3B29",
"4  c #5A452D",
"5  c #454443",
"6  c #484747",
"7  c #4C4C4A",
"8  c #504D49",
"9  c #545454",
"0  c #585857",
"q  c #5B5B5A",
"w  c #605F5E",
"e  c #61605F",
"r  c #646363",
"t  c #6C6B6B",
"y  c #706F6E",
"u  c #737271",
"i  c #7B7B7B",
"p  c #895718",
"a  c #AD742D",
"s  c #D98A29",
"d  c #C68534",
"f  c #E68D20",
"g  c #F8A13A",
"h  c #B78241",
"j  c #B0824A",
"k  c #B38650",
"l  c #80807F",
"z  c #A18869",
"x  c #E1A65F",
"c  c #F6BB77",
"v  c #F4BD7A",
"b  c #858483",
"n  c #898887",
"m  c #8C8C8B",
"M  c #91908F",
"N  c #949393",
"B  c #989796",
"V  c #9B9B9A",
"C  c #A49E95",
"Z  c #B3AA9E",
"A  c #A6A6A5",
"S  c #ADADAC",
"D  c #B5B4B3",
"F  c #B8B4B0",
"G  c #B9B8B7",
"H  c #BCBCBB",
"J  c #C9AB88",
"K  c #F4CC9E",
"L  c #F3D1AB",
"P  c #F1D7B8",
"I  c #F6DABA",
"U  c #F8DBB9",
"Y  c #CCCCCB",
"T  c #D7CDC2",
"R  c #D4D4D4",
"E  c #DCDBDB",
"W  c #EEDDC9",
"Q  c #F8DFC1",
"!  c #F6E3CD",
"~  c #E6E1DA",
"^  c #F4E5D4",
"/  c #FBEAD6",
"(  c #F2E7DB",
")  c #F4E9DC",
"_  c #E3E3E3",
"`  c #E8E7E7",
"'  c #EFEFEF",
"]  c #F7EDE2",
"[  c #F0EFEF",
"{  c #F7F1EB",
"}  c #FAF3EB",
"|  c #EFEFF0",
" . c #EFF0F0",
".. c #F4F4F4",
"X. c #FBF7F1",
"o. c #FAF9F6",
"O. c #F7F7F8",
"+. c #F7F8F8",
"@. c #FBFBFB",
/* pixels */
"@.@...' +.@...| +.@.O.' ..@.O.' ..@.@... .@.@...' @.@...' @.@...' +.@...' ..@.+.{ ..@.@.' ..@.@...' ",
"+.+.O.O...O...+.O...O.o...+.o.+.........O...+.+.+.....O.O...O.+.+...+.o.O.+.O...+.O...+.O.O...+.....",
"....+.@.....+.@.......@.+.....@.+.....@.+.....@.@...[ +.@.....o.@.O.{ O.@.......@.+.....@.+.....@.@.",
"@.@...{ +.@.....@.@.....+.@.+.[ ..@.+.....@.@.{ ..@.@.....+.@... .+.@.O.....@.O.....@.+.| ..@.@...' ",
"....O.O.......+.o...+.+.......+.o.....+.O.....O.....O.+.......O.+.+.....+.....O.O.......o.O.....+.+.",
"....+.@.....+.@.....O.@.....+.@.......@.+.....+.@.....+.@.....+.@.....O.@.....O.@.+...O.@.+.....@.@.",
"@.@...[ @.@...[ +.@.....+.@.O.| ..@.@.....@.@.....@.@... .@.@.......@...{ O.@.+.....@.+.{ ..@.@...' ",
"....+.@.....o.+.......+.+...O.+.O.....+.O.....o.O.....+.+.....o.+.+...O.+.O...+.+.O.....+.+.....+.+.",
"....+.@.....O.@.....O.@.......@.O.....@.o.....O.+.....O.@...{ +.@.....+.@.O.....@.O.....@.O.....@.@.",
"@.@.....@.@...[ o.@...' o.@...{ ..@.@.[ ..@.@.....@.@...[ @.@...[ o.@...' O.@.o.[ ..@.o.[ ..@.+.{ | ",
"......+.....+.+.....O.+.O...O.+.O.....+.O.....+.O.....O.+.....+.@.....O.+.......+.O.....+.O.....+.@.",
"....+.@.....+.@.....o.@.....O.@.+.{ ..@.O.....+.+.....O.@.....+.+.....O.@.o.....@.o...O.@.+.....@.@.",
"@.@...[ +.@...[ +.@...{ O.@.+.[ ..@.+.....@.@.....@.@.....@.@...[ +.@.O.[ O.@.+.[ ..@.@.[ ..@.@.| | ",
"....@.@.....+.@.....O.@.O...+.@.O.....+.+.....+.+.....+.+.....+.@.....+.+.+...O.@.o.....@.@.....+.@.",
"....+.+.....+.@.O...+.+.....+.+.O.....+.o.....+.+.....+.@.....O.+.....o.@.O.....+.+.....+.+.....+.+.",
"@.@...[ @.@...[ +.@.O.[ +.@... ...@.+.....@.@.[ ..@.+.....@.@.....+.@...' O.@.O...O.@.+.[ ..@.+...' ",
"....+.+.....+.@.......@.....O.@.@...O.@.+.....+.@.....@.X.^ I ] @.O.....@.O.....@.+.....@.+.....@.+.",
"....+.O.....+.+.....+.o.O.....+.G t l R @.....o.+...+.W x v U ^ +.O...O.+.......+.+.....+.+.....+.o.",
"@.@.....+.@...{ +.@.......@.+.Y @     i ..@.@.....@.F 3 & j ( ) { +.@... .O.@.+.' ..@.+. ...@.@...' ",
"....+.@.....+.@.....o.@.......Y ; +   N @.[ ..@.+...i .   1 Z } @.....O.@.+.....@.o.....@.+.....+.@.",
"..O.O.o.....+.....+.+.+...O...A > 5 t R +.....+.+.+.` r + i q r J K L ! o.O.....+.O.O.O.o.O.....+.O.",
"@.@...[ +.@.....+.@.O.{ ....r X     : V ..@.+.....@.@.Y r q     & f g L [ O.@.O.[ ..@.+.{ ..@.@...[ ",
"{ ..+.@.....+.@... .O.@.+.H X         * R ....@.@.....S ; X     O j P } } U ^ ..@.+.....@.+.....@.@.",
"....O.O...O.+.+.O...O.O.+.M             t [ O...O...+.R @       , s c ] ..{ ..O.+.O.....O.O.....o.O.",
"@.@.....+.@.....O.@.....O.t               r R ....@.` n X     $ p d Q .. .+.@.O.| ..@.o.[ ..@.@...' ",
" ...+.@...' +.+.....+.@...t             7 ; @ t n u : X     . $ o 7 ' ..@.O.....@.o.....@.+.....@.@.",
"O.+.O...O.O.O.O.+.+.o...+.m             l _ N r q 6 b m @         : ` o.+.....+...+.O.O.O...+.+.....",
"@.@.....+.@...{ +.@.....+.u             9 @.@.......@.o.b         + R o.....@.+.....@.O.....@.+.....",
"' [ +.@.......@...[ O.@...V :         . 8 _ ..@.+.....@.Y ;   . # 5 Y +.@.+.| ..@.+.....@.@.....@.@.",
"+.o.O...O.+.+...+.+.....+.@.S .       6 E +.+.....+.o...+.u   & a T +.O.....+.O...O.........o.......",
"@.@.....+.@.....+.@.....+.@.H X       t +.@.+.....+.@.....S X < h ( @.o.....@.+.{ ..@.+.....@.+.....",
"' ..@.@.....+.@...[ +.@.+...D X       N @.[ ..@.@.....@.@.Y +   7 ` ..+.@.+.| O.@.O.....@.+.....@.@.",
"+.O.....o.+.....O.+.....+.+.i         N +.O.+...O.o.O.......9   X C o.......+.O.....+.+.....+.+.....",
"@.@.....+.o.....o.@.....O.[ >   * +   N o.@.+.....+.@.....@.B     2 ~ +...o.@.o.....+.o.....@.@.....",
"[ ..+.@...[ @.@...[ O.@.+.Y @   w @   m @.....@.@...[ @.@.+.V     X z / @.+.' ..@.+.....@.@.[ ..@.@.",
"+.+.....O.@.....O.+.O...+.S   . M *   u +.+.......+.+.....@.S       4 W ..O.+.O.....+.+.....+.O.....",
"@.@.....o.+.....+.+.....@.i   X b +   @ Y +.+.....@.+....._ u .     + Y ....+.O.....@.O.....@.+.....",
"[ [ @.@...[ @.@.....+.@.+.S i b M 0 9 9 n Y ..@.+...[ @.@.E S b > 9 B _ @.O.....@.o.[ ..@.@.[ ..@.@.",
"@.@.....+.@.O...+.@.O...+.@.+...O.+...[ ' +.+.....@.@.....+.@..._ ..@.o...O.@.+.....@.O.....@.+.....",
"@.+.....O.+.....+.+.....O.+.O.....@.+.....+.+.....O.o.....O.@.....O.@.+.....+.+.....+.O.....@.+.....",
"' ..@.@... .@.@...[ o.@.o. ...@.+.....@.+...{ @.@.|  .@.@... .@.@...[ O.@.+.' X.@.@.....@.+.[ ..@.@.",
"+.@.....+.@.....O.@.......@.+.....@.O.....+.O.....@.@.....+.@.....o.@.O.....+.O.....+.o.....@.......",
"+.+.....+.+.....O.+.O.....O.o.....+.+.....O.O.....+.+.....O.+.......+.......+.O...O.+.O...O.+.+.....",
"[ ..@.@...[ +.@...[ O.@.....O.@.o.[ ..@.@.....@.@...{ @.@...| @.@.....+.@.+.[ O.@.@.[ ..@.+.[ ..@.@.",
"@.@...{ +.@.....+.@.....+.@.+.....@.+.....@.+.....@.@.....+.@.....+.@.O.....@.+.{ O.@.+.....+.@.....",
"O.O.....O.+.O...+.+...O...+.......O.+.O...O.O.....O.O.....+.O.....+.o.O.....+.+...O.+.....O.O.O.+...",
"|  .@.@... .@.@.....+.@.O.{ O.@.O.| ..@.@.{ ..+.+...| +.@...{ @.@...' O.@...| ..@.+.....@.+.[ ..@.@.",
"@.@.....@.@...{ +.@... ...@.O...O.@.@. ...@.+.....@.@... .@.@.....+.@.....O.@.....O.@.+.....@.o.....",
"+.+.+.O.+...O...o.O...+.+.+.O...o...+.O...O.O.O...+.+...+.+.O.....+.+.o...+.+.O.o.O.O.....o.O...+...",
"' [ @.@...' @.@...[ +.@...' O.@.+.' ..@.@.{ ..@.@.|  .@.@...' @.@...[ +.@.+.' ..@.+.' ..@.@.' ..@.@."
};
