/* XPM */
static char *dbbbba31928841cca7fdf3e6e96624bdrLMENdHNLt3tgFv9[] = {
/* columns rows colors chars-per-pixel */
"50 50 221 2 ",
"   c None",
".  c #030102",
"X  c #0A0506",
"o  c #0A0609",
"O  c #0D090B",
"+  c #110606",
"@  c #120B0D",
"#  c #1A0C0C",
"$  c #18110E",
"%  c #150E13",
"&  c #190F11",
"*  c #140E18",
"=  c #1C1316",
"-  c #1B141B",
";  c #171017",
":  c #27120E",
">  c #241313",
",  c #2D1A14",
"<  c #25161A",
"1  c #25191E",
"2  c #2C1A1E",
"3  c #281314",
"4  c #331B16",
"5  c #3B1916",
"6  c #331A1A",
"7  c #381A19",
"8  c #260F0F",
"9  c #3C2519",
"0  c #1D1626",
"q  c #241B23",
"w  c #251C29",
"e  c #271A26",
"r  c #331F24",
"t  c #2A1E31",
"y  c #2E222E",
"u  c #292127",
"i  c #3A2124",
"p  c #34252E",
"a  c #372427",
"s  c #2E213A",
"d  c #34243C",
"f  c #3C2D3B",
"g  c #382733",
"h  c #3E3130",
"j  c #421F1E",
"k  c #551F1A",
"l  c #44231C",
"z  c #4A211F",
"x  c #5A241C",
"c  c #462222",
"v  c #492728",
"b  c #562825",
"n  c #543C2A",
"m  c #593126",
"M  c #462D33",
"N  c #463239",
"B  c #4C312A",
"V  c #6C2925",
"C  c #632726",
"Z  c #752B25",
"A  c #782D28",
"S  c #67372A",
"D  c #7B382C",
"F  c #683636",
"G  c #763B37",
"H  c #544331",
"J  c #61432D",
"K  c #764234",
"L  c #7C5134",
"P  c #3A2B4A",
"I  c #422B46",
"U  c #483747",
"Y  c #47355D",
"T  c #4A3754",
"R  c #51396A",
"E  c #58495D",
"W  c #504149",
"Q  c #654A5E",
"!  c #784D52",
"~  c #7D5F43",
"^  c #584379",
"/  c #684E65",
"(  c #6B5269",
")  c #74586C",
"_  c #735C75",
"`  c #6F5878",
"'  c #736177",
"]  c #8A2C26",
"[  c #832E28",
"{  c #812B25",
"}  c #942E28",
"|  c #87352B",
" . c #94322B",
".. c #9D332A",
"X. c #9B392F",
"o. c #863B36",
"O. c #993C30",
"+. c #A3362D",
"@. c #A4392E",
"#. c #AA392F",
"$. c #AC3B30",
"%. c #A13831",
"&. c #B03D31",
"*. c #894736",
"=. c #9A433B",
"-. c #9A4838",
";. c #865139",
":. c #955B3A",
">. c #A3463B",
",. c #AB4A3D",
"<. c #A74738",
"1. c #B44A36",
"2. c #AA583B",
"3. c #B7573C",
"4. c #B1643F",
"5. c #C3543D",
"6. c #C35B3D",
"7. c #C04E3C",
"8. c #8B4945",
"9. c #944945",
"0. c #965746",
"q. c #8A5459",
"w. c #935C4A",
"e. c #A34B41",
"r. c #AA5A4C",
"t. c #BB5443",
"y. c #BA5F41",
"u. c #B04F41",
"i. c #996C4E",
"p. c #A86648",
"a. c #BC6846",
"s. c #B87A52",
"d. c #AC6E56",
"f. c #9A656E",
"g. c #AC7368",
"h. c #BF7A64",
"j. c #CA5941",
"k. c #D96643",
"l. c #DB774C",
"z. c #C67853",
"x. c #CA744E",
"c. c #E4784B",
"v. c #D57E70",
"b. c #B7825E",
"n. c #B6847E",
"m. c #C58A5A",
"M. c #D68559",
"N. c #D2915E",
"B. c #E78956",
"V. c #EC935D",
"C. c #E2955F",
"Z. c #F1955A",
"A. c #E9814F",
"S. c #D59163",
"D. c #D59777",
"F. c #CA8D6B",
"G. c #E69965",
"H. c #F09C61",
"J. c #DAAA78",
"K. c #EFAA6D",
"L. c #E7A26A",
"P. c #F2AA6B",
"I. c #F2A466",
"U. c #EBAE74",
"Y. c #E1A977",
"T. c #EDB174",
"R. c #EAB27B",
"E. c #E7B67A",
"W. c #F4B475",
"Q. c #F3BB7D",
"!. c #F5C07F",
"~. c #614D8A",
"^. c #675394",
"/. c #8F788C",
"(. c #A57C88",
"). c #9D909D",
"_. c #A38695",
"`. c #B1878C",
"'. c #AE9AAB",
"]. c #B0A4B1",
"[. c #D69981",
"{. c #C59D9B",
"}. c #C39289",
"|. c #DCA488",
" X c #D6A898",
".X c #DCB198",
"XX c #E4A588",
"oX c #F0BC86",
"OX c #ECBB93",
"+X c #ECBC9C",
"@X c #E5B39A",
"#X c #EAB38D",
"$X c #C9ACAA",
"%X c #D5ACA1",
"&X c #D7B7B6",
"*X c #CFBDB6",
"=X c #E9BEA7",
"-X c #F5C484",
";X c #F7CA88",
":X c #F2C295",
">X c #F9D393",
",X c #FAD99B",
"<X c #F3C791",
"1X c #ECC5A9",
"2X c #F9DCA9",
"3X c #E9C7B5",
"4X c #C6B8C6",
"5X c #CEC1CE",
"6X c #C7C4C6",
"7X c #D6C7CD",
"8X c #D3CCD6",
"9X c #D5CCD7",
"0X c #DAD5DA",
"qX c #EAD3CB",
"wX c #E6D9D9",
"eX c #F0DFDA",
"rX c #E1CFCA",
"tX c #E2DDE3",
"yX c #ECE9EC",
"uX c #FBFBFB",
"iX c #F6EBE5",
/* pixels */
"                                                                '.'.                                ",
"                                                              ' /._.                                ",
"                                                              1 p N N                               ",
"                                                    (         < r 1 o                               ",
"                                                  a U         = p q                                 ",
"                                                r i =         = 1 @                                 ",
"                                                i v @ .     - r @ .                                 ",
"                                                  M 6 .     1 @ o %                                 ",
"                                                  M B % .   N X O p                                 ",
"                                                  6 b M - i > . o f                                 ",
"                                                  X 3 i - 7 4 o <                                   ",
"                                                    . . o z D M                                     ",
"                                T q p U W '           . X j o.!                                     ",
"                            . - f y y N q - p f       X @ 6 9.8.                                    ",
"                          . . . X . o . . X & =         D c ,.e.o.                                  ",
"                          @ j b S > > = O & & @ @     k.5.<.=.t.,.9.                                ",
"                        X > ;.L r.9 7 b O @ = @ @     k.j.u.o.u.t.e.9.                              ",
"                          7 b.b.S.:.;.,.l . @ O @ X 1.j.7.O.F O.t.t.e.                              ",
"                          *.x.R.G.z.a.Z.:.. X o @ % S 3.&.o.    >.t.e.8.                            ",
"                          4 i.Y.W.Y.J.W.4.. X @ X $ 2 Z  .b     A ,.u.=.q.                          ",
"                          , N.T.Q.>X>XP.6.# O = O @ - O # O       [ ,.e.9._.                        ",
"                3X        # s.L.U.>XQ.I.x.4 = 1 & . X o . .       c | e.9.f.].                      ",
"              T.:X X      O n M.G.oXW.W.x., > = O . . w y O       1 c o.u.e.(.].                    ",
"              !.|.d.0.  . X = 2.B.K.W.S.S @ o o . . . X t P       I e 7 C b 9 R                     ",
"              U.p.;.b.<XJ o @ J T.K.z.K m , . . . . . . . w ^ ^.~.Y s w 0 0 0 0 t f                 ",
"                OX:X>X,XJ., O o m S | 4.x., . . . . . . . . * Y R Y ^ ~.~.~.R d T ` (               ",
"                oX2X2X>XT.9 . . : | 3.A.-.4 : X . . . . . . . - P Y P R R ~.Y ` ) / (               ",
"                    ,X2XL.9 . . $ 3.3.-.#...V + . . . . . . . @ 0 d 0 d y P d Q ) N U               ",
"                      ;XN.> . . X p.l.<.@.6.3.l X % @ . . . o = * - ; ; O % q Q / M                 ",
"                      >Xs.# . . . L Z.c.6.A.Z.;.o O X X a ;.c % * o X . . X y / ) (                 ",
"                      ,Xp.> : . . n V.A.A.B.V.w.. . # i.E.B.C o O X . . . o *                       ",
"                      >Xs.7 *.X . $ b.Z.l.A.I.~ . . n Q.oXB.F . O X O - U E                         ",
"                    W.>Xs.m 3.o . . n C.k.l.P.H . . n -X;XV.G . - w 0 y q.                          ",
"                    W.;Xm.S 2.X . . . S 1.6.s.$ . . n -X-XV.8.O y q O >                             ",
"                    U.;XN.D K . . . . . : 5 , + + + n -X;XV.9.q ; u                                 ",
"                    P.-XG.D x + # 8 5 k Z { ] ] [ A -.Q.;XH.*.0 %                                   ",
"                  k.P.!.L.*.x ] +.+.#.&.&.$.$.#.+...<.W.;XG.9.P                                     ",
"                X.l.I.W.I.2.Z &.$.#.#.+.+.......+.X.r.R.-XZ.d.U                                     ",
"                @.k.B.C.l.1...#.+.$.#.#.+...} ] ] h.qXiX&XD.n.                                      ",
"                  O.O.O.O.+.#.#.$.$.+.+.+.+.} ] ] S.:XeXtX).4X                                      ",
"                    {  . .[ A A { Z V Z A [  . .-.L.OXqXeX$X$X                                      ",
"                              x v c 6       C | a.T.+XoX+X+X3X3XeXuXuX                              ",
"                          v G F b l             G.M.XXOXoX=X=X1X3XrX'.6X                            ",
"                          & c B < i         tX.Xz.p.XX%XXX+X X@X1X.X*X0XyX                          ",
"                                X & W wXyX5X7X3XD.F.D.@X[. X[.[.D.wX8X8X5XqX                        ",
"                                        9X4X9X7X7X%X}.g.,.r.g.{.qXeXwX&X=X                          ",
"                                        4X5XtX4X7X`.&X! r.d.o.  v.XX                                ",
"                                          5X9XyXwX{.&X}.D.                                          ",
"                                            &X3X3X=X@X                                              ",
"                                                                                                    "
};
