/* XPM */
static char *_cfbefdddbab4f1efa714dfb0b91e997EDiDjNoPPeAR44dj[] = {
/* columns rows colors chars-per-pixel */
"50 50 240 2 ",
"   c None",
".  c #D01F21",
"X  c #CF2426",
"o  c #CC2627",
"O  c #CF282A",
"+  c #CD2B2C",
"@  c #C92C2D",
"#  c #CF2D2E",
"$  c #D12022",
"%  c #D22022",
"&  c #D12224",
"*  c #D22224",
"=  c #D22325",
"-  c #D02426",
";  c #D22426",
":  c #D22527",
">  c #D02628",
",  c #D12729",
"<  c #D22628",
"1  c #D0282A",
"2  c #D12A2C",
"3  c #D02F31",
"4  c #CE3032",
"5  c #CC3334",
"6  c #CD3739",
"7  c #CB3839",
"8  c #CB3C3E",
"9  c #D13133",
"0  c #D13436",
"q  c #D13738",
"w  c #D0393B",
"e  c #D13E40",
"r  c #BB4E4A",
"t  c #AF6B63",
"y  c #BA6A63",
"u  c #BC7169",
"i  c #AB7E74",
"p  c #BA7870",
"a  c #C74644",
"s  c #CE4446",
"d  c #CA4F4E",
"f  c #D24344",
"g  c #D24749",
"h  c #D3494B",
"j  c #D34D4F",
"k  c #D15449",
"l  c #D1554A",
"z  c #C35753",
"x  c #C75652",
"c  c #CC5153",
"v  c #C85B59",
"b  c #CE585A",
"n  c #D45356",
"m  c #D45758",
"M  c #D55C5E",
"N  c #C4615C",
"B  c #C8615D",
"V  c #CF655E",
"C  c #CE5E60",
"Z  c #C66661",
"A  c #C96666",
"S  c #CF6C6E",
"D  c #D66163",
"F  c #D26768",
"G  c #D76668",
"H  c #D76B6D",
"J  c #C5706B",
"K  c #C8716C",
"L  c #CC786C",
"P  c #D47360",
"I  c #D47864",
"U  c #D86E70",
"Y  c #C37574",
"T  c #CE7071",
"R  c #C67A72",
"E  c #CE7778",
"W  c #CE7C7E",
"Q  c #D07374",
"!  c #D87375",
"~  c #DA7779",
"^  c #D67879",
"/  c #D27B7C",
"(  c #DB7D7F",
")  c #B5887D",
"_  c #D8876F",
"`  c #C58B7E",
"'  c #D08B73",
"]  c #CF947A",
"[  c #BD8780",
"{  c #B29084",
"}  c #B29487",
"|  c #B8978B",
" . c #B39C89",
".. c #B29A8D",
"X. c #BA9F89",
"o. c #B89D8F",
"O. c #B59E90",
"+. c #BBA38D",
"@. c #B8A092",
"#. c #B8A394",
"$. c #BBA395",
"%. c #BDA495",
"&. c #BFA697",
"*. c #BFAFA6",
"=. c #C58282",
"-. c #D28384",
";. c #D78384",
":. c #D28485",
">. c #DC8485",
",. c #DB8788",
"<. c #D68A8C",
"1. c #D58E8D",
"2. c #DC888A",
"3. c #DD8B8D",
"4. c #DD8E8F",
"5. c #C6908B",
"6. c #C7958A",
"7. c #CC9794",
"8. c #CC9697",
"9. c #CB9D90",
"0. c #DA9293",
"q. c #DE9294",
"w. c #DF9496",
"e. c #DF9799",
"r. c #D79899",
"t. c #D39D9E",
"y. c #D79D9E",
"u. c #E09A9C",
"i. c #E19E9F",
"p. c #DFAA89",
"a. c #C6AC95",
"s. c #C8AE92",
"d. c #C3AA9B",
"f. c #C0AF98",
"g. c #C5AC9D",
"h. c #C8AE9F",
"j. c #DAAD91",
"k. c #CFB490",
"l. c #D6B493",
"z. c #D5BB97",
"x. c #DCBF98",
"c. c #E2B08E",
"v. c #E4B793",
"b. c #E2BA96",
"n. c #E7BF99",
"m. c #D1A4A3",
"M. c #D9A1A2",
"N. c #D9A3A4",
"B. c #DAA9AA",
"V. c #C8B1A1",
"C. c #CDB0A0",
"Z. c #CDB3A3",
"A. c #C8B7A1",
"S. c #CEB4A4",
"D. c #CDBCA4",
"F. c #CAB7AC",
"G. c #D0B5A5",
"H. c #D1B6A6",
"J. c #D1B7A7",
"K. c #D7BFA1",
"L. c #D8B3AA",
"P. c #D7B2B2",
"I. c #DCB2B3",
"U. c #DAB3B4",
"Y. c #DEB6B6",
"T. c #D0BEB4",
"R. c #D7BBBC",
"E. c #DFBDBE",
"W. c #E3A3A4",
"Q. c #E1A5A6",
"!. c #E4A9AA",
"~. c #E4AEB0",
"^. c #E6B2B4",
"/. c #E3BABB",
"(. c #E7B8B9",
"). c #E3C59C",
"_. c #D6C3A9",
"`. c #DCC7AA",
"'. c #DFCBB1",
"]. c #DFCEB7",
"[. c #DCCFBD",
"{. c #DFD0BB",
"}. c #DFD1BD",
"|. c #E0C7A4",
" X c #E5C9A3",
".X c #E7CBA2",
"XX c #E4CAA5",
"oX c #E8C9A0",
"OX c #EACBA2",
"+X c #EBCCA2",
"@X c #ECCDA2",
"#X c #E8CCA6",
"$X c #EDCEA4",
"%X c #EECFA4",
"&X c #E3CAA8",
"*X c #E1CAAB",
"=X c #EED0A5",
"-X c #E7D0AF",
";X c #D3CBC0",
":X c #D7CEC5",
">X c #DDCEC1",
",X c #DDCACB",
"<X c #DAD5CF",
"1X c #E1C1C1",
"2X c #E9C0C1",
"3X c #EBC6C7",
"4X c #E2C8C9",
"5X c #E6CCCD",
"6X c #ECCBCD",
"7X c #E8CECF",
"8X c #E0D3C3",
"9X c #E0D6C6",
"0X c #E2D7C9",
"qX c #E2DACE",
"wX c #E6D2D2",
"eX c #E6D7D5",
"rX c #EAD1D2",
"tX c #EAD7D7",
"yX c #EFD4D6",
"uX c #EDD6D6",
"iX c #E7DEDF",
"pX c #E9DCDC",
"aX c #F1DCDD",
"sX c #E0E2E3",
"dX c #E5E2E0",
"fX c #EAE0E0",
"gX c #EFE3E2",
"hX c #E9E7E4",
"jX c #EBEBED",
"kX c #F5E8EA",
"lX c #F5EDEE",
"zX c #F7EFF0",
"xX c #F4F2F3",
"cX c #F9F5F6",
"vX c #F9F7F8",
"bX c #FBFCFD",
"nX c #FBFDFD",
"mX c #FDFFFF",
"MX c #FEFFFF",
"NX c white",
/* pixels */
"                                                                                                    ",
"                                                                                                    ",
"                                                                                                    ",
"                                          1X/ v 8./ / N.wX                                          ",
"                                      fX:.5 = % 0 , % X 7 1.                                        ",
"                                    1Xc X O 1 0 0 X % ; = X S pX                                    ",
"                                  r.6 X O , 0 2XaXQ.m > = ; % T                                     ",
"                                W O ; O O , 0 aXMXMXzXi.q = 2 ~.sX                                  ",
"                              B.w ; > O 1 ; 1 ^.MXMXMXMX( . 0 uXMX,XeX                              ",
"                          4Xd , > = ; ; ; ; % n aXMXnX3Xh = , ( !.g b pX                            ",
"                          S . ! Q.M % ; ; % % ; f ~ H 0 = ; ; ; X = = C eX                          ",
"                          3.. ,.MX!.; ; 9 2.u.w % % % = ; , ; % ; ; . % c wX                        ",
"                          4.. # ! n ; % ! nXMXu.= , ; , ; ; + G W.!.~ 9 % b fX                      ",
"                    P./.^.g = % . . ; % ! MXMXi.X = = ; ; % U vXMXMXMX0.% = /                       ",
"                  5X7 1 1 = , G 4.e % ; 9 0.i.8 . 2 0 , ; % ! vXMXMXMXw.X ; 5 4X                    ",
"                  -.X ; ; % M lXnX/.7 X % % % % c Y.rX4.4 % , G W.!.~ 9 ; ; = 1.                    ",
"                  /.u.3 = @ 7.:XT.F.6.p u Z B y | _.T.*.p N v d a 7 + ; % ; % S                     ",
"                    yX7 d ` ..h.S.G.G.g.$.J.G.$.h.F.@.%.S.S.h.g.@.| ) t r # % S                     ",
"                  t.j x Z.G.h.O.d.G.G.S.O.d.V.o.Z.%.%.Z.&.@.@.$.d.d.h.V.S.R o r.                    ",
"                  E.7 v G.G.G.Z.@.@.d.V.g...&.+.d.| g.@.&.S.S.J.G.G.S.S.9.N A                       ",
"                    1XA z J 9.Z.G.h.&.@... .x.OX).x. .d.g.g.h.S.G.h.6.N a :.                        ",
"                        I.E B Z R ` ) { } X.).$X$X$Xs...o.o.) ) u N v :.                            ",
"                              wX/.t.=.Y J ` OX$X$X=Xl.[ 5.5.7.m.U.                                  ",
"                                          >XOX$X%X%X X                                              ",
"                                          0XOX$X%X%X X                                              ",
"                                          0XOX$X+X%X+X8X                                            ",
"                                          9XOX$X$X$X+X].                                            ",
"                          5Xe.^ I.jXjXxX  8X+X$X$X$X$X*X                                            ",
"                        ;.q = 3 6XMXvXxXjX}.+X$X$X$X$XXX                                            ",
"                      F % ; % f kXMXMXMXuXL n.=X$X$X=X X            E.B.B.1X                        ",
"                    iXw.q = = 9 2XMXMXMX2XO k v.=X$X%X X      jXR.c # X X 8 c y.                    ",
"                        ~ % ; = f ~.aX3XD ; ; k n.$X=Xx.    dXhXvXe.X 1 ,.tX^.s Q                   ",
"                        D % ; ; = 1 q # X O ; = I $X$Xz.  pXW kXMX~.X j lXMXMX4.. /                 ",
"                4XrX  4.2 = ; ; ; ; = , O O ; , 1.$X+Xk.  <.X G >.s > h kXMXMX>.X O Y.              ",
"                ! e j , = % X = ; ; , O 1 , = h gX-X Xz.  s % = + O O > H (.w.0 % . T               ",
"                h % = % 3 ( ^.( 1 ; O O ; ; = g uX-X%X&X  4 = , c 4 ; = % O % j 0.n s               ",
"              tX7 = = 9 !.nXMXkXf = % = % ; ; ; V ).$X*X  <., ; = . + v 7 X % 4.MXu.7               ",
"                f = = n xXMXcXq.1 4 >.q.f ; ; X _ =X$X*X  F = + c K ] K.j.' A c b 9 8               ",
"                0.+ % 2 >.W.D , ; e.MXMX6Xf # P OX$X%X[.  Q H U.  9X$X%X$X.X    M./ B.              ",
"                  Q.M e 4 # + # d eXhXqX0Xj.p.+X$X$XOX0X          {.%X%X).l.0X                      ",
"                        7XL.p.c.b. X$Xx.).=X=X%X%X%X X            ].OX%X).k.8X                      ",
"                          qX+X=X$X$XOX X).%X=X=X%X%X`.            ].%X%X$X%X}.                      ",
"                          [.%X$X$XOXx.OXk.).=X=X+Xk.;X            [.).%X=X%X8X                      ",
"                        dX|.$X$X$X%X).OXf.Z.&X&X'.:X                D. X X'.                        ",
"                        <XK.XXXXXXXX|._.                                                            ",
"                                                                                                    ",
"                                                                                                    ",
"                                                                                                    ",
"                                                                                                    ",
"                                                                                                    "
};
