/* XPM */
static char *ea3879b2637d453bee0668173ecedfcdL9WjhTnj3o3z8hHb[] = {
/* columns rows colors chars-per-pixel */
"50 50 47 1 ",
"  c None",
". c #FED900",
"X c #FED901",
"o c #FEDA00",
"O c #FFDA00",
"+ c #FEDA01",
"@ c #FFDA01",
"# c #FEDA02",
"$ c #FFDA02",
"% c #FEDA03",
"& c #FFDA03",
"* c #FEDA04",
"= c #FFDA04",
"- c #FEDA05",
"; c #FFDA05",
": c #FEDA06",
"> c #FFDA06",
", c #FEDA07",
"< c #FFDA07",
"1 c #FEDB07",
"2 c #FFDB07",
"3 c #FEDA08",
"4 c #FFDB08",
"5 c #FEDA09",
"6 c #FEDB09",
"7 c #FFDB09",
"8 c #FEDA0A",
"9 c #FEDB0A",
"0 c #FFDB0A",
"q c #FEDA0B",
"w c #FEDB0B",
"e c #FFDB0B",
"r c #FEDB0C",
"t c #FFDB0C",
"y c #FEDB0D",
"u c #FFDB0D",
"i c #FEDB0E",
"p c #FEDB0F",
"a c #FEDC0F",
"s c #FFDC0F",
"d c #FDDB10",
"f c #FDDB11",
"g c #FEDB10",
"h c #FEDB11",
"j c #FDDB13",
"k c #FEDC11",
"l c #FEDC12",
/* pixels */
"                                                  ",
"                                                  ",
"                                                  ",
"                                                  ",
"                                                  ",
"                                                  ",
"                                                  ",
"                                                  ",
"                                                  ",
"                                                  ",
"                                                  ",
"                                                  ",
"                                                  ",
"                                                  ",
"                                                  ",
"                                                  ",
"                                                  ",
"                                                  ",
"                                                  ",
"                                                  ",
"7+++7 7 iigi   i77   ++++ii  7:  7777gii  :4  7  g",
"7+++:i+t+::+   +++:  :+++i+7i+++i++++7:+ +++i7+i:7",
"i+g:+i+ :74+   ++:+  ++ +i+4:+4+7::+::+:i+7+:7+77:",
"7+ 7+k+ +44:   +7i+  ::   +t:: :i:7+i7::i+ :7i+:7:",
"i+i:+i+ -37X   ::i+  +++  +i::   i7:ki::i+ +:7++::",
"7+++:i+ -33-   ++:+  :+:  +i::    :+  ::7+ ::i+++:",
"i+++7i+ +77+ :i:++:  ::   +i:: :  7+  :+i+ ::i7:+7",
"7+i   + :77+j+g+:    ++   +i::g+  ::  ::i+ +77:7+:",
":+7   +:+7:+++g+:    ++   +i7+:+  :+  +:i+++77:g+:",
"7+i   :+: 7++:g::    ::   +7 +++  7+  :: :++ 7: +7",
"                                                  ",
"                                                  ",
"                                                  ",
"                                                  ",
"                                                  ",
"                                                  ",
"                                                  ",
"                                                  ",
"                                                  ",
"                                                  ",
"                                                  ",
"                                                  ",
"                                                  ",
"                                                  ",
"                                                  ",
"                                                  ",
"                                                  ",
"                                                  ",
"                                                  ",
"                                                  "
};
