/* XPM */
static char *_c1a87af734e41c69c78d7ffceeadbe2rTIcs7H3RkhVOfp4[] = {
/* columns rows colors chars-per-pixel */
"50 50 205 2 ",
"   c None",
".  c #0C0A14",
"X  c #0C0D1B",
"o  c #110F1C",
"O  c #13121D",
"+  c #1B1315",
"@  c #2E1E1E",
"#  c #231619",
"$  c #0F1222",
"%  c #0D132A",
"&  c #141524",
"*  c #191624",
"=  c #171827",
"-  c #161929",
";  c #1B1B2C",
":  c #181A27",
">  c #1B1E33",
",  c #1C1F39",
"<  c #161B31",
"1  c #2B1E21",
"2  c #201F33",
"3  c #1F2136",
"4  c #1D223B",
"5  c #2E2223",
"6  c #29242C",
"7  c #332222",
"8  c #3B2827",
"9  c #342629",
"0  c #322B2D",
"q  c #3E2C2C",
"w  c #392626",
"e  c #222335",
"r  c #21253C",
"t  c #26293F",
"y  c #2C2A37",
"u  c #352D32",
"i  c #332F39",
"p  c #363136",
"a  c #3D3437",
"s  c #39312E",
"d  c #432C2B",
"f  c #4B2C29",
"g  c #44322E",
"h  c #4B362C",
"j  c #4B3634",
"k  c #433A3D",
"l  c #493E3D",
"z  c #4B3C33",
"x  c #553E3B",
"c  c #533F34",
"v  c #5B443B",
"b  c #61483C",
"n  c #1F2745",
"m  c #212742",
"M  c #252A43",
"N  c #282D45",
"B  c #262D4A",
"V  c #282F4A",
"C  c #2A314D",
"Z  c #2B3047",
"A  c #373847",
"S  c #2D3553",
"D  c #2E3857",
"F  c #2D3659",
"G  c #2F3859",
"H  c #263054",
"J  c #303755",
"K  c #323954",
"L  c #323A5B",
"P  c #383F5D",
"I  c #353E61",
"U  c #453D44",
"Y  c #4A3E44",
"T  c #3E4046",
"R  c #3D435E",
"E  c #364063",
"W  c #394263",
"Q  c #394468",
"!  c #4D4344",
"~  c #48444C",
"^  c #524445",
"/  c #514649",
"(  c #544A4C",
")  c #584D4F",
"_  c #5C4D43",
"`  c #4C4B58",
"'  c #5B4E51",
"]  c #564F50",
"[  c #5D5354",
"{  c #5A555C",
"}  c #664941",
"|  c #60504B",
" . c #615456",
".. c #655A5B",
"X. c #695D5F",
"o. c #695955",
"O. c #725C4B",
"+. c #766050",
"@. c #454E71",
"#. c #6C5F61",
"$. c #6E6264",
"%. c #67666B",
"&. c #726466",
"*. c #73676A",
"=. c #7B6B6D",
"-. c #776867",
";. c #7F7065",
":. c #696C77",
">. c #7C6E72",
",. c #7D7173",
"<. c #72757D",
"1. c #77797F",
"2. c #83644F",
"3. c #856957",
"4. c #8E6B59",
"5. c #866A57",
"6. c #9A7658",
"7. c #91755F",
"8. c #A47E5E",
"9. c #A87F5E",
"0. c #806F6F",
"q. c #887469",
"w. c #967765",
"e. c #837375",
"r. c #877678",
"t. c #8B7B7C",
"y. c #88787A",
"u. c #917D7F",
"i. c #A77C66",
"p. c #9D826E",
"a. c #97877A",
"s. c #A78468",
"d. c #B88967",
"f. c #A68A73",
"g. c #A98D75",
"h. c #BC8A70",
"j. c #B78A76",
"k. c #BD9A7C",
"l. c #B89479",
"z. c #C08E66",
"x. c #C9976E",
"c. c #C18D72",
"v. c #C59A78",
"b. c #D79E7C",
"n. c #CDA37D",
"m. c #DDA379",
"M. c #505C81",
"N. c #937F81",
"B. c #888387",
"V. c #958485",
"C. c #998789",
"Z. c #9C8A8C",
"A. c #968588",
"S. c #8C8F94",
"D. c #9F8F90",
"F. c #8F9094",
"G. c #969699",
"H. c #A18D8E",
"J. c #A18E90",
"K. c #A49294",
"L. c #A99799",
"P. c #AD9A9C",
"I. c #A99597",
"U. c #B09E9F",
"Y. c #B29D8A",
"T. c #B7A18D",
"R. c #9B9EA4",
"E. c #AF9DA0",
"W. c #B29FA1",
"Q. c #A5A5A8",
"!. c #B5A2A4",
"~. c #BCAAAB",
"^. c #B8A5A7",
"/. c #A9ADB3",
"(. c #B7B8BB",
"). c #CF9D81",
"_. c #DC9D81",
"`. c #D3AC8B",
"'. c #D7A883",
"]. c #CFAF91",
"[. c #E2A584",
"{. c #E8B58A",
"}. c #E9B894",
"|. c #F4BE9F",
" X c #F6B88D",
".X c #C3AFAF",
"XX c #C9B4B5",
"oX c #ECC29B",
"OX c #F4C79C",
"+X c #D8C1A5",
"@X c #EEC4A2",
"#X c #FCCCA5",
"$X c #F5C4A7",
"%X c #FFD8AD",
"&X c #F4D1AB",
"*X c #F2D7B8",
"=X c #B6BCC4",
"-X c #C5C3C2",
";X c #CCCAC9",
":X c #C9C8C5",
">X c #CACED1",
",X c #D6D5D4",
"<X c #C9D4E0",
"1X c #DFE2E7",
"2X c #EAEFF2",
/* pixels */
"                                                                                                    ",
"                                        9 l l ! ^                                                   ",
"                                      d x  .c @ 7 5                                                 ",
"                                    8 w j v v v l s o.                                              ",
"                                  w @ d w v 9.oX*X{.oX                                              ",
"                                + 1 7 d 7 b s.oXOXOX#X+.                                            ",
"                                # 7 8 7 7 q 2.m.].T.v.j                                             ",
"                                # 8 @ 7 7 w d.d.} v v.w.                                            ",
"                                  8 @ g x 7 x.[.l.w.}.%X..                                          ",
"                                  @ w b s.j 6.|.$X#X`.s.U                                           ",
"                                    7 7 s.l.3.|.}.$X}.a.g                                           ",
"                                  d @ d w.7.{.@X$X&X].w.g                                           ",
"                                # }   g m.3.m. XoX}.v.`.q                                           ",
"                                j f   9 _.'.c.i.c._. X{.5                                           ",
"                                f f @ - 4.b.'.h.i.} ! p , ;                                         ",
"                                @ y t m <.e.6. Xj.<.4 S Z L L K e                                   ",
"                              ; V I J K <.<XQ.q.B.=Xr R S Z D D P &                                 ",
"                            C W I G J @.K 1X(.T { G.N D K t D D C <                                 ",
"                          C W L I C R @.4 F.R.*.Q.S.4 G 3 S D D 4 4 X                               ",
"                          L G L P D A W H %.2X/.1X>Xn G C 4 G Z - r ;                               ",
"                        ; P 4 L L I S N F ` 2X(.,X>XM G Z N E N = 4 4 o                             ",
"                        N W 3 r I I N S Q m (.:X;X,XM G t C D B = 4 M 4                             ",
"                        C C V ; F I S M I H :.-X:X;X4 R e D D B = > N r                             ",
"                        L M r - m I I N S I D F.;X-Xn S e D N 4 = > V S 2                           ",
"                        L P ; O > D I L 4 R G T :X(.n N N S Z C = N C S N ;                         ",
"                        K L S ; = m P I V 4 Q 4 R.+Xn 3 C G E n : ; < e > t ;                       ",
"                        L Z r 4 & > C I I 4 m H M.(.3 3 G D S 4 o = m ; ; N Z >                     ",
"                      O L D 4 $ O ; < C E E 3 r @.1.3 t G D B 4 o & > 3 J J J W 3 v g.w.w.          ",
"                      3 G > p ,.V.$.] ( t D D ; t Z ; C D D M 4 O   . r C S K S -.%X`.              ",
"                      & m *..X!.>.,.N.D.r.` B C ; & 3 D D D 4 4 *     . < r S t d.).z.4._           ",
"                      $ { XXA.X.P.,.p [ ! -.,.4 3 O m G D S 4 m *         O n A x.n.v.g.f.l.3.      ",
"                      O K.^.[ !.B.a ! u ] / Z.%.=X%.4 G D S 4 4 ;           $ 6 2.l.k.f.f.j c       ",
"                      p ~.e.&.N.0 ..2 U ].a.;.R./.; N E S S , r ;             . % O h h h           ",
"                      $.!.[ ,.) / ! X a.+XT.Y.a.3 $ t D D S 4 4 2                                   ",
"                      Z.r...*.#.( $.- w.k.7.+.+.v $ t D D D m , M                                   ",
"                    ! K.] N.[ &.U *.- a 6.s.4.v S.6 3 E S D V > M                                   ",
"                    =.e.[ Z.( $./ X.. a o.O.|  .,.&.< K D D Z , m =                                 ",
"                  9 A.[ y.,.[ $. .u X =.V.&.! e.[ Z.t S K C S 4 m ;                                 ",
"                  [ y.( P.[ *.*...& 2 0.u.t./ V.$.V.{ N K S K r , ,                                 ",
"                  >.X.=.L./ r.$.&.< 6 V.C.r./ H.&.y.r.M D C C N , r                                 ",
"                  r.( L.,.X.a.*.{ % i K.I.r./ K.=.=.H.A C S K V , r                                 ",
"                9 &.[ ~...r.A.,./ % Y L.L.t.) I.e.&.J.$.m K S V , t                                 ",
"                u ) t.~.[ Z.K.r.U & [ U.U.u. .L.t.*.Z.&.M G S C , m                                 ",
"                0 ( L.A...A.[ =.A % =.P.W.t...P.N.5     m K S S r r                                 ",
"                ^ ( e.&.! [ =.V.' & e.L.E.N.X.I.C.      O K S S m &                                 ",
"              0 ) [ =.t.t.C.K.I.I.y.$.^.~.0.X.U.e.        2 L V &                                   ",
"                &.,.t.t.Z.!.!.!.^.XX..#.^   u k             =                                       ",
"                ' A.t.P..X^.U.L.A.)                                                                 ",
"                  / >...' /                                                                         ",
"                                                                                                    "
};
