/* XPM */
static char *c05e59787dc24101d2676ac7014ceea7crcwa31zXUu6aATj[] = {
/* columns rows colors chars-per-pixel */
"50 50 58 1 ",
"  c #1A1917",
". c #1D1C1B",
"X c #201F1D",
"o c #21201F",
"O c #252423",
"+ c #282725",
"@ c #292827",
"# c #2D2C2A",
"$ c #302F2D",
"% c #32312F",
"& c #353432",
"* c #383735",
"= c #3A3937",
"- c #3D3C3A",
"; c #403F3D",
": c #41403E",
"> c #454442",
", c #484744",
"< c #494846",
"1 c #4C4B49",
"2 c #504F4D",
"3 c #52514E",
"4 c #555352",
"5 c #585755",
"6 c #5A5957",
"7 c #84827F",
"8 c #868481",
"9 c #898784",
"0 c #8A8987",
"q c #8E8D8B",
"w c #908F8D",
"e c #91908F",
"r c #949392",
"t c #989796",
"y c #989897",
"u c #9C9B9A",
"i c #A09F9E",
"p c #A6A5A4",
"a c #BDBAB7",
"s c #C8C6C3",
"d c #CAC9C7",
"f c #CECCC9",
"g c #D5D4D3",
"h c #D8D7D4",
"j c #DBD9D5",
"k c #DDDCDA",
"l c #E0DEDC",
"z c #E2E1DE",
"x c #E6E5E5",
"c c #E8E7E5",
"v c #EAE9E6",
"b c #ECEBE9",
"n c #F1EFEC",
"m c #F2F1EF",
"M c #F5F4F2",
"N c #F8F7F5",
"B c #F9F8F6",
"V c #FEFEFE",
/* pixels */
"#@&=*##@@@&#rVVVVVVVVVVMh,##@@*&@OO#O0MVVVMMVVVMVB",
"*&*&#++OO@@OqVVVVVVVBBBMx3*==*-<;*$#OqVVVVMMBVVVVM",
"####++@##@OoqVVMBnVVVVVBx<&*##*&##OO.8VVVBjnBVBVVV",
"#%%&&=;=&@OoqBVxBbNVVVVVc,##@@@@O@OOoqVVVVMBVNbVVV",
"@%$#$*=;=&@O0VBxVVVVVBMVx>OOO@+#@#@OOrVVVVVVVmnVVV",
"$$@@@@@*===&0VVBVVVBVVVVx-O###@#&+@+orVVBVVVVBbVVV",
"%=%#@@@##O@OrVVMVVVBBVVVx-O@+OO@#OOOO9vMMVVVVVvkmV",
"*%%%$@++OOOorVVVVBVbNVVVx-OOO@@O++OOO9MVVVVVVVVbMB",
"@@@#@OOO+OOOrVBVVVVVVVVVx-OOOOO+@O+@OrVVVVVVVVVVVV",
"o++oOO@@OOOOrVVVVVVVVVVVx-OOO++OO+@@orVVVVVVMvBVVV",
"+ooo.O@@OOOOeVVVVVVVVVVVx-@@+O+++O@#OrVVVVVVkbBBbB",
"o+o.....O.. rVVVVVVVVVVVb-O@@OOOOO#@OrVVVVVVMVVVVV",
"eerwqwqqqrrqrerrrqrqreeqerrrtrertrrrurrrrqrqqeeerr",
"VVVVVVVBVVVVr..XoX.O.OOO=cVVVVVVVcMVVrOOOOO#OOXX..",
"BVNVVMMNVVVVrOOOOO@@@#*-<xVVVVVVVBmVVu&&@OO@@+OOOO",
"BMbzVMMVVVVVqO*&&&&OOO@$,xVVVVVVVVBcVr@&@OO#@O@@OO",
"BVVcVVVVVVVVr@%=-##@o+Oo:lVVVVVVVVVzBr@@O++&==*=-=",
"VVmVVVVVVVVVrO##=>#O+o+o;xmVVVBvxMVVm8++@@&:=&#@@#",
"mjcVVVBMVVVVeO##&=*@+++O:vBVVBNMMmVVm8#$#@$-&OOO@@",
"xMBVVVVBBBVVrO@@&>-=%++$3vVVVVVVVBNVVr+#%%==OO.O@+",
"BVVVVVVMVBBVrO#$#&-;*#@$,cVVVmVVVVxNVt&*%*#@@OOOOO",
"VVVVVVMnVVVmq+###&,;$%$+>xVVVmnBMmcBVu,-**%@O@@@O@",
"VVVVVVBvVVVVrO#&&#&%#$%$-xVBVVBVVVVVBr*&&=&$$&%@OO",
"VVVVVVVMVVVVrO@&%@@#%-*-4cVMMVVVVVVVBr@#=&%#@@OOO.",
"xxxxxxxgxxxxr>1,:>>>,<>,6gbldxxlfhbxbr=->>>,,>>,--",
"-->----=->>-0jccxxxxcjsxg4:11>::>15,:rxgkxxcxxxxxx",
"O.OOOOOO+@@O0VVVVVVVVMmVc1#%##&=>&#OOrVxVVVVVVVVBB",
"@%#@@OOO+@@OrBBVVVVVVVBMl6=%##*=-=$#+rVMVVVVVVVVMB",
"O%*$#OOOOO+OrBBMVVVVVVVVx2$#&;=%@+@$#rVVVVVVVVVVVV",
"oOO++O+OOOO@rVVvVBBVVVMVb2&$$#OoOO+@#eVVVVbmVVVVVV",
"O@-*@$-=#@OO9BVVVVVVVVBVx5#+@OOOO@#@#rBVVnbmVVVVVV",
"@=-&$#*#O&&OrVVVVBVVVVBVk-OO++OOOO+=-uVBVVBBVVVVBB",
":>#==*#OO#&#yVVVVVVnVVvVx>OOO+++@%#$@tVBVVBVVVVVBm",
"<*@@#-$O@&&$rVVVVVVjMVMVx,&@+@@#-=#@$uVBVVVVVVVBVV",
"%+++O#%+@#&#uVVVVVVvMVVMx-###%&&=%##@tMBVVVVVVBVVV",
"@+O@@#%&&%==uVVVVVVBMVVBx>#&*@#%*%@#@eVVBBVVVVBVVV",
"=$O$%%%%##*&tVVVVVVVbmVVx-O%%@@##%$+otVVMjVVVVVVVV",
"iyyiirerqrrrruuppitr87rrrqrrrur9etreettreerrrrrtrq",
"VVVVVVVVVVVVu-;;*%@o@Ooo-xVVbMBbBVVVVt+$%%#++O@#@@",
"MVMVBVVVVVVVr#&==%$+@+@#<cVMcBVVVBVBVr#==**%###%@@",
"BVVVNVVVVVmNeo#:;&#@@#*%4vVBBBMVVVVVVrO#&*&$####@@",
"bVVVmBVVVVzve@$*=&$@%*%$<xVVVBBVVVVVVro#%$@$%#+O@@",
"BVVVBVVVVVBbw%&$%&%%%%%$,xVBVVVVVVVVVeo@@++@@@O+@$",
"MBVVVVVVVVVBe%*$#*=%$%%%1cMhVMbBVVVVVrOO+++@#@o+&=",
"mkVVVVVVVVVVr$%&,-&%&&&&6bMaMVVMVVVVVrOO+O++O@#@+$",
"VkBNBVVVBBVVr@$%:3<&$&%#4bVcVVVmVVbmb0O.OOOO#$#@OO",
"VxMmMVVVVnMVr&;@#-3:%@@+>xVmVVVBVBbmbq.OOoOO@@+&#O",
"VVVMNVVVBmMVr$%$##=,-&@@>xVMVVVNVVVVVq.XoOO$&=&=*@",
"VVnNVVVVVVVVu%$@@#%:;*#@:cVBVVVBVVVVVq.O@@&--=#%*&",
"VVNBBVmbmBVVt@%%#@#&,&#@:xVVVVVVVBBVVrOOO@&&##@#&@"
};
