/* XPM */
static char *_b0a44c7259240dd8ce016e891a8ee1c1rQLZdhrDiw5TKOc[] = {
/* columns rows colors chars-per-pixel */
"50 50 203 2 ",
"   c None",
".  c #333434",
"X  c #3B3B3B",
"o  c #363638",
"O  c #42413E",
"+  c #434342",
"@  c #4C4B44",
"#  c #4D4D4D",
"$  c #504F48",
"%  c #53534B",
"&  c #5A594F",
"*  c #5A5541",
"=  c #535353",
"-  c #5B5B54",
";  c #5C5C5B",
":  c #605A42",
">  c #605F55",
",  c #756B45",
"<  c #686758",
"1  c #726A47",
"2  c #666666",
"3  c #6A6A66",
"4  c #6D6D6C",
"5  c #7D7B64",
"6  c #73736E",
"7  c #787665",
"8  c #747473",
"9  c #797975",
"0  c #7D7D7A",
"q  c #847745",
"w  c #817D68",
"e  c #FFAE00",
"r  c #FFB401",
"t  c #FFBC01",
"y  c #FFC401",
"u  c #FFCC00",
"i  c #FFC40A",
"p  c #FFCA0D",
"a  c #FFD400",
"s  c #FFDC01",
"d  c #FFD40C",
"f  c #FFDC0D",
"g  c #FFCF14",
"h  c #FFD314",
"j  c #FFDA13",
"k  c #FFDB1B",
"l  c #FFD71D",
"z  c #FFE400",
"x  c #FFEB01",
"c  c #FFE40B",
"v  c #FFEC0A",
"b  c #FFF402",
"n  c #FFFB05",
"m  c #FFF40D",
"M  c #FFFD0C",
"N  c #FFEB13",
"B  c #FFEC1D",
"V  c #FFE013",
"C  c #FFFF14",
"Z  c #FFF11A",
"A  c #FFFE1B",
"S  c #FFF113",
"D  c #FFDD20",
"F  c #FFD934",
"G  c #FFE223",
"H  c #FFE924",
"J  c #FFE62D",
"K  c #FFED2B",
"L  c #FFF624",
"P  c #FFFF23",
"I  c #FFF22A",
"U  c #FFFE2B",
"Y  c #FFED31",
"T  c #FFE739",
"R  c #FFF535",
"E  c #FFFF35",
"W  c #FFFE3A",
"Q  c #FFF13F",
"!  c #9F935F",
"~  c #95864B",
"^  c #818067",
"/  c #8A876B",
"(  c #9B9060",
")  c #81817D",
"_  c #949374",
"`  c #99997A",
"'  c #A9A57A",
"]  c #B6A561",
"[  c #CDB85F",
"{  c #D9BF55",
"}  c #CAB768",
"|  c #E4C959",
" . c #FFF542",
".. c #FFFF44",
"X. c #FFFF4A",
"o. c #FFE855",
"O. c #FFF553",
"+. c #FFFE53",
"@. c #FFFF5B",
"#. c #EED77A",
"$. c #FFFF65",
"%. c #FFFF6B",
"&. c #FFFF74",
"*. c #FFFF7C",
"=. c #FFF57B",
"-. c #848481",
";. c #8A8A85",
":. c #8D8D8A",
">. c #888782",
",. c #918F86",
"<. c #919186",
"1. c #92928D",
"2. c #9C9C8F",
"3. c #9E9E87",
"4. c #9B9B95",
"5. c #9E9E9A",
"6. c #969692",
"7. c #A09E94",
"8. c #A29D87",
"9. c #A9A98F",
"0. c #A7A785",
"q. c #BEBC8D",
"w. c #B6B68E",
"e. c #A2A195",
"r. c #ACAC93",
"t. c #A4A49D",
"y. c #A8A89E",
"u. c #B4B494",
"i. c #B9B391",
"p. c #B5B59C",
"a. c #A4A4A1",
"s. c #ABAAA3",
"d. c #AFAFA9",
"f. c #B4B4AB",
"g. c #B9B9A9",
"h. c #BCBCB2",
"j. c #C0BE8F",
"k. c #C1BB93",
"l. c #C2C18F",
"z. c #C4C293",
"x. c #CECE99",
"c. c #CFCE95",
"v. c #D5CB9B",
"b. c #CFD096",
"n. c #D4D49C",
"m. c #DEDE9E",
"M. c #E8D999",
"N. c #FFFF83",
"B. c #FFFF8B",
"V. c #E3E39E",
"C. c #FEFE94",
"Z. c #F7F79F",
"A. c #FDFD9C",
"S. c #F8F79F",
"D. c #DBDBA5",
"F. c #D1D1A9",
"G. c #DBD8A5",
"H. c #C2C2B3",
"J. c #C5C5BB",
"K. c #C8C8BC",
"L. c #D3D3B2",
"P. c #D0D0B9",
"I. c #C5C5AA",
"U. c #E7DAA3",
"Y. c #E3E3A3",
"T. c #ECECA1",
"R. c #E7E7AC",
"E. c #F1F1A3",
"W. c #FEFEA4",
"Q. c #FEFEAC",
"!. c #F2F2AA",
"~. c #E5E5B9",
"^. c #E9E9B6",
"/. c #FEFEB4",
"(. c #FEFEBB",
"). c #F5F5B4",
"_. c #CDCDC2",
"`. c #D3D3C5",
"'. c #D5D5CA",
"]. c #DADACE",
"[. c #DCDCC2",
"{. c #DDDDD1",
"}. c #E7E7C7",
"|. c #F2F2C6",
" X c #FEFEC4",
".X c #F1F1CB",
"XX c #FEFECC",
"oX c #F7F8CA",
"OX c #E2E2D3",
"+X c #EDEDD2",
"@X c #E5E5DA",
"#X c #EAEADD",
"$X c #EAEADB",
"%X c #FDFDD3",
"&X c #FDFDDA",
"*X c #F2F2DA",
"=X c #EDEDE1",
"-X c #F4F4E5",
";X c #FFFFE4",
":X c #F6F6E9",
">X c #F5F5E9",
",X c #FBFBEC",
"<X c #FEFEF2",
/* pixels */
"                                                                                                    ",
"                                                                                                    ",
"                                                                                                    ",
"                                                                                                    ",
"                                                                                                    ",
"                              6 ) :.:.;.-.;.k.U.                                                    ",
"                              ) 1.6.6.>.0 0 :.e.7.:.;.:.5.                                          ",
"                              1.s.f.d.5.:.:.6.7.6.:.;.1.a.s.a.4.4.t.a.t.      M.                    ",
"                              y.H.K.J.f.t.a.f.h.f.a.5.s.h.h.f.s.t.s.d.d.4.1.8.i.e.<.                ",
"                              g.`.].'.J.f.h._._._.h.h.J.'.'._.h.f.J.J.h.s.<.-.;.1.1.:.) 9 4 9 a.    ",
"                      XXXX    P.}.+XOX`.J._.OX@X].`._.{.@X@X{._.`.].{.`.h.y.5.t.s.s.4.) 8 2 ; :.    ",
"                     X/.(.(.  ~.|.oXoX}.P.OX$X$X@X].OX#X>X-X#X{.{.@X=X@X_.g.f.h.J.J.f.4.0 3 ; -.    ",
"                   X(.Q.Q.Q./.).(./. X|.}..X%X%X.X+X*X-X,X<X-X@X=X>X:X=X{.J.J._.{.'.J.s.:.9 3 ;.    ",
"                  (.Q.Q.Q.Q.Q.W.C.C.Q. X X X X X%X%X%X&X&X;X,X>X,X<X<X,X#X{.{.@X#X$X'.h.5.;.6 1.    ",
"               X(./.Q.W.W.W.B.&.$.%.N.W./.Q.W.W./. X X(. X%X;X,X,X;X;X;X>X=X#X>X,X,X$X`.g.5.;.4.    ",
"             X(./.Q.W.A.B.N.%.X.W ..@.*.C.C.N.N.B.A.A.C.W.(.&X&X%XXX(.%X;X,X,X<X<X,X-X$X`.h.e.a.    ",
"            (./.Q.Q.W.B.&.$...U A P E +.%.&.$.@.$.&.*.*.B.Q. X X(.W.C.W.XX&X;X;X&X<X<X,X=X`.f.f.    ",
"          %X(.Q.Q.W.C.*.@...E A M M A E +.+...E ..+.$.%.&.C.Q.Q.A.N.N.N.C.(. X X(.XX;X<X,XOXg.g.    ",
"          XX(.Q.A.C.N.$.X.E P C n n M P W W U P E X.+.+.$.*.C.C.*.&.%.%.*.B.C.C.C.W.(.&X<X$XI.h.    ",
"          XX(.W.B.*.$.+.W P A M n n n C P P A A E ....X.+.%.*.*.%.@.@.@.@.$.%.&.&.N.A.XX,X$XH.h.    ",
"           X/.Q.N.$.X.W P C M b b b b M C C C A U W E W ..@.%.$.+.X.X.X...X.+.+.@.$.N.(.;X*XK.J.    ",
"           X/.W.N.+.W P A M m x b x b b n n M C P U U U E X.@.+...E W W E E W ....+.&.Q.&X&X}.`.    ",
"          (.Q.W.N.X.P C M v x x x x x b b b M C C A A A P W ..W E U U P P U U U E W @.C.(.%X}.{.    ",
"        XX/.Q.W.*...P m x z x x x x x x b b b M M M M C A U U U A A A A A A P A A U X.&.W.(..XOX    ",
"        (.Q.Q.A.&...A m z z z z z z z x x x b b m n n M M A A C M M C M C C C C C A E @.N./.|.      ",
"      XX(.Q.W.B.%...Z c s s s z z z z z z z x x x b b b n M M M n n n n M M M M M C U X.*.Q.}.      ",
"      XX/.W.C.*.@.W S f s a s s s s s s z z z x x x x x b b n b b n b n n n n n M M P ..*./.~.      ",
"    %X(.Q.A.N.$...U N f u a s a a a s s s z z z z x x x x b x b b b b b b n n n n M A ..N.).L.      ",
"    XX(.Q.C.&.+.E B f u u u u u u u u a a s s s z z z z x x x x b b b b b n b b b n P +.C.).L.      ",
"     XQ.A.B.%...L j u y y u y y y y u u u a a s s s z z z z x x x x x x b b b b b n P @.W.^.I.      ",
"     XQ.C.*.@.W B d y t t t y y y y y y y u u a a a s s s s z z z x x x b b b b b m U %.W.D.p.      ",
"     XW.N.$.X.K k i t r r r t y t y u y u y u u u u a a s s s z z z x z x b b x b A W *./.F.r.      ",
"     XW.*.O.T D j t e e r r r r t t i y y u u a u u a a a a s s s s z z x x x v m U @.C.^.u.2.      ",
"    XXQ.N.o.F D d i r e e e e r r r t t t y y y u a u a a a a a s s s s z x x v L X.N.E.F.2.        ",
"      ^.Z.=.o.F G j i t r e e e r e r r t t t y y y u u a a a s s s s z z z c B W *.Z.F.9.2.        ",
"      w.G.T.C.*.%.O.Q J D g i t r r r r r r t t t y y u u u u a a s s x x v N W &.E.x.9.<.;.        ",
"    6 5 ` u.c.Y.E.A.B.*.&.O.Q J k h p t t t t r t t t y y y u u a a f x z S E %.W.G.9.:.0 0         ",
"    ; % < i.k.q.q.z.n.Y.E.S.B.N.%.+. .Y D h p i i t t t t y y u u s z z N U %.W.D.u.;.0 4 8         ",
"    - + @ v.M.M.U.' ^ ` 0.z.n.Y.E.S.C.*.&.@. .R G j h p y i i y u s s c K $.A.U.r.<.0 4 4 8         ",
"    # + + ! } { } ( @ % 7 7 / _ 0.q.n.Y.E.Z.C.N.%.@. .R H V d f s f f K @.A.D.u.<.9 4 2 2           ",
"      X X X @ * , 1 X X # < 5 = - < ^ _ ' q.n.V.T.Z.C.B.&.@.X.R I G K @.C.D.u.<.9 4 3 2             ",
"            . o o X X X X - + X + + # % > 5 ^ _ ' q.x.M.T.E.C.N.&.%.*.Z.D.u.<.0 4 3 2               ",
"                    . o X = O X X X X X + & 7 < & < _ k.q.l.c.m.T.V.V.x.u.<.0 4 3 2                 ",
"                        X # + o X X X X X + - + O + / v.M.M.v.' ` 0.0.e.;.9 4 2 2                   ",
"                          X = ; = + X X O # @ O X X 1 } | #.U.! & & 3 ;.9 4 2 2                     ",
"                            X + = - ; # = ; X X o X O O , ~ ] q X O - 0 4 2 2                       ",
"                                  + # = 2           X . . X O O X o # 9 3 2                         ",
"                                                            . . o X = 4 2                           ",
"                                                                    # 4                             ",
"                                                                                                    "
};
