/* XPM */
static char *result[] = {
/* columns rows colors chars-per-pixel */
"50 50 68 1 ",
"  c #77767C",
". c #79787E",
"X c #767681",
"o c #7B7B83",
"O c #77798A",
"+ c #7D7E8B",
"@ c #807F85",
"# c #7F808E",
"$ c #7F8190",
"% c #828187",
"& c #83838C",
"* c #88878C",
"= c #8A898E",
"- c #838592",
"; c #878895",
": c #8C8B93",
"> c #878998",
", c #8B8C9A",
"< c #908F93",
"1 c #929195",
"2 c #93939B",
"3 c #98979A",
"4 c #9C9A9D",
"5 c #9C9CA2",
"6 c #9F9FA8",
"7 c #A09FA2",
"8 c #9FA1AC",
"9 c #A3A2A5",
"0 c #A7A6AB",
"q c #A8A6A9",
"w c #ACABAD",
"e c #A4A6B0",
"r c #ACADB4",
"t c #B0AFB3",
"y c #B3B2B5",
"u c #B8B7B7",
"i c #B5B5BA",
"p c #B7B8BE",
"a c #BCBBBD",
"s c #C0BFBF",
"d c #BDBEC2",
"f c #C0BFC0",
"g c #BFC1C8",
"h c #C3C3C4",
"j c #C8C7C7",
"k c #C6C6CA",
"l c #C8C7C8",
"z c #C7C8CD",
"x c #CCCCCD",
"c c #CDCED1",
"v c #D0CFD0",
"b c #CFD0D4",
"n c #D3D3D5",
"m c #D5D5D9",
"M c #DBDBDC",
"N c #E0E0DF",
"B c #DEDFE1",
"V c #E4E3E5",
"C c #E8E7E7",
"Z c #E8E8E7",
"A c #E7E7E8",
"S c #ECECEC",
"D c #F0EFEF",
"F c #EFEFF0",
"G c #F5F5F5",
"H c #F8F8F7",
"J c #F7F7F8",
"K c #F9F9F9",
/* pixels */
"KGKHGKGKGGKGKGJGGKFKGGKGKGJGGKGHGGJDKGJJDKDKGGHFKJ",
"GKGGJGGGKGGJGGGGHGKGJGGHGGGHJGHGHGGKDKGGKGKGHGGHGJ",
"GGKGGKGGGJHGGGHHGJGGGJGGGGGGGJGGGJGGKGGJGHGHGGJGJG",
"GGGGGGGGGGGGGGGGGGHGGHGGGGGHHGGGHGGJGJGHGGJGJGGJGG",
"GGGGKGGGGJGHGGGGHGGGGHGHGJGGGGHGJGGGGGGGHGJGGGGHGG",
"KGKGGKGKGGJGKGJJGJGGGGGGKGJGGKGJGGHGKGKGGHGJGGHGKG",
"GKGGGGKGHGGHGJGGKGHGJGGKGHGGGGJGHGGKDKGGJDKGJGGKDK",
"KGHGGGGKGGGGKGJGGKGGGGJGJGHGGGGHGGHGKGKGGHGHGGHDKG",
"GGGGKGKGGGGKFJGGHDJGJGGKGHGGKGKGKGGKDKGGKDKGJJGHGJ",
"GGGHGKGGGKGGJGGJJJGJGJGGGGJGGGGGGGGGKGKGGHGHGGJGHG",
"GGJGGGGGKGKGGJJJGGJGJGJGGAGSSSGGHJGGGGGKJGGGGGGGGJ",
"GKGGGGHGGGGKGJGJJGGJKAvkhxVVVSGSDGGJGJGGJGGGJHGJGG",
"KGGGGKGKGGGGKGJFGGMVce-*5hhhxVSDVZSZGGJJGKGHGGGGKG",
"GKGGKGKFGGSFSKGANdr2+ooo<uyuhMNDGDDZMSSGGDHGJJGHDH",
"KGGHGKGGGGJAGBd82-XXo&**=99unnNZDGGHSAMNAJDKGGHGKG",
"GGGGGGGGGGGVd5+OOOoXoo@=%:*7hhNVAGGGKGSMnVGSGJGJGH",
"JGGJFJGJGFBd>+++-;+.. o*%<<qavvNZDGGHHGGVhBGFGGSKG",
"GJGJJFFGGBr,O+>;;&&.oo.*=:=3wvMNVZDGGGHHGmASSJGFGG",
"GGGGJAFGBd+$>>-&:&*.@o%*%.%*7hvNVNFDGGHGGSMMSJGGGJ",
"JGJGJJSGzO++$>--:%*@%*=4:@%=1hMNVZDGDGGGGAmxMSGFKG",
"FJGGJFGb>+$>$-+-&&*=%<4911433amnMSDDGDGDGFVlAASGGG",
"KGGGGFFdO>>>-+-o*%*3<3431qywqjMNMCSSDGGDDDAxbAGGJG",
"FJGGGBVe+>>>;&&o&o*qsy4314aashsMAZSASDDDFDVlbVFKGH",
"JGGGFFd+$$>+$&&&&o%1afwwwawhjjsvCSACZDDDFSVxnFGFGG",
"GGGGGGgO#O,-#&&#ooo*9wq49haaussvNNCCNVCSSABcVGGGGG",
"FJGGGSb>#o&--,&+#*=1733wwssssxhjMMZNVVVCBmxnVGGGGG",
"JGGGGGVr-Oo#-;-&=:34yyuahjsjvmMMvjZZVDCMcbnVSFGGGG",
"FJGGFBGz:-OO&&&&-:1=qyhjjxhsvsnNMvMNCZMnmMFFFGGGGG",
"JGHJFGSBd,$-+&+o&,<%1q7svhswsuvNVMMxsnnmVFFJGGGGKG",
"GHGGJFGAAB8,;2,o+<:**4<qxjxjaxjnMMNmaxMMAGJGGGGKGG",
"JGGGGJFFSFmz5,0&&6y99973uyaxvnmssMbcMAAGAGGGGGJGHG",
"GGGGJGJFFGFFcdr3-:wuquxwaswusssnkzkmBGGGGFGGGGGGGG",
"GJGGGGFGGGJGAVBge84iwtpiddrekdpcMMkbAHGGGGGGGJGHGG",
"JGJJGJGHGGGFSSSBmmckckygkzbmmmmAASVVSSGGGJGGGGGGKG",
"FJGGHGHGJGGHFJGASABBABbBVAVAAAGSGFSGFJGGJGHGHGGKGG",
"KGHGGKFHGGJSHFHFFJAFSFSFGSSASGAGFGGGKGGGGJGHGGHGKG",
"DKGGHGHGHJGGFHGGGSSSFGSJFGSGGGKGGGGJFGGGGGKGGJGKGH",
"KGHGGHGHGFGGHGJGGJSJGJJGHGGGGGGKGJGGHGHJGHGKGGGGKG",
"GJGGGGJGGGGHGGGJJGGGHGGJGGGGGGHGGGGJGGGGGGGGJGGHGG",
"GHGGJGJGGJGGGGGGGGGFHGGGGGGGGGJGGGHGGGGGGGJGHGGJGG",
"HGJJGHGJGGJGJGJGGHFHGGHGHGJJGHGHGHGGKGGHGKGHGGJGHG",
"FHGGHFHGJJGHFHGGHGKGHGGJFHGGJGJGGGGGGKGGJGKGGGGKGG",
"KGJGGJGHGGHGHGHJGKGHGGHGKGJGGHFJGGHGKGJGGHFJGGKGJG",
"GJGGHGHGJGGHGHGGJFHGHGGJGHGGJGHGKGGKFHGGHGKGGGGHGH",
"HGJGGHGHGGJGJGGJGHGHGJJGHGJGGHGHGJHGKGGJGKGKGGJGKG",
"GJGGHGGGJGGGGGGGGGGGGGGJGGGGJGGGGGGGGHGGGGGGGHGGGH",
"GGGGGGGJGGGJGGGHGGJGGHGGGGGHGGHGJGGHGGGGHGGGGJGHGG",
"HGJHGHGHGGHGHGGJGHGHGGHGHGJJGJGHGGGGKGHGGJGKGGGGKG",
"GHGJHGHGHGGKGHGGJFHGJGGHGHGGHGKGKGGJGGGGJGKGGGGJGG",
"KFHHGJFHGGHFJGHJGKGKGGHFKGHGGJFJGGGGKGGHGKGGGGHGKG"
};
