/* XPM */
static char *bff391c6000742b39ceca8fc6b3cab08zeOKyXdmojnweK92[] = {
/* columns rows colors chars-per-pixel */
"50 50 232 2 ",
"   c None",
".  c #2A1817",
"X  c #35251D",
"o  c #311A2C",
"O  c #3A2827",
"+  c #332832",
"@  c #5D1817",
"#  c #46160D",
"$  c #781A17",
"%  c #6F1114",
"&  c #4A240A",
"*  c #482517",
"=  c #582A17",
"-  c #58240F",
";  c #682B1B",
":  c #71341A",
">  c #472B25",
",  c #572C26",
"<  c #49342B",
"1  c #563525",
"2  c #483C36",
"3  c #533F31",
"4  c #692723",
"5  c #752325",
"6  c #683726",
"7  c #7A3A2B",
"8  c #753936",
"9  c #5A4439",
"0  c #694C3A",
"q  c #774535",
"w  c #6B513D",
"e  c #775539",
"r  c #6D4B2F",
"t  c #1C2957",
"y  c #262855",
"u  c #3A2E51",
"i  c #1C2D76",
"p  c #1C2C6B",
"a  c #293777",
"s  c #332B69",
"d  c #1A1D49",
"f  c #4A284F",
"g  c #782B62",
"h  c #364062",
"j  c #575152",
"k  c #794E48",
"l  c #6A5747",
"z  c #775946",
"x  c #7B5B58",
"c  c #664F4E",
"v  c #766653",
"b  c #525571",
"n  c #695769",
"m  c #7A6565",
"M  c #676A77",
"N  c #747779",
"B  c #766E68",
"V  c #85181A",
"C  c #9D1B1B",
"Z  c #981818",
"A  c #8E0B10",
"S  c #A71817",
"D  c #AD0D0C",
"F  c #9E2217",
"G  c #822E1B",
"H  c #991C23",
"J  c #AD1C28",
"K  c #B71A21",
"L  c #863428",
"P  c #9C2C31",
"I  c #91312E",
"U  c #BC3737",
"Y  c #AA2534",
"T  c #DA0A0D",
"R  c #C51817",
"E  c #D5161B",
"W  c #E80D0C",
"Q  c #E90C13",
"!  c #EC1B1B",
"~  c #E91917",
"^  c #F2151B",
"/  c #F4191A",
"(  c #F81618",
")  c #F3180F",
"_  c #C5211A",
"`  c #C93034",
"'  c #DF1D24",
"]  c #83401E",
"[  c #874B38",
"{  c #83543C",
"}  c #9A4E36",
"|  c #A75938",
" . c #B25C39",
".. c #A64F34",
"X. c #B4623C",
"o. c #BA2144",
"O. c #872F5F",
"+. c #865946",
"@. c #93524D",
"#. c #B84C4B",
"$. c #AF574C",
"%. c #86664B",
"&. c #856857",
"*. c #946E59",
"=. c #957559",
"-. c #9F6140",
";. c #A56649",
":. c #A47C59",
">. c #B9795B",
",. c #AB6349",
"<. c #987865",
"1. c #8B7975",
"2. c #89716F",
"3. c #A57E63",
"4. c #B4706E",
"5. c #C67A56",
"6. c #C1604C",
"7. c #CF5B60",
"8. c #C66D71",
"9. c #CA494B",
"0. c #7C8971",
"q. c #A8A72D",
"w. c #D1BF22",
"e. c #EBE136",
"r. c #8B8652",
"t. c #A9825C",
"y. c #99877B",
"u. c #A88469",
"i. c #B2986E",
"p. c #A88C79",
"a. c #B48A77",
"s. c #B39470",
"d. c #C3997E",
"f. c #CCA77C",
"g. c #D3D246",
"h. c #192E80",
"j. c #1D348C",
"k. c #1D3785",
"l. c #1C3898",
"z. c #0C2E8F",
"x. c #202A89",
"c. c #213896",
"v. c #2E3985",
"b. c #1839A5",
"n. c #253BA8",
"m. c #303CAD",
"M. c #4E3B98",
"N. c #3D4986",
"B. c #374A96",
"V. c #29429C",
"C. c #1F4AB2",
"Z. c #2442B4",
"A. c #2647BA",
"S. c #3248AB",
"D. c #4D5A87",
"F. c #72758A",
"G. c #425AA7",
"H. c #4F66AF",
"J. c #54618D",
"K. c #294AC5",
"L. c #3348C6",
"P. c #2951CD",
"I. c #2B4ED6",
"U. c #2C54D7",
"Y. c #3152DA",
"T. c #2B59EE",
"R. c #2958E5",
"E. c #3159E6",
"W. c #2C59F1",
"Q. c #3157F3",
"!. c #3061EB",
"~. c #1948DB",
"^. c #837C81",
"/. c #7D8383",
"(. c #7FA4BA",
"). c #4F8CA7",
"_. c #85868C",
"`. c #868589",
"'. c #888993",
"]. c #989699",
"[. c #948D8F",
"{. c #BB9E87",
"}. c #AB938E",
"|. c #ADA299",
" X c #BAA389",
".X c #9B9DA2",
"XX c #8288A6",
"oX c #A09CA7",
"OX c #91A5B4",
"+X c #A3A6AB",
"@X c #ABAAAD",
"#X c #A5A7A8",
"$X c #B5ADA8",
"%X c #A6AAB4",
"&X c #B7B9B7",
"*X c #BAB8AE",
"=X c #C8978C",
"-X c #DCB694",
";X c #D2AF8E",
":X c #E5BB91",
">X c #C6B5AA",
",X c #CAB4B1",
"<X c #DAC19D",
"1X c #EDC399",
"2X c #F6CA9D",
"3X c #F6D09E",
"4X c #E8C6A5",
"5X c #FACBA5",
"6X c #FCD5A9",
"7X c #FFDAB1",
"8X c #EFD0AE",
"9X c #FFE2B7",
"0X c #CCC4BE",
"qX c #B7BEC4",
"wX c #93A1C5",
"eX c #C3BFC4",
"rX c #BFC1CA",
"tX c #BAC5D0",
"yX c #C7C6C7",
"uX c #CBCCD6",
"iX c #D5D2D0",
"pX c #E9DFDC",
"aX c #EFE8D5",
"sX c #D8DCE2",
"dX c #CED9E0",
"fX c #DCE1E6",
"gX c #E7E6E9",
"hX c #EBEAF6",
"jX c #F2EFF9",
"kX c #EDF3FA",
"lX c #FDFEFD",
"zX c #F4F5F9",
/* pixels */
"                                                                                                    ",
"                                                                                                    ",
"                                                                                                    ",
"                                                              4.U U ` #.,X                          ",
"                                                          4.R Q ^ ^ Q 9.p.>X                        ",
"                                                        #.T / ! ^ ^ ' =X7.@.                        ",
"                                                        E ! ) ^ ! E K V $ V 8                       ",
"                                                      T ) ! ! R Z V Z C Z H S % @.                  ",
"                                                    S ( / E Z V 4 @ @ $ Z Z F F A @.                ",
"                                                  @.K ! S ; 8 5 e z c < 5 C C S F V                 ",
"                                                  V H V @ +.=.q r.<.0.l 4 4 @ Z F A                 ",
"                                              }.@ I @ 4 L q d.-Xf.#X).`.{ , 1 @ Z %                 ",
"                gXyX@X@XyXfXlX              zXp.=X{.3.7 I 5 a.9X;XsXH.N.i.m a.a.} I                 ",
"                @XqX+X@XfX+XyX              iX{.6X-Xu.[ L ] ;X7Xl l (.(.s.-X9XaX5X{.                ",
"                  +X  uXsXfXyX&X            *Xd.1Xs.%.+.; :.9X3Xz X 2 B <.f.6X5X6X<X                ",
"                  `.+X  kXfXdXjX  +XrXgXlXlXyXp.8Xs.<.3.q 2X2X7X&.X < > l :.f.1X1Xp.                ",
"                  _.N N sXkXhXhXOX,X8.U #.#.#.Y 6.>.=Xu.r 2X5X5Xk y.z O > z =.t.t.&.                ",
"                  '.    +XkXhX%X|.` W ) Q W Q ^ W E F +.*.-X5X2X:X>X}.p.9 O c *.z                   ",
"                        .XkXdX.X8.W / / ! ! ^ ^ / ( E $ *.a.3X3X7X+.. 3.y.9 X X <                   ",
"                        sXkX+X'.4.T ~ ~ ^ ^ ^ ^ ^ ~ ! V f 3.d.3X6X}., . [.<.v <.                    ",
"                      kXzXtX_.0.|.P S R K K D S E ^ ^ J p j t.s.:X-Xa.&. X<X4X>X                    ",
"                        %XN N `..X}.8 $ k x *.k A ! ( Y l.z.j u.:.:.-X;X:X1Xt.>X                    ",
"                          N #X  .XyX&Xm eXeX[.P R ! ~ g G.M s [ <.<.u.t.=.*.v iX                    ",
"                            @X      pX&.lXwXs o.o.O.M.D.g.e.v % 7 z =.%.y.y.2.iX                    ",
"                                    yX1.OXv.L.L.I.R.T.B.q.w.N S.f q 2 #X|.y.y.                      ",
"                                    lXXXn.A.c.Z.Y.R.P.C.N.h A.W.V.n d oXpX0XB                       ",
"                                    yXj.I.A.c.n.n.K.K.n.L.A.Y.W.K.B.D.p.lXgXl                       ",
"                                    J.b.E.R.E.K.A.R.T.R.K.Z.R.T.!.~.r.g.pX  @X                      ",
"                                    D.z.Y.Q.A.S.n.Y.W.R.E.A.Y.R.T.P.j r.zX                          ",
"                                    a j.j.C.K.n.n.E.W.R.T.P.I.W.W.P.s I jX                          ",
"                                  '.t x.c.L.n.j.V.A.P.T.W.I.A.U.E.R.g R }.zX                        ",
"                              }.`.M yXJ.n.Z.n.V.a p p b.T.P.A.I.P.S.H ~ ,X#XqX                      ",
"                            <.& o k.H.H.n.N.2.*.| >.;.8 D.n.I.Y.C.f D _ iXqX#X$X                    ",
"                          $X= o a k.i a 8 5.5. .$.5.5.,.@.u l.K.S.@.H =XtXuXzXsXyX                  ",
"                          &.# y j.i o [ $....... . . . .X.k k.i J.rX'.@X'.gX+X].                    ",
"                          * * a j.+ X , = = 4 6 7 } X.,.X.| t J.}.M '.'.'.fX].j zX                  ",
"                        l # , i k.O 1 1 e e e e { [ {  . .| n F.].$X[._./.rXuX[.                    ",
"                      |.= - , a i 9 u.e e =.z r r e e } | ;.  dX  kX|.F./.`.sXyX                    ",
"                      %.: - 1 s i n z %.v e =.p.z 9 9 e             @X#X  &X.XyX                    ",
"                      q G & 1 y i h B r %.=.e e u.%.< <                                             ",
"                      q ] - = + y y   B l z                                                         ",
"                      1.: 6 7 & u                                                                   ",
"                        # ; * * b                                                                   ",
"                        3 < < B b                                                                   ",
"                              M                                                                     ",
"                                                                                                    ",
"                          n                                                                         ",
"                                                                                                    ",
"                                                                                                    ",
"                                                                                                    "
};
