/* XPM */
static char *_46e4b7340da47c8cffbfd9e13ccfcfcMxMoS7T7wTC9y9Lq[] = {
/* columns rows colors chars-per-pixel */
"50 50 183 2 ",
"   c #D01E20",
".  c #CE2426",
"X  c #CE2729",
"o  c #CD2B2C",
"O  c #D12325",
"+  c #D12628",
"@  c #D0292B",
"#  c #CF2F31",
"$  c #D12F31",
"%  c #CD3233",
"&  c #CB3638",
"*  c #CC3A3B",
"=  c #D13335",
"-  c #D13739",
";  c #D0393B",
":  c #CB3E40",
">  c #D23F41",
",  c #BB4E4A",
"<  c #AF6B63",
"1  c #BD6D65",
"2  c #BA756C",
"3  c #AB7E74",
"4  c #B97B74",
"5  c #CC4445",
"6  c #CA4748",
"7  c #CB4F4D",
"8  c #D14244",
"9  c #D24749",
"0  c #D24B4D",
"q  c #C8524E",
"w  c #D1554A",
"e  c #CB4E50",
"r  c #D34E50",
"t  c #C55753",
"y  c #CB5153",
"u  c #CB5957",
"i  c #C75D5B",
"p  c #CC5A5B",
"a  c #D45456",
"s  c #D45758",
"d  c #D35B5C",
"f  c #C4615C",
"g  c #CA635D",
"h  c #C36762",
"j  c #CA6563",
"k  c #C86867",
"l  c #CE6C6D",
"z  c #D56365",
"x  c #D76769",
"c  c #D46B6D",
"v  c #C5706B",
"b  c #CA756C",
"n  c #D47662",
"m  c #C37574",
"M  c #CE7273",
"N  c #C67B72",
"B  c #CD797B",
"V  c #D27274",
"C  c #D87274",
"Z  c #D07778",
"A  c #D97778",
"S  c #D27B7C",
"D  c #DA7C7E",
"F  c #B2857A",
"G  c #D8876F",
"H  c #C58A7A",
"J  c #D08B73",
"K  c #CF947A",
"L  c #DB7F81",
"P  c #BD8780",
"I  c #B48D81",
"U  c #B39386",
"Y  c #B8978B",
"T  c #B29B8C",
"R  c #B99D8C",
"E  c #B69E91",
"W  c #B89E90",
"Q  c #BBA38D",
"!  c #BBA395",
"~  c #BFA698",
"^  c #C58C81",
"/  c #C58886",
"(  c #D38384",
")  c #DB8486",
"_  c #DB8788",
"`  c #D68C8C",
"'  c #DD8C8D",
"]  c #C7938C",
"[  c #D48F90",
"{  c #DD8F90",
"}  c #CC9695",
"|  c #CB9D90",
" . c #DE9394",
".. c #D69798",
"X. c #D69B9C",
"o. c #DE999A",
"O. c #E09799",
"+. c #E09B9C",
"@. c #DCAC8C",
"#. c #CEB38E",
"$. c #D0B48F",
"%. c #C5AB94",
"&. c #C4AC9C",
"*. c #C9AE9F",
"=. c #DAAB93",
"-. c #CEB492",
";. c #D5B896",
":. c #DBBE98",
">. c #E2B08E",
",. c #E3B995",
"<. c #E7BF99",
"1. c #C9AFA0",
"2. c #D6A7A7",
"3. c #DBA3A4",
"4. c #DBA9AA",
"5. c #CAB7A6",
"6. c #CDB4A4",
"7. c #D0B6A6",
"8. c #D7B9A6",
"9. c #D8BFA0",
"0. c #CFBDB3",
"q. c #D7B7B6",
"w. c #DCB3B4",
"e. c #DFBDBE",
"r. c #E3A3A4",
"t. c #E3A7A8",
"y. c #E4AAAC",
"u. c #E4AFB0",
"i. c #E5B3B4",
"p. c #E4B9BA",
"a. c #DDC099",
"s. c #E3C59D",
"d. c #E6C89F",
"f. c #E8C99F",
"g. c #DCC7AA",
"h. c #DDCFBC",
"j. c #DFD0BC",
"k. c #E3C7A3",
"l. c #E5C9A3",
"z. c #ECCDA3",
"x. c #E2CBAA",
"c. c #E8CDA8",
"v. c #EED0A5",
"b. c #E0CCB1",
"n. c #E8D1B1",
"m. c #E9BFC0",
"M. c #D4CDC2",
"N. c #DBCEC3",
"B. c #DCCDCC",
"V. c #DFD3C3",
"C. c #DAD6CF",
"Z. c #DFD8CF",
"A. c #DAD6D2",
"S. c #EAC3C4",
"D. c #E2C7C8",
"F. c #EBC7C9",
"G. c #E4CBCC",
"H. c #EBCCCD",
"J. c #E1D5C5",
"K. c #E1D7C9",
"L. c #E2D9CC",
"P. c #E5D4D3",
"I. c #EBD4D4",
"U. c #E3DCD3",
"Y. c #E7DBDC",
"T. c #EADCDC",
"R. c #F1DCDD",
"E. c #E6E1DC",
"W. c #E4E4E5",
"Q. c #EBE4E3",
"!. c #ECE8E4",
"~. c #E9E7E8",
"^. c #EDECEC",
"/. c #F3E5E6",
"(. c #F3ECED",
"). c #ECEFF0",
"_. c #F4EFF0",
"`. c #F5F5F5",
"'. c #F9F5F6",
"]. c #F5F7F8",
"[. c #F9F7F8",
"{. c #F6F8F8",
"}. c #FEFEFF",
/* pixels */
"`.`.`.`.`.`.`.`.`.`.`.`.`.`.`.`.`.`.`.`.`.`.].`.`.`.`.].`.`.`.`.`.`.`.`.`.`.`.`.`.`.`.`.`.`.`.`.`.`.",
"`.`.`.`.`.[.`.`.`.`.`.`.`.`.`.`.`.`.'.`.`.`.`.`.`.`.`.`.`.`.`.`.`.`.`.[.{.`.`.`.`.`.`.`.`.{.'.`.`.`.",
"`.`.`.`.`.`.`.`.`.`.`.`.`.`.`.`.`.`.`.`.`.].`._.(.`.].].{.`.`.`.`.`.`.`.`.`.`.`.`.`.`.`.`.`.`.`.{.`.",
"`.`.`.`.`.`.[.`.`.`.`.`.`.[.`.`.`.`.`.{.).m.S j } B B 3.P.`.`.`.`.`.`.`.`.`.`.`.`.`.`.`.`.`.`.`.`.`.",
"`.`.`.`.`.`.{.`.`.`.`.`.`.`.`.`.`.`.].W.( % O   = + O O * [ ^.`.`.`.`.`.`.`.[.`.`.`.`.[.`.`.`.`.`.`.",
"`.`.'.`.`.`.`._.`.`.`.`.`.`.`.`.`.`.m.y X X + - - O O O O O l T.`.`.`.^.`.`.`.`.`.`.`.`.`.`.`._.(.`.",
"`.`.`.`.`.`.^.`.`.`.`.`.`.`.].].(.o.& . X + & m.R.r.s + O O O l W.^.`.`.`.`.`.`.`.`.`.`.`.`._.)._.`.",
"`.{.`.`.`.).).`.`.`.`.{.`.`.].).H + + X X + - R.}.}.(.r.; O o y.W.W.`.`.`.`.`.`.`.[.`.`.`.`.).`.`.`.",
"`.`.`.`._.`._.`.`.`.`.{.].].P.2.> O + + + O + i.}.}.}.}.D   - I.}.B.P.`.`.`.`.`.`.`.`.`.`._.`.`.`.`.",
"`.'.`.`.`.'.`.`.`.`.`.`.].G.e X O O O + + O O a R.}.}.F.0 O + L y.9 p T.].`.[.`.`.{.`.`.`.`.`.`.`.`.",
"`.`.`.`.`.`.`.`.`.`.`.`.~.l O C r.d O O O O O O 9 A c = O O O O . O O p P.`.`.`.`.`.`.`.`.`.`.`.`.`.",
"`.`.`.`.{.`.`.`.`.`.`.~.^.'   _ }.i.O O = _ +.> O   O O + + O O O O O O y P.].`.`.`.`.`.`.`.[.`.`.`.",
"`.`.`.`.`.`.`.`.`.{.^.W.}. .O @ c s O O C }.}.+.O + + O + O + x r.t.A $   p E.`.{.`.`.`.{.`.`.`.`.`.",
"`.`.`.`.'.`.'.`.`.`.w.p.i.9 O O   O O O C }.}.+.O O O O + O C [.}.}.}. .O O S `.`.`.`.`.`.`.`.`.{.`.",
"`.`.`.`.`.`.{.`.`.J.* + X O O x ' 8 O O = ' +.8 O @ - O +   C [.}.}.}.O.O O % D.{.`.`.`.`.`.`.`.`.`.",
"`.`.`.`.`.`.`.`.{.( . O O O d (.}.p.& O O   O O 7 p.H.O.@ O + x r.y.A = O O O ` {.`.`.`.`.`.`.`.`.`.",
"`.`.`.`.`.`.`.`._.w.+.$ . o } N.0.5.] 2 2 g g 1 Y 0.0.1.4 j u 7 5 * X . O O O l `.`.`.`.`.`.`.`.`.`.",
"`.`.`.`.`.`.`.`.~.).I.; q ^ T *.6.7.7.&.! 6.7.! &.6.W ! 5.5.1.&.W Y F < , $ O l `.`.`.`.`.`.`.`.`.`.",
"`.`.`.`.`.`.`.`.).3.0 t 1.7.*.T &.7.7.6.! &.6.E 6.! ! 7.~ E E ! &.&.&.6.5.N . ..`.`.`.`.`.`.].`.).`.",
"`.`.`.`.`.`.)._.`.e.& i 6.7.7.6.E E &.6.&.T ! Q %.T *.E ! 6.6.7.7.6.6.6.| f j Q.`.`.`.`.`.`.`._._.`.",
"[.`.`.`.`.`.^.^.`.].e.k t v | 6.7.&.! E E T a.d.s.:.U &.6.*.1.6.5.1.] f 6 ( Q.`.`.`.`.`.`.`.`.^._.`.",
"`.`.`.`.`.^.`.`.`.`.].!.w.Z i h N ^ I I U R s.z.z.v.%.T T R I 3 2 f i ( D.`.`.`.`.`.`.`.`.`.^.`.`.`.",
"`.`.`.[.`.`.`.`.`.`.].].].`.Q.P.w.X./ m v H z.z.z.v.;.P / ] } 2.w.G.Q.].`.`.`.`.`.`.`.`.`.`.`.`.`.`.",
"`.`.`.`.`.`.`.`.`.`.`.`.`.`.].`.].].`.(.~.N.z.z.z.v.k.Z._.).`.].].].].`.`.`.`.`.`.`.[.`.`.`.`.`.`.`.",
"`.`.`.`.`.`.`.`.[.`.`.`.`.`.`.`.`.`.`.`.].L.z.z.z.z.s.L.].`.`.`.`.].`.`.`.`.`.`.`.`.`.`.`.{.'.`.`.{.",
"`.`.`.[.`.`.`.`.`.`.`.`.`.`.`.`.`.`.`.`.`.V.z.z.z.v.z.J.`.`.`.[.`.`.'.`.`.`.`.`.`.`.`.'.`.`.`.`.`.`.",
"`.`.`.`.`.`.[.`.`.`.`.`.`.].`.].`.`.].`.`.K.z.z.v.z.z.b.`.`.`.`.`.`.`.`.`.`.[.`.`.`.`.`.`.`.`.`.`.`.",
"`.`.{.`.`.`.`.`.`.`.`.].`.G.o.A w.~.^._.].V.z.z.z.v.v.x.(.`.`.`.`.`.].`.`.`.`.`.`.`.{.`.`.`.`.{.`.`.",
"`.`.`.`.{.[.`.`.`.`.`.Q.) - O $ H.}.[.`.^.j.z.z.z.z.z.x.!.].`.`.].].].].].].`.`.`.`.`.`.`.`.`.`.`.{.",
"`.`.`.`.`.`.`.`.`.`.Q.c   O O 8 (.}.}.}.I.b <.v.z.z.v.l.E.`.`.`.`.T.e.4.4.m.Q.].`.`.`.`.`.`.`.`.`.`.",
"`.`.`.`.[.`.`.`.`.`.W. .- + O = S.}.}.}.S.+ w ,.v.z.z.l.U.`.`.~.q.y o . X : y =.(.`.`.`.`.`.`.`.`.`.",
"[.`.`.`.`.`.`.`.`.^.[.}.A   O O 8 u.R.S.d O O w s.v.z.:.Z.].W.~.[.o.+ X _ I.u.5 M !.`.`.`.`.`.`.`.`.",
"`.`.`.`.`.`.`.).).^.}.[.z O O O O @ ; @ + X O O n v.v.;.C.T.B (.}.u.X 0 (.}.}.' O S _.`.`.`.`.`.(.`.",
"`.`.{.`.`.`._.`.D.I._.{ + O + O O + O + o + O + ` v.z.-.A.` . x ) 5 X 9 /.}.}.) O o w.].`.`.].^.`.`.",
"`.`.`.`.`.).`.`.V > 0 + O O O O O O + X @ + O 0 Q.n.z.;.B.5 O O o X + + c p.O.-     V _.`.`.^.`.`.`.",
"`.`.'.`._.).`.Q.9 O O O $ D i.) @ O X + + O O 0 I.x.z.x.q.# O X y = O O O O O r  .a 5 Q.`.^.`.`.`.`.",
"`.`.`.`.`.`.[.I.; O O = y.}.}./.8 O O O O O O O g z.z.x.A._ + + O . o p * .   ' }.o.& P.`.`.`.`.`.`.",
"[.`.`.`.`.`.[.E.8 O O a '.}.'.O.+ = ) { 8 O O X G v.z.b.C.x   o y v K 9.=.J k t p - * T.`.`.`.`.`.`.",
"`.`.`.`.`.`.`.`. .X O @ ) r.d + O +.}.}.H.8 o n f.z.z.j.Y.Z l w.!.L.v.v.v.l.L.T.3.Z 4.`.`.`.`.`.{.`.",
"`.`.`.`.`.`.`.`._.3.d ; % $ o $ w P.!.L.J.@.@.f.v.z.z.J.].).`.].`.b.l.v.l.$.K.].`.].{.`.`.`.`.{.`.`.",
"`.`.`.`.`.`.`.`.`.{.(.T.I.8.@.>.,.l.l.a.a.v.v.z.z.v.g.E.`.[.`.`.`.b.f.v.f.#.V.`.`.].`.`.`.`.`.`.`.`.",
"`.`.`.`.`.`.`.`.`.`.`.`.`.K.z.v.v.v.v.d.d.v.v.v.z.f.g.^.`.`.`.`.].b.v.v.z.z.j.`.`.`.`.`.`.`.`.`.`.`.",
"`.`.`.`.`.`.`.`.`.`.{.`.].b.z.z.v.d.a.d.#.f.v.v.z.#.h.].`.`.`.`.`.h.s.v.z.z.V.`.`.`.`.`.`.`.`.[.{.`.",
"`.`.`.`.`.`.`.`.`.`.`.`.Y.k.z.z.v.z.d.f.~ *.x.x.b.M.(.`.`.`.`.`.].E.5.l.l.g.!.{.`.`.`.`.`.`.`.`.`.`.",
"[.`.`.`.`.`.`.`.`.`.`.`.A.g.k.k.c.l.g.g.E._.^.!._.{.`.`.`.`.`.`.].`.^.E.U.(.`.`.`.`.[.`.`.`.`.`.`.`.",
"`.`.`.`.`.`.`.`.`.`.`.`.].~.!.E.E.E.!.^.{._.`.{.`.`.`.`.`.`.`.`.`.`.`.`.{.`.`.`.`.`.`.`.`.`.`.`.).`.",
"`.`.`.`.`.`.`.^.`.`.`.`.`.`.{.].{.`.{.`.)._.`.`.`.`.`.`.{.`.`.`.`.`.^.`.{.`.`.`.`.`.{.`.`.`.`.`._.`.",
"`.`.[.`.`.`.^.`.`.`.`.`.`.`.`.].`.`.`._.).`.`.`.`.`.{.`.`.`.`.`.`.).).`.`.`.`.[.`.`.`.`.`.`.).(._.`.",
"`.`.`.`.`.)._.`.`.`.`.`.`.`.`.`.`.`._.`.`.`.`.`.`.`.`.`.`.`.`.`.(.`.`.`.`.`.`.`.`.].`.`.`._.).`.`.`.",
"`.`.`.[.`.`.`.`.`.`.`.`.`.`.`.{.`.`._.`.`.`.`.`.`.`.`.`.`.`.`.`._.`.`.`.`.`.`.`.`.`.`.`.`.).`.`.`.`."
};
