/* XPM */
static char *result[] = {
/* columns rows colors chars-per-pixel */
"50 50 179 2 ",
"   c #982938",
".  c #94363D",
"X  c #BE2222",
"o  c #AA2D3C",
"O  c #AF3635",
"+  c #AC3B3A",
"@  c #B43635",
"#  c #BB3434",
"$  c #B43837",
"%  c #B33C3B",
"&  c #BE3A39",
"*  c #DC0B0B",
"=  c #C21E1D",
"-  c #C91D1C",
";  c #DC1413",
":  c #D21E1E",
">  c #DB1A1A",
",  c #D61313",
"<  c #E00505",
"1  c #E11616",
"2  c #E11A1A",
"3  c #C4211F",
"4  c #D1201E",
"5  c #C62121",
"6  c #CC2525",
"7  c #D22525",
"8  c #DA2525",
"9  c #D32A2A",
"0  c #DD2A2A",
"q  c #C43636",
"w  c #C93938",
"e  c #D33535",
"r  c #DA3535",
"t  c #D23B3B",
"y  c #DD3B3A",
"u  c #E62928",
"i  c #E43333",
"p  c #8C3E4E",
"a  c #903D4B",
"s  c #A22D40",
"d  c #AF3149",
"f  c #A83145",
"g  c #B53649",
"h  c #CB3F40",
"j  c #8B4454",
"k  c #AB4948",
"l  c #B64D4D",
"z  c #BB4241",
"x  c #BB5857",
"c  c #935662",
"v  c #B26E6E",
"b  c #BF7473",
"n  c #CE4948",
"m  c #C44C4C",
"M  c #D74746",
"N  c #DB4545",
"B  c #DA4D4D",
"V  c #CE5150",
"C  c #EB4645",
"Z  c #F04C4C",
"A  c #E35453",
"S  c #E15758",
"D  c #EC5D5C",
"F  c #E25857",
"G  c #F75454",
"H  c #C95D6E",
"J  c #C76666",
"K  c #C07675",
"L  c #F0827F",
"P  c #28468F",
"I  c #3D4E83",
"U  c #2E4E9A",
"Y  c #354F92",
"T  c #3F5899",
"R  c #395399",
"E  c #1F4BA8",
"W  c #2E51A5",
"Q  c #3255A5",
"!  c #3E5AA3",
"~  c #3457AC",
"^  c #345AAE",
"/  c #3F5EA9",
"(  c #3A57A2",
")  c #2B58B9",
"_  c #325BB3",
"`  c #335EBB",
"'  c #395EB6",
"]  c #3D60B4",
"[  c #3462BD",
"{  c #3F64BA",
"}  c #43558E",
"|  c #455C9E",
" . c #6D7F9E",
".. c #445CA0",
"X. c #425FA9",
"o. c #4361AC",
"O. c #4964AA",
"+. c #5069AE",
"@. c #4464B3",
"#. c #4C6AB4",
"$. c #4264B9",
"%. c #4569BC",
"&. c #4C6CBD",
"*. c #5E74B2",
"=. c #5B77BE",
"-. c #6376AD",
";. c #6279B7",
":. c #657CBA",
">. c #6276B1",
",. c #3563C5",
"<. c #3965C5",
"1. c #3566CA",
"2. c #396ACB",
"3. c #3669CF",
"4. c #3A6DD3",
"5. c #3C72D4",
"6. c #3D73DC",
"7. c #3D76E3",
"8. c #446CC4",
"9. c #4570CB",
"0. c #406DD0",
"q. c #4774D5",
"w. c #4078DF",
"e. c #4975D5",
"r. c #4077E1",
"t. c #4679E3",
"y. c #517FE1",
"u. c #7784A3",
"i. c #7386B4",
"p. c #7187C1",
"a. c #6383D8",
"s. c #7B93D8",
"d. c #4D81EA",
"f. c #4581ED",
"g. c #5F8DE5",
"h. c #648BE8",
"j. c #6B95E6",
"k. c #799AE7",
"l. c #7CA2E7",
"z. c #76A1F0",
"x. c #91969C",
"c. c #AE8387",
"v. c #ACAEAE",
"b. c #A0A1A3",
"n. c #B4B7B7",
"m. c #F4A7A2",
"M. c #FAB5B0",
"N. c #8395C1",
"B. c #8EA0C6",
"V. c #98A3C1",
"C. c #A4AEC5",
"Z. c #A7B1C7",
"A. c #A7B0C8",
"S. c #B0B8C9",
"D. c #80A2EA",
"F. c #8EB1EA",
"G. c #89AFF6",
"H. c #BDC0C2",
"J. c #B6C7E0",
"K. c #B7C8E6",
"L. c #B7C8EB",
"P. c #C5C7C7",
"I. c #CACDCD",
"U. c #D3D6D6",
"Y. c #D7DBDD",
"T. c #D9DBDA",
"R. c #C9D6E9",
"E. c #D5DCE3",
"W. c #DDE1E3",
"Q. c #DBE2EB",
"!. c #D7E2F5",
"~. c #E2E5E5",
"^. c #E3E6E9",
"/. c #EAECEB",
"(. c #EEF0EC",
"). c #EEF3F4",
"_. c #E7F0F9",
"`. c #F0F5F6",
"'. c None",
/* pixels */
"'.'.'.'.'.'.'.'.'.'.'.'.'.'.'.'.'.'.'.'.'.'.'.'.'.'.'.'.'.'.'.'.'.'.'.'.'.'.'.'.'.'.'.'.'.'.'.'.'.'.",
"'.'.'.'.'.'.'.'.'.'.'.'.'.'.'.'.'.'.'.'.'.'.'.'.'.'.'.'.'.'.'.'.'.'.'.'.'.'.'.'.'.'.'.'.'.'.'.'.'.'.",
"'.'.'.'.'.'.'.'.'.'.'.'.'.'.'.'.'.'.'.'.'.'.'.'.'.'.'.'.'.'.'.'.'.'.'.'.'.'.'.'.'.'.'.'.'.'.'.'.'.'.",
"'.'.'.'.'.'.'.'.'.'.'.'.'.'.'.'.'.'.'.'.'.'.'.'.'.'.'.'.'.'.'.'.'.'.'.'.'.'.'.'.'.'.'.'.'.'.'.'.'.'.",
"'.'.'.'.'.'.'.'.'.'.'.'.'.'.'.'.'.'.'.'.'.'.'.'.'.'.'.'.'.'.'.'.'.'.'.'.'.'.'.'.'.'.'.'.'.'.'.'.'.'.",
"'.'.'.'.'.'.'.'.'.'.'.'.'.'.'.'.'.'.'.'.'.'.'.'.'.'.'.'.'.'.'.'.'.'.'.'.'.'.'.'.'.'.'.'.'.'.'.'.'.'.",
"'.'.'.'.'.'.'.'.'.'.'.'.'.'.'.'.'.'.'.'.'.'.'.'.'.'.'.'.'.'.'.'.'.'.'.'.'.'.'.'.'.'.'.'.'.'.'.'.'.'.",
"'.'.'.'.'.'.'.'.'.'.'.'.'.'.'.'.'.'.'.'.'.'.'.'.'.'.'.'.'.'.'.'.'.'.'.'.'.'.'.'.'.'.'.'.'.'.'.'.'.'.",
"'.'.'.'.'.'.'.'.'.'.'.'.'.'.'.'.'.'.'.'.'.'.'.'.'.'.'.'.'.'.'.'.'.'.'.'.'.'.'.'.'.'.'.'.'.'.'.'.'.'.",
"'.'.'.'.'.'.'.'.'.'.'.'.'.'.'.'.'.'.'.'.'.'.'.'.'.'.'.'.'.'.'.'.'.'.'.'.'.'.'.'.'.'.'.'.'.'.'.'.'.'.",
"'.'.'.'.'.'.'.'.'.'.'.'.'.'.'.'.'.'.'.'.'.'.'.'.'.'.'.'.'.'.'.'.'.'.'.'.'.'.'.'.'.'.'.'.'.'.'.'.'.'.",
"'.'.'.'.'.'.'.'.'.'.'.'.'.'.'.'.'.'.'.'.'.'.'.'.'.'.'.'.'.'.'.'.'.'.'.'.'.'.'.'.'.'.'.'.'.'.'.'.'.'.",
"'.'.'.'.'.'.'.'.'.'.'.'.'.'.'.'.'.'.'.'.'.'.'.'.'.'.'.'.'.'.'.'.'.'.'.'.'.'.'.'.'.'.'.'.'.'.'.'.'.'.",
"'.'.'.'.'.'.'.'.'.'.'.'.'.'.'.'.'.'.'.'.'.'.'.'.'.'.'.'.'.'.'.'.'.'.'.'.'.'.'.'.'.'.'.'.'.'.'.'.'.'.",
"'.'.'.'.'.'.'.'.'.'.'.'.'.'.'.'.'.'.'.'.'.'.'.'.'.'.'.'.'.'.'.'.'.'.'.'.'.'.'.'.'.'.'.'.'.'.'.'.'.'.",
"'.'.'.'.'.'.'.'.'.'.'.'.'.'.'.'.'.'.'.'.'.'.'.'.'.'.'.'.'.'.'.'.'.'.'.'.'.'.'.'.'.'.'.'.'.'.'.'.'.'.",
"'.'.'.'.'.'.'.'.'.'.M N N B B B B B B B B B B B C H N.D.L.R.!.^.~.~.~.~.T.U.P.'.'.'.'.'.'.'.'.'.'.'.",
"'.'.'.'.'.'.'.'.'.0 0 0 y S F F S S S S S S S A G H y.h.h.D.G.G.!._.`.`.).^.E.I.n.'.'.'.'.'.'.'.'.'.",
"'.'.'.'.'.'.'.'.> < > u r r r r r r r y r r r r u g $.q.e.t.t.y.j.z.Q.(./.^.W.T.P.v.'.'.'.'.'.'.'.'.",
"'.'.'.'.'.'.'.8 1 C D i 7 7 7 6 7 7 7 7 7 7 7 6 u d ~ w.1.3.7.4.1.2.F.K.R.R.E.T.U.P.b.'.'.'.'.'.'.'.",
"'.'.'.'.'.'.'.> C M.m.r 9 7 9 9 7 7 6 7 7 7 6 9 u o $.<.r.<.<.w.1.,.7.e.d.h.l.J.R.Y.v.'.'.'.'.'.'.'.",
"'.'.'.'.'.'.'.1 D L F 9 7 7 6 6 6 6 6 6 6 6 6 6 8 f Q ` ) Q 2.,.[ 6.3.7.q.f.<.5.k.L.n.'.'.'.'.'.'.'.",
"'.'.'.'.'.'.: * i > > 9 3 5 5 3 5 5 5 5 5 5 5 = : o Q 4.` 1._ 1.,._ ,.` ` 1.Q E 2.k.N.x.'.'.'.'.'.'.",
"'.'.'.'.'.'.: * ; , : 3 = 3 3 3 = = = = = = = = =   ' P _ ,.,.` ,.` 4.` 5.,.4.) 3.,.9.u.'.'.'.'.'.'.",
"'.'.'.'.'.'.'.8 r 9 4 3 5 5 5 X X X X X X = X X =   Y W _ _ ~ ^ [ ~ Q [ Q U _ <.` ` #.'.'.'.'.'.'.'.",
"'.'.'.'.'.'.'.e r e w q # # # # # # # # # # # @ # . I %.$.$.( 8.{ 9.{ 8.( %.8.@.] 8.*.'.'.'.'.'.'.'.",
"'.'.'.'.'.'.'.h w t w q & # # # # # $ # @ @ $ @ @ a | ( o.X.8.R ..@.@.' 8./ ! &.&.&.u.'.'.'.'.'.'.'.",
"'.'.'.'.'.'.'.'.V n h $ $ $ $ $ $ @ @ @ @ @ $ $ O p } X.@.%.o.O.%.@.@.T ..&.@.8.=.i.'.'.'.'.'.'.'.'.",
"'.'.'.'.'.'.'.'.'.J m z z % % g % % % % $ $ + + + j | #.O.#...O.#.O.#.#.#.&.+.:.N.'.'.'.'.'.'.'.'.'.",
"'.'.'.'.'.'.'.'.'.'.J J l l l l l l l l l l l l k c -.-.*.:.*.*.:.*.:.>.>.p.N.V.'.'.'.'.'.'.'.'.'.'.",
"'.'.'.'.'.'.'.'.'.'.'.'.b b b b b b b b b K b b v c.C.C.Z.Z.Z.Z.A.Z.Z.Z.A.S.'.'.'.'.'.'.'.'.'.'.'.'.",
"'.'.'.'.'.'.'.'.'.'.'.'.'.'.'.'.'.'.'.'.'.'.'.'.'.'.'.'.'.'.'.'.'.'.'.'.'.'.'.'.'.'.'.'.'.'.'.'.'.'.",
"'.'.'.'.'.'.'.'.'.'.'.'.'.'.'.'.'.'.'.'.'.'.'.'.'.'.'.'.'.'.'.'.'.'.'.'.'.'.'.'.'.'.'.'.'.'.'.'.'.'.",
"'.'.'.'.'.'.'.'.'.'.'.'.'.'.'.'.'.'.'.'.'.'.'.'.'.'.'.'.'.'.'.'.'.'.'.'.'.'.'.'.'.'.'.'.'.'.'.'.'.'.",
"'.'.'.'.'.'.'.'.'.'.'.'.'.'.'.'.'.'.'.'.'.'.'.'.'.'.'.'.'.'.'.'.'.'.'.'.'.'.'.'.'.'.'.'.'.'.'.'.'.'.",
"'.'.'.'.'.'.'.'.'.'.'.'.'.'.'.'.'.'.'.'.'.'.'.'.'.'.'.'.'.'.'.'.'.'.'.'.'.'.'.'.'.'.'.'.'.'.'.'.'.'.",
"'.'.'.'.'.'.'.'.'.'.'.'.'.'.'.'.'.'.'.'.'.'.'.'.'.'.'.'.'.'.'.'.'.'.'.'.'.'.'.'.'.'.'.'.'.'.'.'.'.'.",
"'.'.'.'.'.'.'.'.'.'.'.'.'.'.'.'.'.'.'.'.'.'.'.'.'.'.'.'.'.'.'.'.'.'.'.'.'.'.'.'.'.'.'.'.'.'.'.'.'.'.",
"'.'.'.'.'.'.'.'.'.'.'.'.'.'.'.'.'.'.'.'.'.'.'.'.'.'.'.'.'.'.'.'.'.'.'.'.'.'.'.'.'.'.'.'.'.'.'.'.'.'.",
"'.'.'.'.'.'.'.'.'.'.'.'.'.'.'.'.'.'.'.'.'.'.'.'.'.'.'.'.'.'.'.'.'.'.'.'.'.'.'.'.'.'.'.'.'.'.'.'.'.'.",
"'.'.'.'.'.'.'.'.'.'.'.'.'.'.'.'.'.'.'.'.'.'.'.'.'.'.'.'.'.'.'.'.'.'.'.'.'.'.'.'.'.'.'.'.'.'.'.'.'.'.",
"'.'.'.'.'.'.'.'.'.'.'.'.'.'.'.'.'.'.'.'.'.'.'.'.'.'.'.'.'.'.'.'.'.'.'.'.'.'.'.'.'.'.'.'.'.'.'.'.'.'.",
"'.'.'.'.'.'.'.'.'.'.'.'.'.'.'.'.'.'.'.'.'.'.'.'.'.'.'.'.'.'.'.'.'.'.'.'.'.'.'.'.'.'.'.'.'.'.'.'.'.'.",
"'.'.'.'.'.'.'.'.'.'.'.'.'.'.'.'.'.'.'.'.'.'.'.'.'.'.'.'.'.'.'.'.'.'.'.'.'.'.'.'.'.'.'.'.'.'.'.'.'.'.",
"'.'.'.'.'.'.'.'.'.'.'.'.'.'.'.'.'.'.'.'.'.'.'.'.'.'.'.'.'.'.'.'.'.'.'.'.'.'.'.'.'.'.'.'.'.'.'.'.'.'.",
"'.'.'.'.'.'.'.'.'.'.'.'.'.'.'.'.'.'.'.'.'.'.'.'.'.'.'.'.'.'.'.'.'.'.'.'.'.'.'.'.'.'.'.'.'.'.'.'.'.'.",
"'.'.'.'.'.'.'.'.'.'.'.'.'.'.'.'.'.'.'.'.'.'.'.'.'.'.'.'.'.'.'.'.'.'.'.'.'.'.'.'.'.'.'.'.'.'.'.'.'.'.",
"'.'.'.'.'.'.'.'.'.'.'.'.'.'.'.'.'.'.'.'.'.'.'.'.'.'.'.'.'.'.'.'.'.'.'.'.'.'.'.'.'.'.'.'.'.'.'.'.'.'.",
"'.'.'.'.'.'.'.'.'.'.'.'.'.'.'.'.'.'.'.'.'.'.'.'.'.'.'.'.'.'.'.'.'.'.'.'.'.'.'.'.'.'.'.'.'.'.'.'.'.'.",
"'.'.'.'.'.'.'.'.'.'.'.'.'.'.'.'.'.'.'.'.'.'.'.'.'.'.'.'.'.'.'.'.'.'.'.'.'.'.'.'.'.'.'.'.'.'.'.'.'.'."
};
