/* XPM */
static char *cbcada64ee2e4b75a8e8c2d1a06b4081U3FhbTsR52q4VSVN[] = {
/* columns rows colors chars-per-pixel */
"50 50 256 2 ",
"   c black",
".  c #010101",
"X  c #020202",
"o  c gray1",
"O  c #040404",
"+  c gray2",
"@  c #060606",
"#  c #070707",
"$  c gray3",
"%  c #090909",
"&  c gray4",
"*  c #0B0B0B",
"=  c #0C0C0C",
"-  c gray5",
";  c #0E0E0E",
":  c gray6",
">  c #101010",
",  c #111111",
"<  c gray7",
"1  c #131313",
"2  c gray8",
"3  c #151515",
"4  c #161616",
"5  c gray9",
"6  c #181818",
"7  c #191919",
"8  c gray10",
"9  c #1B1B1B",
"0  c gray11",
"q  c #1D1D1D",
"w  c #1E1E1E",
"e  c gray12",
"r  c #202020",
"t  c gray13",
"y  c #222222",
"u  c #232323",
"i  c gray14",
"p  c #252525",
"a  c gray15",
"s  c #272727",
"d  c #282828",
"f  c gray16",
"g  c #2A2A2A",
"h  c gray17",
"j  c #2C2C2C",
"k  c #2D2D2D",
"l  c gray18",
"z  c #2F2F2F",
"x  c gray19",
"c  c #313131",
"v  c #323232",
"b  c gray20",
"n  c #343434",
"m  c #353535",
"M  c gray21",
"N  c #373737",
"B  c gray22",
"V  c #393939",
"C  c #3A3A3A",
"Z  c gray23",
"A  c #3C3C3C",
"S  c gray24",
"D  c #3E3E3E",
"F  c #3F3F3F",
"G  c gray25",
"H  c #414141",
"J  c gray26",
"K  c #434343",
"L  c #444444",
"P  c gray27",
"I  c #464646",
"U  c gray28",
"Y  c #484848",
"T  c #494949",
"R  c gray29",
"E  c #4B4B4B",
"W  c #4C4C4C",
"Q  c gray30",
"!  c #4E4E4E",
"~  c gray31",
"^  c #505050",
"/  c #515151",
"(  c gray32",
")  c #535353",
"_  c gray33",
"`  c #555555",
"'  c #565656",
"]  c gray34",
"[  c #585858",
"{  c gray35",
"}  c #5A5A5A",
"|  c #5B5B5B",
" . c gray36",
".. c #5D5D5D",
"X. c gray37",
"o. c #5F5F5F",
"O. c #606060",
"+. c gray38",
"@. c #626262",
"#. c gray39",
"$. c #646464",
"%. c #656565",
"&. c gray40",
"*. c #676767",
"=. c #686868",
"-. c DimGray",
";. c #6A6A6A",
":. c gray42",
">. c #6C6C6C",
",. c #6D6D6D",
"<. c gray43",
"1. c #6F6F6F",
"2. c gray44",
"3. c #717171",
"4. c #727272",
"5. c gray45",
"6. c #747474",
"7. c gray46",
"8. c #767676",
"9. c #777777",
"0. c gray47",
"q. c #797979",
"w. c gray48",
"e. c #7B7B7B",
"r. c #7C7C7C",
"t. c gray49",
"y. c #7E7E7E",
"u. c gray50",
"i. c #808080",
"p. c #818181",
"a. c gray51",
"s. c #838383",
"d. c #848484",
"f. c gray52",
"g. c #868686",
"h. c gray53",
"j. c #888888",
"k. c #898989",
"l. c gray54",
"z. c #8B8B8B",
"x. c gray55",
"c. c #8D8D8D",
"v. c #8E8E8E",
"b. c gray56",
"n. c #909090",
"m. c gray57",
"M. c #929292",
"N. c #939393",
"B. c gray58",
"V. c #959595",
"C. c gray59",
"Z. c #979797",
"A. c #989898",
"S. c gray60",
"D. c #9A9A9A",
"F. c #9B9B9B",
"G. c gray61",
"H. c #9D9D9D",
"J. c gray62",
"K. c #9F9F9F",
"L. c #A0A0A0",
"P. c gray63",
"I. c #A2A2A2",
"U. c gray64",
"Y. c #A4A4A4",
"T. c #A5A5A5",
"R. c gray65",
"E. c #A7A7A7",
"W. c gray66",
"Q. c #A9A9A9",
"!. c #AAAAAA",
"~. c gray67",
"^. c #ACACAC",
"/. c gray68",
"(. c #AEAEAE",
"). c #AFAFAF",
"_. c gray69",
"`. c #B1B1B1",
"'. c #B2B2B2",
"]. c gray70",
"[. c #B4B4B4",
"{. c gray71",
"}. c #B6B6B6",
"|. c #B7B7B7",
" X c gray72",
".X c #B9B9B9",
"XX c gray73",
"oX c #BBBBBB",
"OX c #BCBCBC",
"+X c gray74",
"@X c gray",
"#X c gray75",
"$X c #C0C0C0",
"%X c #C1C1C1",
"&X c gray76",
"*X c #C3C3C3",
"=X c gray77",
"-X c #C5C5C5",
";X c #C6C6C6",
":X c gray78",
">X c #C8C8C8",
",X c gray79",
"<X c #CACACA",
"1X c #CBCBCB",
"2X c gray80",
"3X c #CDCDCD",
"4X c #CECECE",
"5X c gray81",
"6X c #D0D0D0",
"7X c gray82",
"8X c #D2D2D2",
"9X c LightGray",
"0X c gray83",
"qX c #D5D5D5",
"wX c gray84",
"eX c #D7D7D7",
"rX c #D8D8D8",
"tX c gray85",
"yX c #DADADA",
"uX c gray86",
"iX c gainsboro",
"pX c #DDDDDD",
"aX c gray87",
"sX c #DFDFDF",
"dX c gray88",
"fX c #E1E1E1",
"gX c #E2E2E2",
"hX c gray89",
"jX c #E4E4E4",
"kX c gray90",
"lX c #E6E6E6",
"zX c #E7E7E7",
"xX c gray91",
"cX c #E9E9E9",
"vX c #EAEAEA",
"bX c gray92",
"nX c #ECECEC",
"mX c gray93",
"MX c #EEEEEE",
"NX c #EFEFEF",
"BX c gray94",
"VX c #F1F1F1",
"CX c gray95",
"ZX c #F3F3F3",
"AX c #F4F4F4",
"SX c gray96",
"DX c #F6F6F6",
"FX c gray97",
"GX c #F8F8F8",
"HX c #F9F9F9",
"JX c gray98",
"KX c #FBFBFB",
"LX c gray99",
"PX c #FDFDFD",
"IX c #FEFEFE",
"UX c white",
/* pixels */
"s.&     $.GXUXUX^.%     I AXUXUX>X>     h vXUXUXdXe     4 qXUXUXBXN     = oXUXUXFX`     # H.UXUXDXu.",
"FXa.#   # m.UXUXFXX.    & [.UXUXVXC     3 qXUXUXfXw     h bXUXUX-X;     W SXUXUXI.$   . 2.GXUXHXu.% ",
"UXJXa.3 : u |.BXVX:Xg : - | cXNXBXq.; > 5 '.CXBX0Xh : - ! xXNXVXh.: > 4 T.CXNXwXV ; : R pXBXvXu.@   ",
"UXUXbXi.*X3X7X-.z x ~ =X3X5X5.z c R #X3X4Xe.x c P XX4X5Xd.c v G {.4X5Xx.x v Z _.5X6XC.z v Z y.2     ",
"H.GXBXZ u.LXUX=Xw   % T.UXUX).@   ; >XUXUXm.    0 hXUXUX1.    N CXUXHX~     } DXUXfXZ   o y.*X: # $.",
"# 2.pXv o u.CXLXE.3 X l eXLXNXW o o a.LXPX'.* o u iXLXAX! X o t.LXLX].> o d 8XPXvX[ o - y.LX3Xu m.GX",
"  . R z   - i._ K W (..X'.( U ^ ~.|./.' U ` Q. XQ.' U ' !. XQ.( Y _ _. X/.Q I / ].OX~.y.CXUX7X|.UXUX",
"    : Z.Z o ^.p.X # B.UXDX{   &  XUXCXM   1 rXUXjX9   s nXUX,X;   U SXUXR.%   :.FXPXy.) LX=X-.BXUXUX",
"` $ ; 6XfX[ OXIXp.$ , ^.UXeXf   Q AXUXu.  @ }.UXfXw   T HXUXi.  * '.UXeXd   ( mXFXy.. K R.w z VXFX~.",
"FXI.V 5XUXvX].FXGXu.v.[.N.O.~ m.T.n.@.o.n.J.g.@.;.V.G.q.+.1.L.H.1.} <._.K.>.E 3.u.# $ W 3   x :XX.% ",
"UXUXwX_.DXPX/ :.mX2.y.PX=X0 @ R.UX(.O - ,XUXn.  9 jXUX1.  M CXKX/   { HXhXZ X p.b.< B.(.X % ~ g     ",
"UXUXBXZ } 8XI   ( E . y.JX_., i eXJX!   y.UX|.. 9 jXIXY   p.UX`.+ d uXMX~ + p.IX[./.UX.Xl T.=X:     ",
"oXSXCXv   d Q %   >.Z O u.h.U 8.~.l.O.6.N.k.9.w.i.u.f.j.8.>.z.K.7.) k.|.9.u.KX=XN.UXDX'.eXUX3X- & I ",
"= W T.x   o /.R.d K.hX~ 0.p.: N.DX{ $  XSXm > yXlX7 a NX<X& I FXR.% >.BXy.h._.0 O.eX{ ( LXUX5X| [.AX",
"    4 x.~ >  XUXeX_.HXMX|.BXp.6 ^.yXa U GXa.   XxX5 U UXt.# |.tXp ) lXy.: U , # ~ f   U NX).5.cXUXUX",
"    > 5XHX]._.SXUX<.{ uXk.>.zXi.e..X .&.!.r.o.n.C.-.1.L.a._ S.U.P d.u.6 N.8.i E.m.  & ^ W @ z NXUXUX",
"B ; : 4XUXLX_ U '.}   d ) % ) s.y.@Xk I.'.7 ,XM.q gX,.M lXQ ..8XH p.e.^.DX^.eXUXY.Q  X~.o   c BXVX>X",
"BX;Xh.{.CXLXY   * 1./ + 7.R.p I G y.I.S 1XQ u.|.u iXY i.`.n &X .p.@X.XyX{ l.JX(.n.AXUX|.o ; R q.C > ",
"UXUXVXG N t.( ;   H.KX`.K.FXtXU.8X| u.+.c.s.,.J.} T.+.M.r.3.J.i.U.k  .a $ O.! O @.UXCX^.a.>X#X;     ",
"UXUXNXv   o Q.,Xi.L.CXUXz.I |.S...&XK.p.z.>.H.[ /.( E.@.B.6.y.O.S U.&.U  X6.  - o.u.M ' LXUX3X>     ",
"qXbXxXc   X  XUXUX1.M p.>.& # _ Q n 3.6.i.z.9.e.M.,.d.j.6.y.z.v.1X'.!.GXSXN.y.,Xn.    U PXUX5X5 3 h ",
"4 h ! d.1.! !.nXHX+.    8.<Xt.a.lX`.r.B.6.i.u.p.a.t.y.i.y.l.>.s.Q 7 r.a.m k.UXUXJ.@ 1 ` '.n.e.].qXvX",
"    - 5XUXAX' s T q.1.Y j.NXUXL.M i.M.@.j.i.y.u.u.i.i.i.u.9.H.,.u.,Xo.  > 9.|.n.g.}.rXQ.*   x CXUXUX",
"    : 4XUXLXU     G.UXIXf.a U 1.,.Y +.E.d.y.i.y.y.p.i.u.p.e.[ J.|.M.n. XyXw..   @.UXUX Xo   c BXUXUX",
"e w h XXhXiX' 9 w V.jXjXu.7 5 -.gXiXT.( ,.t.i.i.y.i.u.u.a.M./.} u q C.xXlXi.9 9 ;.fXjXQ.u 0 P 0XfXdX",
"dXfX0XP 0 u Q.jXfX;.9 9 i.lXxXC.q u } /.M.a.u.u.y.y.i.i.t.,.( T.iXgX-.5 7 u.jXjXV.w 9 ' iXhXXXh w e ",
"UXUXBXc   o  XUXUX@.  . w.yX Xn.M.|.J.[ e.p.y.y.i.u.y.i.y.d.E.+.Y ,.1.U a f.IXUXG.    U LXUX4X:     ",
"UXUXCXx   * Q.rX}.g.n.|.9.>   o.,Xu.,.H.9.u.y.i.i.u.u.y.u.j.+.M.i.M L.UXNXj.Y 1.q.T s ' AXUX5X-     ",
"vXqX].e.n.'.` 1 @ J.UXUXk.m a.r.7 Q s.>.l.y.i.y.t.a.p.u.y.5.N.r.`.lXa.t.<X8.    +.HXnX!.! 1.d.! h 4 ",
"h 3 5 5XUXPXU     n.,Xy.N.SXGX!.'.1Xc.l.y.6.j.d.,.M.e.9.l.y.6.3.n Q _ # & >.p.M 1.UXUX XX   c xXbXqX",
"    > 3XUXLX' M u.o.-   6. XU &.U.S O.y.6.B.+.E.( /.[ H.>.z.y.J.&X..S.|.I z.UXCXL.i.,XQ.o   v NXUXUX",
"    ; #X>Xa./.CXUX@.O ! O.$ a  .k U.y.J.3.r.M.+.T.} J.,.s.v.O.y.| 8XU.tXFXK.`.KXH.  ; ( t.N G VXUXUX",
"> C q.R ; o |.UXAXn.(.JXl.{ yXXX@Xy.| &Xn `.i.Y iXu |.u.Q 1XS U.y.G P p R.7.+ / 1.*   Y LXCX{.h.;XBX",
">XVXBXc   o ~. XQ T.UXeX^.DX^.e.y.G 8X..Q lXM ,.gXq M.,X7 '.U.k @Xy.s.) % ) d   } '.U _ LXUX4X: ; B ",
"UXUXNXz @ W ^ &   m.E.i 8.N.6 y.s.I U.S._ a.L.1.-.C.n.o.r.!.&. ..Xe.y.zX>.k.uX{ <.UXSX_.].HX5X>     ",
"UXUXcX5.).NXU   f ~ # , U : y.zX) p tX|.# t.UXU 5 xX X  a.GXU a yX^.6 y.BX|.MXHX_.wXUX X> ~ x.4     ",
"AX[.| 5XUXLX( { eXO.0 _.h.y.BX>.% R.FXI & <XNXa 7 lXyX> m SX X$ { DXN.: y.9.~ hXK.d R./.o   x T.W = ",
"I & - 3XUXeX'.DXUXN.=XJXy.9.|.k.) 7.K.z.>.8.j.f.u.i.w.9.k.N.6.O.l.^.8.U h.y.O Z >.  % W d   v CXSXoX",
"    : =XT.l .XUX/.[.PXy.O ~ MXuXd + `.UXp.  Y IXjX9 . |.UXy.  ! JXeXi , _.JXy.. E (   I 8X} Z BXUXUX",
"    g ~ % X (.B.< v.y.. Z hXHX{   / KXCXM   1.UXjX9   n.UX,X- O (.UXE.# 0 =XPXy.2.MX:./ PXDX_.wXUXUX",
"% X.:Xx   3 W $ # y.2.E >.K._.<.} 1.H.L.1.+.q.G.V.;.@.g.J.n.o.@.n.T.m.~ O.N.[.v.y.FXFX].vXUX5XV I.FX",
"~.FXVXz w E.K . y.FXMX(   d eXUX'.*   i.UXHXT   w fXUX}.@   u.UXAXQ   f eXUX^.< # y.PXOX[ fX6X; $ ` ",
"UXUXBX-.=XLX) y.PXFX:.  % R.UXSXU   ; ,XUXnXs   9 jXUXrX1   M CXUX X&   { DXUXB.# . y.~.o Z Z.:     ",
"UXUX|.7XUXCXu.~.OX]./ I Q /. X_._ Y ( Q. X!.' U ' Q. XQ.` U ' /.|.~.^ U ( '..X(.E K ) y.-   z R .   ",
"GXm.u 3XLXp.- o [ vXPX8Xd o > ].LXLXt.o X ! AXLXiXu o * '.PXLXa.o o W NXLXeXl X 3 R.LXCXy.o v pX2.# ",
"$.# : =Xp.o   Z fXUXDX}     ~ HXUXCXN     1.UXUXhX0     m.UXUX>X;   @ ).UXUXT.%   w =XUXLXy.Z BXGXH.",
"    3 p.A v z C.6X5X_.Z v x x.5X4X{.G v c d.5X4XXXP c x e.4X3X#XR c z 5.5X3X=X~ x z -.7X3X*Xy.vXUXUX",
"  @ u.bXBXpXR : ; V wXNXCXT.4 > : h.VXNXxX! - : h 0XBXCX'.5 > ; q.BXNXcX| - : g :XVXBX|.u : 2 u.HXUX",
"% u.HXUXGX2..   $ I.UXUXSXW     ; -XUXUXbXh     w fXUXUXqX3     C VXUXUX[.&     o.FXUXUXm.#   @ u.DX",
"u.DXUXUXH.#     ` FXUXUXoX=     B BXUXUXqX4     e dXUXUXvXh     > >XUXUXAXI     % ^.UXUXGX$.    % u."
};
