/* XPM */
static char *e93c80ca64294968da2217de891a7cfbcTALCb8frcbLmZ8t[] = {
/* columns rows colors chars-per-pixel */
"50 50 48 1 ",
"  c #ADADAB",
". c #B1B1AF",
"X c #AFB0B4",
"o c #B5B5B4",
"O c #B8B7B6",
"+ c #B7B8B3",
"@ c #B9B9B6",
"# c #B6B6B9",
"$ c #BAB7B8",
"% c #B6B9BC",
"& c #BCBCBC",
"* c #C1BEBD",
"= c #C2C1BE",
"- c #BCBDC2",
"; c #C1BEC3",
": c #BEC0C5",
"> c #BFC2C9",
", c #C4C4C2",
"< c #C8C7C5",
"1 c #C7C8C3",
"2 c #CAC9C6",
"3 c #C5C4CA",
"4 c #C9C7CA",
"5 c #C7C9CD",
"6 c #CCCBCB",
"7 c #D0CECE",
"8 c #D1D1CE",
"9 c #C7CAD3",
"0 c #CDCDD2",
"q c #CECFD8",
"w c #D1CFD1",
"e c #CFD0D3",
"r c #CDD0D9",
"t c #D4D4D3",
"y c #D8D7D3",
"u c #D9D9D6",
"i c #D4D5DA",
"p c #D7D8DC",
"a c #DBDBDC",
"s c #E0E0DE",
"d c #DDDDE2",
"f c #DFE0E5",
"g c #E3E3E3",
"h c #E4E4E9",
"j c #E7E8ED",
"k c #E9E9EB",
"l c #ECECF1",
"z c #F1F1F3",
/* pixels */
"q9qqqqqiiiiiiiwwww;w2222*;=<=<<=8===y=====22222211",
"irqqdqq9iq;qi;ww;ww;2222*2<*<*====8=8=2=8===1===11",
"qrrdiiq0iw;0;iww72;;=22=*==<==<====2=8==1==1111=22",
"99qriq00q;wqi;;;;2;22===<*<*<<*<========1==1222122",
"rqqq;9;;;;;;;;;*2;=2**===,==<=<<=====2=<221111=*y2",
"qq;;;9;9;;;9w;;**22==***====*<<=======<<211=111112",
";>;;;999;;;;;;;;2***********==**=====2,<1===12281=",
"999;9;;;;;;;;;;*********@*****=*=*=====*2222122222",
"->9-353o#-;;$;;;*&&*==****@&@**=,<22,,2772<<266222",
"----%:-###$$*$**@@@*===*==,=,,<2*,<,,=;<66<<262222",
"----%%-:###$$***++@*=,,===,,,<<,*;<3;;<4<654155222",
"---9-#%3&$##O*O*@@@*,,,=*===,=,=;<322<27<2621,1822",
"-----XX&;&$$$&*O&*&*,,===,,<<2<<2244427w42661152y2",
"-----XX#;-&&&;****===,=*<<<222626447774446776582y2",
"-----X-%&&&&&*,<===<<<==2<<<<26777747747777w88882y",
"--XXX--%o$&&**27,==,<<<=76222267www7ww76ww4wyt8>22",
"+&&%@&==@&&===*-*,,,,,<,e6656866188888812886>818yy",
"+++++&&+======1<,2<3,53,626688062>88868>uy8188yu8t",
"+++.+=&+++@&===,,3<33225,58ee88888888866uy8>tyyyua",
"+@&++=&@&====152:,,,<526368ttttit8t88t8y888yuu8>22",
".&==&=&&=====111<<151525168e88tut8tyuyuu8yuuuut8us",
" %1=&&====&&--=,e6666<26566660tt888ytttt8yu888tu8=",
".@=-&:1565552660866e625686688te8ttyutt88y88888u88y",
"%&&%&156111132265,16e66ttttyiie8uuuuut86utuusau888",
"&=--=,,:,,,<5et666eete87i6,5tpsgytyy8uty68yuuyytyy",
"11,==1665232662286623226e8ett868tt8ytttt88tyytt8y8",
">1::,35260006655t666207816tutt8etttyytty88tyyuyy8y",
"%-,55,3,56tt066ete6tttppe66tttuauytt8uttttuuuuuayy",
"&34w605<46ttt00t268ettitstttiiuututtytttuytuuuuuyy",
"344456060ww0060q6ettttttatetaatttuutttttttytyyuu=8",
"34335500iiwwtwtttttttututttusaaayuytt8t88tytyyyyyy",
"3350ww55piq0iiiitttttupaapupupagyytytyt8ttuusyyyy=",
"655tteef0etrtttpwwaadadgidwhigiuyaywyggy7yayyuag8u",
"teqtt55t0etrettriiadduudwayhdlggaaayussyyyyassaayu",
"t8ete55e0ttppttiapadauiiiawsasasusausgaysayyauyyty",
"6550eetpttaappppaadgdaaaaaiiwiiwusaaasaysayauay78y",
"05eeettutppddaapuuadaaudaipiaaggassssssysssssaaaia",
"iteeeeeetpdpapatiiaaaiiasagpdadgasggssssssssaaaays",
"iieeirirpppfppppuiiaaiiahskagwdusasssssssyyuaayy8u",
"eeeeiaaapdfpfppfgdaaaiagsdkahaggayuasyssssyyasyyys",
"qdiq9dddrfffprffpadsdhgsafkkgspussssssskuyyasssuyu",
"qdqi9ddrtfpfppffdsaadsghggggdddgusssysssgsayasssyy",
"diqqqfddpffffpffdgsdddghfdsfddggssysssssgsssaasssa",
"ddqdqfrdfffffpfpddggggdaaadgsssassssssssassssayyss",
"dd9drhrfdjfhfffdddggggdddsdggfdassssskssusskssuyss",
"idqdrffhrhdfffjfhgdddgsgkhggggggssssskkssssssssssa",
"qhdfrfffrhdfhfjfkhgggggkkhggghgsksssssskkssssssssa",
"ihff9fffdhdfffhrghkkkkkgdghkkkgasssksssssssskssyks",
"qqhqfddfidlhdjhjhfhikdggkkhdggklkssusslkssugskykuu",
"iqhifdddhflddjjlhhjdzhhgggggghklkkkysskskssgakukus"
};
