/* XPM */
static char *b26e5462606b4a43d8a674f060d9172aVsq6nNrnqeTVgWvk[] = {
/* columns rows colors chars-per-pixel */
"50 50 127 2 ",
"   c gray97",
".  c gray96",
"X  c gray91",
"o  c #F8F8F8",
"O  c #F3F3F3",
"+  c #EAEAEA",
"@  c #F9F9F9",
"#  c #F6F6F6",
"$  c #F1F1F1",
"%  c gray92",
"&  c gray94",
"*  c #ECECEC",
"=  c #EEEEEE",
"-  c gray98",
";  c #F4F4F4",
":  c gray95",
">  c gray93",
",  c #EFEFEF",
"<  c #E6E6E6",
"1  c #E7E7E7",
"2  c #E9E9E9",
"3  c gray89",
"4  c gray90",
"5  c #E2E2E2",
"6  c #E1E1E1",
"7  c gray88",
"8  c gray87",
"9  c #FBFBFB",
"0  c #E4E4E4",
"q  c #DDDDDD",
"w  c #DFDFDF",
"e  c #E7E7E8",
"r  c #F1F1F2",
"t  c #F6F6F5",
"y  c #F3F3F2",
"u  c #EDEDEC",
"i  c #F5F6F5",
"p  c #FAFAF9",
"a  c #EFEFEE",
"s  c #E8E8E9",
"d  c #E4E4E5",
"f  c #E5E5E6",
"g  c #EBEBED",
"h  c #EEEEEF",
"j  c #F0F1F0",
"k  c #E2E1E3",
"l  c #F1F1F0",
"z  c #E2E2E4",
"x  c #EAEAEC",
"c  c #EFEFF0",
"v  c #ECEBEC",
"b  c #ECECED",
"n  c #EDEDEE",
"m  c #EBEAEC",
"M  c #EAEAEB",
"N  c #FAFBFA",
"B  c #ECECEB",
"V  c #F8F7F8",
"C  c #E0E0E1",
"Z  c #FBFBFA",
"A  c #E5E5E7",
"S  c #DFDFE0",
"D  c #E2E2E3",
"F  c #E7E7E9",
"G  c #F6F6F7",
"H  c #F9F9FA",
"J  c #F2F2F3",
"K  c #E9E9EA",
"L  c #F5F5F6",
"P  c #F4F4F5",
"I  c #E1E1E2",
"U  c #EAE9EA",
"Y  c #EBEBEC",
"T  c #E3E3E5",
"R  c #F0F0EF",
"E  c #ECECEE",
"W  c #EDECEE",
"Q  c #EEEEF0",
"!  c #E6E6E8",
"~  c #FAFAFB",
"^  c gray99",
"/  c #F6F5F6",
"(  c #F8F7F7",
")  c #F7F7F6",
"_  c #F7F8F7",
"`  c #E9E9EB",
"'  c #DDDDDE",
"]  c #E8E8E7",
"[  c #E3E3E4",
"{  c #E6E6E7",
"}  c #E3E2E3",
"|  c #F1F1F3",
" . c #F7F7F8",
".. c #FBFCFB",
"X. c #E0E0E2",
"o. c #EBEAEB",
"O. c #E8E8EA",
"+. c #E6E5E7",
"@. c #DCDCDE",
"#. c #EAE9EB",
"$. c #EDEEED",
"%. c #DEDEE0",
"&. c #F0F0F1",
"*. c #F1F0F1",
"=. c #FAF9F9",
"-. c #F8F9F8",
";. c #FCFCFB",
":. c #F8F8F9",
">. c #F3F3F4",
",. c #DFDFE1",
"<. c #E4E4E6",
"1. c #E9E9E8",
"2. c #DEDEDF",
"3. c #DDDDDF",
"4. c #E7E7E6",
"5. c #EEEEED",
"6. c #EAEAE9",
"7. c #F9FAF9",
"8. c #F9F9F8",
"9. c #DEDDDE",
"0. c #DBDBDC",
"q. c #F2F2F1",
"w. c #F2F1F2",
"e. c #E6E5E6",
"r. c #E9E8E9",
"t. c #DCDCDD",
"y. c white",
/* pixels */
"  . X o         . X o       o O + @ #     o O + @ #     o $ % @ #     @ & * @ #     @ = * @ #       ",
"@   % @ o o o o # % @ o o o @ . % - o o o @ ; * - o o o @ : > - o o o - $ = - o o o - , = - o o o o ",
"$ & < ; : O O O $ < ; : O O ; & < ; O O O ; = < . : O : ; * 1 . : O : ; % X . : O : . 2 X ; : O $ $ ",
"2 % + > = 3 2 = * % > = 4 + = * + * = 3 2 * + 2 * > 5 + * + + * * 6 + % 2 X + % 7 + + X X + + 8 X X ",
"@ @ @ o 9 * O - o @ o - = ; - o @ o - * . @ @ @ o - +   @ @ @ o - %   @ @ @ @ @ % @ @ @ @ o @ 1 o @ ",
"o o @   - * O @ o @ o - > ; @ o @   - % . @ o o o @ 2 # o o o o @ %   o @ @ o @ 2 o o @ @ o @ < o @ ",
"1 + X * > 0 < % X < + * 3 X > + X * > 3 2 * 2 X % > 3 + > 2 2 * * 5 + * X X + + 7 2 2 < < 2 2 q < 4 ",
". O X # ; . . # & 1   ; . . # & +   . # . # = +   . . .   % *   ; . ; # > * # ; . O # + + . O . O O ",
"-   * - o @ o - ; > 9 o @ @ - ; = 9 o @ @ - : , 9 @ @ @ 9 $ $ 9 @ @ @ 9 : : 9 @ @ @ 9 , & 9 @ @ @ - ",
"& , 4 O $ : : O > X O $ : $ O * < O $ : $ O + X O $ : $ O 2 2 O $ $ & O 2 2 O $ $ & O X 2 O $ : $ & ",
"* > > = & 5 * & > % = > 3 > > > * = = 5 * > % % > * 7 * % % % > % 7 % % 2 2 * 2 7 * % 2 2 % X w % X ",
"@ @ @ o - + # @ @ @ @ o % @ @ @ @ @ @ + @ @ @ @ @ o + @ @ @ @ @   % - @ @ @ - # % 9 @ @ @ - # 2 9 @ ",
"  o o   @ % . o o o o   2 o   o o   o 2     o o o # 2 o   o o o . 2 @   o   o ; 2 @   o   o ; 1 @   ",
"< < 4 + 2 3 2 % X X % + 3 % * X X % + 3 + % 1 X % + 3 % * 1 2 * 2 5 % % 4 X % 1 5 * % 0 X + 1 7 + e ",
"o , + o .   .   = > o .   . o * > o .   . o * ,   . # . o + &   #   . o 1 $   #   . o 1 r   #   # t ",
"9 y > 9 @ @ @ 9 : : 9 @ @ @ 9 & $ 9 @ @ @ 9 & : - @ @ o 9 = ; - @ @ @ 9 u . - @ @ @ 9 * i - @ @ p @ ",
"a s d $ , & & $ 2 X & , , = & 1 X : $ & , $ 1 2 : , & , $ f g & a , h j k + , = , = l z x c = = = h ",
"+ v * > = 0 * = > * * * 7 > * * > = = 3 = > * > = * 5 = > b n > 2 6 > % m % % 2 7 * M m m b e 7 b M ",
"- p @ @ - > o @ @ @ @ o > - @ @ @ @ o * @ @ @ @ @ o % - @ @ @ - # % 9 @ @ @ - # + 9 @ @ @ N . B 9 @ ",
"  V o   o + .   o o   # 2 o   o o     + o   o o   # 2 o   o o o ; X @   o o o O < @   o   o : 2 -   ",
"X 1 < * % 5 X + < < % 2 5 + * < X % + 3 + % 1 X % + 3 % * < X % X 3 * X 0 1 2 < 6 X X 5 < X 0 C X 4 ",
"  , % @ #   # o * = o #   . o + &   .   . o % ,   #   . o 2 ,   #   .   X : # #   .   X O # #   # # ",
"9 O , 9 @ @ o 9 & : 9 @ @ @ Z = ; - @ @ @ 9 = O - @ @ o 9 * : - @ @ o 9 * # - @ @ @ 9 > # - @ @ @ @ ",
"= X 4 & = = , $ 1 X & = = = l 0 2 & , , , $ < + $ , , , : 4 % : & & & $ 6 * & , , , $ 5 * , = , , = ",
"> > = , , 5 = , = = & * 5 & = = = , % 0 & , > = & % 0 & , = = & + 3 $ * * * > 2 < = > * * > 1 3 = % ",
"@ @ @ @ - % o @ @ @ - # % 9 @ @ @ - # > 9 o @ @ - . > 9 o @ @ - ; % 9 @ @ @ - # : 9 @ @ @ 9 ; , 9 @ ",
"#     #   X #         ; X o #       O + o #     o : % @ # o   o : + @ # o     O & o # o   o & % @ # ",
"4 4 < * % 0 + * < 1 % 2 3 + % 0 X M X 5 f A S f X 0 3 + 2 D F X 4 5 2 X 5 1 X < 5 0 4 7 4 < 5 6 1 0 ",
"@ , > @   o   @ > & o   o # @ % : o   o G H s J o     # o K L       # o 2 ;       # o 2 .       # G ",
"9 $ , 9 o @ o - , ; - o @ o 9 > P - @ @ o 9 % . - @ @ o - >   - @ @ o 9 = # - @ @ @ 9 >   - @ @ - p ",
"$ 1 4 $ = = , $ < % $ , , c l d % & h = , & D K h * n = , I U n * > , c D * , = n n = 6 * > > b * Y ",
", , , & & 5 & & , & $ = T r , , , R b T l = a E h 1 k & u n W Q ! 0 $ = > = & s f , > = = = 1 T = Y ",
"@ @ @ @ @ % o @ @ @ -   * ~ @ @ @ - # > 9 @ @ @ 9 ; > ^ @ @ @ 9 : h 9 @ @ @ 9 O & 9 @ @ @ 9 O & ^ @ ",
"# # # . # s # #   # # O X o #   # # $ 1   . # / ( , e o . ) t _ Q ` o L   # o , * o . # .   = + o . ",
"< 3 d K 1 D X 2 5 f X < 5 1 X 6 4 1 4 C d 0 ' 4 ] [ I { < w d 1 f } ] X 6 < X 4 0 X 1 7 1 X 0 5 < 0 ",
"- > = @   o # @ + | @   o # - X O o   o # @ K P o o o   @ e ; o o o   o 1 #   o o   o X     o  .    ",
"^ , $ ..@ p @ ^ * ; 9 @ p @ ^ + # - @ p @ 9 % # - @ @ @ 9 K t - @ @ @ - M o - - @ @ - % @ @ - p p p ",
"F X.5 o.O.1 X + S +.m ` F e % @.1 + X X #.% C O.W $.* > , I g > g * % * C + % + % + + %.M + 2 ` 2 X ",
"n , c &.h 5 &., &.c *.o.k $ , &.& $ M [ : , $ & : + 4 : & &.& $ s < : c &., $ 1 < $ = , = & f d c b ",
"- p =.- -.B Z @ @ @ 9 ; % ^ @ @ @ 9 ; > ;.@ @ @ 9 $ = ^ :.@ @ 9 j h ^ @ @ @ 9 : , ^ @ @ @ ^ l R ^ - ",
"J P ; ; >.< . ; . P # h <   ; L . # h X   ; # ; # n K   ; # P ) Y 2   ; # ;   * 2   ; # ; ) M U   ; ",
"z ,.I < f [ 1 X S f X <.d 1.2 ,.1 X { f X X 8 4 s { A X ] 2.A 1 [ [ 1 < 3.4 ! 0 3 1 < ' f 4.D D f 0 ",
"9 5.$ - o @ o - 2 O @ o @   - 6.. @ o @ o @ 1   o o o   @ <   o @ @ o o X o o @ @ o o 1 o o @ @ o o ",
"^ = $ 9 @ @ @ 9 + ; - @ @ @ 9 % # - @ @ @ Z X   - @ 7.@ ~ 2 o p @ @ @ - 2 8.@ @ @ @ - 2 @ @ @ @ @ - ",
"X 7 0 % + K 2 o.8 < % s + + % 7 2 % 2 s 2 + q 2 + X F X 2 9.O.K X e 2 2 8 ` #.K 2 2 2 0.2 2 X s 2 1 ",
", & & & , D $ , & & $ M 0 y & $ & q.M < q., & , $ e { w., &.c $ < < $ , & c r e.< $ , c h : < d : = ",
"- @ @ - o + - @ @ @ 9 O B ^ @ @ @ 9 ; , ^ @ @ @ 9 : , ^ @ @ @ ;.$ $ 9 @ @ @ ^ , & ^ @ @ @ ^ , = ^ @ ",
": ; ; ; : 0 . ; . ; . = < # O . ; . > X # O . O # % 1   O . O # % % # O . O # 2 + # O P O # s X t O ",
"< C [ 1.1 0 X 2 6 < 2 < 3 1 X w < 1 4 4 1 1 2.{ r.+.4 2 1 w X 2 +.1 2 X w X X 0 4 1 1 t.{ 1 3 3 < f ",
"^ * : 9 @ - o 9 + . - @ - o - 2   - @ @ @ - e o @ p - o @ 2 @ @ @ @ @ o 1 - @ - - @ @ e @ @ - - @ H "
};
